<svg width="46" height="46" viewBox="0 0 46 46" fill="none" xmlns="http://www.w3.org/2000/svg">
<circle cx="23" cy="23" r="22.5" stroke="#E3E3E3"/>
<path fill-rule="evenodd" clip-rule="evenodd" d="M23.0227 9.18018C30.4611 9.18018 38.7691 20.2228 36.6698 28.6235C35.1059 34.8814 29.5875 38.2703 23.0227 38.2703C16.2142 38.2703 10.5322 34.6259 9.21802 27.9162C7.56696 19.4854 15.5979 9.18018 23.0227 9.18018ZM31.6732 25.4224C32.911 25.4224 32.911 28.0054 31.6732 28.0054C30.4358 28.0054 30.4362 25.4224 31.6732 25.4224ZM14.3276 25.4224C15.565 25.4224 15.565 28.0054 14.3276 28.0054C13.0902 28.0054 13.0902 25.4224 14.3276 25.4224ZM18.7606 29.5304C21.5244 30.613 24.2701 30.6692 26.9849 29.5277C27.2885 29.4002 27.4999 30.0091 27.1888 30.1403C24.3457 31.3389 21.4697 31.2845 18.5757 30.1508C18.2175 30.0105 18.4153 29.3951 18.7606 29.5304ZM23.0006 25.7073C25.803 25.7073 28.0756 27.3055 28.0756 29.2763C28.0756 31.2471 25.803 32.8453 23.0006 32.8453C20.1982 32.8453 17.9252 31.2471 17.9252 29.2763C17.9252 27.3055 20.1982 25.7073 23.0006 25.7073ZM23.0227 36.8733C28.2492 36.8733 33.9345 34.4572 35.4879 28.2417C36.2453 25.2112 35.4348 21.7428 33.7632 18.6863C31.8754 17.3939 30.1101 18.4938 29.5172 20.0897C28.5942 22.5735 27.7781 24.4679 26.7345 25.7941C30.9829 28.4538 28.5451 33.7765 23.0006 33.7765C17.458 33.7765 15.019 28.4575 19.2627 25.7964C18.2182 24.4702 17.4018 22.5748 16.4787 20.0897C15.8665 18.4426 14.0064 17.3239 12.051 18.8179C10.5784 21.6125 9.8568 24.7504 10.4172 27.6122C11.7153 34.2401 17.5626 36.8733 23.0227 36.8733Z" fill="#181818"/>
</svg>
