<svg width="96" height="124" viewBox="0 0 96 124" fill="none" xmlns="http://www.w3.org/2000/svg">
<path d="M95 48.2222C95 54.6241 92.0999 62.5078 87.6196 70.8237C83.1551 79.1106 77.1902 87.7032 71.2071 95.4889C65.2268 103.271 59.244 110.227 54.7551 115.238C52.5112 117.743 50.6417 119.761 49.334 121.151C48.786 121.734 48.3368 122.207 48 122.559C47.6632 122.207 47.214 121.734 46.666 121.151C45.3583 119.761 43.4888 117.743 41.2449 115.238C36.756 110.227 30.7732 103.271 24.7929 95.4889C18.8098 87.7032 12.845 79.1106 8.38036 70.8237C3.90011 62.5078 1 54.6241 1 48.2222C1 22.1378 22.047 1 48 1C73.953 1 95 22.1378 95 48.2222Z" fill="#FCFCFC" stroke="#609FFF" stroke-width="2"/>
</svg>
