<svg width="140" height="168" viewBox="0 0 140 168" fill="none" xmlns="http://www.w3.org/2000/svg">
<g filter="url(#filter0_d)">
<path d="M117 58.2222C117 84.8546 69 134 69 134C69 134 21 84.8546 21 58.2222C21 31.5898 42.4903 10 69 10C95.5097 10 117 31.5898 117 58.2222Z" fill="#FCFCFC"/>
<path d="M116 58.2222C116 64.6241 113.1 72.5078 108.62 80.8237C104.155 89.1106 98.1902 97.7032 92.2071 105.489C86.2268 113.271 80.244 120.227 75.7552 125.238C73.5112 127.743 71.6417 129.76 70.334 131.151C69.786 131.734 69.3368 132.207 69 132.559C68.6632 132.207 68.214 131.734 67.666 131.151C66.3583 129.76 64.4888 127.743 62.2449 125.238C57.756 120.227 51.7732 113.271 45.7929 105.489C39.8098 97.7032 33.845 89.1106 29.3804 80.8237C24.9001 72.5078 22 64.6241 22 58.2222C22 32.1377 43.047 11 69 11C94.953 11 116 32.1377 116 58.2222Z" stroke="#609FFF" stroke-width="2"/>
</g>
<defs>
<filter id="filter0_d" x="0" y="0" width="140" height="168" filterUnits="userSpaceOnUse" color-interpolation-filters="sRGB">
<feFlood flood-opacity="0" result="BackgroundImageFix"/>
<feColorMatrix in="SourceAlpha" type="matrix" values="0 0 0 0 0 0 0 0 0 0 0 0 0 0 0 0 0 0 127 0"/>
<feOffset dx="1" dy="12"/>
<feGaussianBlur stdDeviation="11"/>
<feColorMatrix type="matrix" values="0 0 0 0 0 0 0 0 0 0 0 0 0 0 0 0 0 0 0.09 0"/>
<feBlend mode="normal" in2="BackgroundImageFix" result="effect1_dropShadow"/>
<feBlend mode="normal" in="SourceGraphic" in2="effect1_dropShadow" result="shape"/>
</filter>
</defs>
</svg>
