<svg width="24" height="24" viewBox="0 0 24 24" fill="none" xmlns="http://www.w3.org/2000/svg">
<path d="M8.688 14.688C12.001 14.688 14.688 12 14.688 8.688C14.688 5.376 12 2.688 8.688 2.688C5.376 2.688 2.688 5.376 2.688 8.688C2.688 12 5.376 14.688 8.688 14.688ZM16.688 14.688L23.313 21.313L21.313 23.313L14.688 16.688V15.625L14.313 15.25C12.813 16.563 10.813 17.313 8.688 17.313C3.875 17.313 0 13.5 0 8.688C0 3.876 3.875 0 8.688 0C13.501 0 17.313 3.875 17.313 8.688C17.313 10.813 16.563 12.813 15.25 14.313L15.625 14.688H16.688Z" fill="white"/>
</svg>
