<svg width="8" height="14" viewBox="0 0 8 14" fill="none" xmlns="http://www.w3.org/2000/svg">
<path d="M2.88379 9.39648C2.89551 8.69922 2.97461 8.14844 3.12109 7.74414C3.26758 7.33984 3.56641 6.8916 4.01758 6.39941L5.16895 5.21289C5.66113 4.65625 5.90723 4.05859 5.90723 3.41992C5.90723 2.80469 5.74609 2.32422 5.42383 1.97852C5.10156 1.62695 4.63281 1.45117 4.01758 1.45117C3.41992 1.45117 2.93945 1.60938 2.57617 1.92578C2.21289 2.24219 2.03125 2.66699 2.03125 3.2002H0.405273C0.416992 2.25098 0.753906 1.48633 1.41602 0.90625C2.08398 0.320312 2.95117 0.0273438 4.01758 0.0273438C5.125 0.0273438 5.98633 0.326172 6.60156 0.923828C7.22266 1.51562 7.5332 2.33008 7.5332 3.36719C7.5332 4.39258 7.05859 5.40332 6.10938 6.39941L5.15137 7.34863C4.72363 7.82324 4.50977 8.50586 4.50977 9.39648H2.88379ZM2.81348 12.1826C2.81348 11.9189 2.89258 11.6992 3.05078 11.5234C3.21484 11.3418 3.45508 11.251 3.77148 11.251C4.08789 11.251 4.32812 11.3418 4.49219 11.5234C4.65625 11.6992 4.73828 11.9189 4.73828 12.1826C4.73828 12.4463 4.65625 12.666 4.49219 12.8418C4.32812 13.0117 4.08789 13.0967 3.77148 13.0967C3.45508 13.0967 3.21484 13.0117 3.05078 12.8418C2.89258 12.666 2.81348 12.4463 2.81348 12.1826Z" fill="#2196F3"/>
</svg>
