<svg width="243" height="197" viewBox="0 0 243 197" fill="none" xmlns="http://www.w3.org/2000/svg">
<path d="M68.5 59.2704L67.6568 58.7328L68.5 59.2704ZM110.5 93.0001L111.254 93.6574L110.5 93.0001ZM59 62L58.8015 61.0199L59 62ZM10.5329 196.884C11.0212 197.142 11.6262 196.956 11.8842 196.467L16.0888 188.51C16.3468 188.021 16.1601 187.416 15.6718 187.158C15.1835 186.9 14.5785 187.087 14.3205 187.575L10.583 194.649L3.50974 190.911C3.02143 190.653 2.41641 190.84 2.1584 191.328C1.90038 191.817 2.08707 192.422 2.57538 192.68L10.5329 196.884ZM11.9556 195.705C11.4461 194.054 10.959 192.421 10.494 190.805L8.572 191.358C9.04065 192.986 9.53135 194.632 10.0445 196.295L11.9556 195.705ZM7.89407 181.034C7.07034 177.653 6.34807 174.355 5.723 171.139L3.75973 171.52C4.391 174.768 5.12003 178.097 5.95091 181.507L7.89407 181.034ZM4.05207 161.144C3.57333 157.698 3.21334 154.356 2.96589 151.115L0.971698 151.267C1.22241 154.551 1.58691 157.934 2.0711 161.419L4.05207 161.144ZM2.55032 141.007C2.53579 137.515 2.66226 134.154 2.92016 130.923L0.926494 130.764C0.663982 134.053 0.535587 137.469 0.550335 141.015L2.55032 141.007ZM4.19681 120.936C4.81055 117.508 5.58699 114.248 6.5113 111.151L4.59486 110.579C3.64829 113.75 2.85466 117.084 2.22811 120.584L4.19681 120.936ZM9.98358 101.731C11.3865 98.58 12.9631 95.6349 14.6913 92.8888L12.9987 91.8235C11.2189 94.6514 9.59765 97.6807 8.15646 100.918L9.98358 101.731ZM20.65 84.8441C22.8783 82.2751 25.2639 79.9361 27.7785 77.8178L26.4899 76.2882C23.897 78.4725 21.4369 80.8846 19.1392 83.5337L20.65 84.8441ZM35.9099 71.976C38.7833 70.2266 41.7667 68.7074 44.8278 67.4084L44.0466 65.5673C40.8994 66.9028 37.8292 68.4659 34.8698 70.2677L35.9099 71.976ZM54.3123 64.1353C55.9309 63.6964 57.5611 63.3117 59.1985 62.9801L58.8015 61.0199C57.1223 61.36 55.4499 61.7545 53.7888 62.2051L54.3123 64.1353ZM59.1985 62.9801C60.8331 62.649 62.4296 62.3598 63.9881 62.1104L63.6721 60.1355C62.0858 60.3893 60.4623 60.6835 58.8015 61.0199L59.1985 62.9801ZM73.642 61.0278C77.0912 60.8181 80.3089 60.8266 83.2981 61.0233L83.4295 59.0277C80.3504 58.825 77.0481 58.817 73.5206 59.0315L73.642 61.0278ZM92.8164 62.4296C96.2292 63.2543 99.206 64.3732 101.758 65.7049L102.683 63.9318C99.9734 62.5178 96.8416 61.3448 93.2861 60.4856L92.8164 62.4296ZM109.23 71.3907C111.484 73.9368 112.857 76.7324 113.398 79.5394L115.362 79.1606C114.747 75.9726 113.198 72.8559 110.727 70.0649L109.23 71.3907ZM112.276 88.4898C111.648 89.8341 110.805 91.1291 109.746 92.3427L111.254 93.6574C112.43 92.3084 113.378 90.8569 114.088 89.3367L112.276 88.4898ZM109.746 92.3427C108.595 93.6626 107.372 94.8269 106.095 95.8437L107.341 97.4084C108.714 96.3154 110.024 95.0671 111.254 93.6574L109.746 92.3427ZM97.1954 100.457C93.9114 101.409 90.5133 101.686 87.1938 101.366L87.002 103.357C90.5602 103.699 94.2129 103.404 97.7519 102.378L97.1954 100.457ZM77.5092 98.6179C74.46 97.1189 71.7183 95.0751 69.4942 92.5822L68.0018 93.9136C70.4071 96.6097 73.3597 98.8066 76.6268 100.413L77.5092 98.6179ZM64.5978 83.9042C63.6886 80.8818 63.3819 77.5433 63.8516 73.9513L61.8684 73.692C61.3629 77.5586 61.6904 81.1821 62.6825 84.4804L64.5978 83.9042ZM66.831 64.2986C67.5383 62.8288 68.3726 61.3307 69.3433 59.8079L67.6568 58.7328C66.6457 60.319 65.7723 61.8863 65.0288 63.4314L66.831 64.2986ZM69.3433 59.8079C70.2005 58.463 71.0835 57.1441 71.9916 55.8508L70.3548 54.7014C69.4295 56.0192 68.53 57.3629 67.6568 58.7328L69.3433 59.8079ZM77.8039 48.3188C79.86 45.8893 82.0165 43.5643 84.2684 41.342L82.8636 39.9185C80.5695 42.1823 78.3724 44.5511 76.2773 47.0267L77.8039 48.3188ZM91.328 34.9632C93.7666 32.9451 96.2963 31.0275 98.9122 29.2088L97.7705 27.5667C95.1098 29.4166 92.5355 31.3678 90.0529 33.4223L91.328 34.9632ZM106.941 24.09C109.665 22.4995 112.467 21.0019 115.343 19.5957L114.465 17.799C111.546 19.2262 108.7 20.7468 105.932 22.3629L106.941 24.09ZM124.053 15.7046C126.972 14.5171 129.955 13.4135 132.999 12.3925L132.363 10.4963C129.28 11.5302 126.258 12.6483 123.299 13.8521L124.053 15.7046ZM142.133 9.62362C145.177 8.79452 148.274 8.04071 151.421 7.36087L150.998 5.40599C147.819 6.09305 144.687 6.8552 141.607 7.6939L142.133 9.62362ZM160.801 5.57533C163.916 5.05955 167.074 4.61104 170.27 4.2286L170.032 2.24276C166.807 2.62866 163.62 3.08137 160.474 3.60219L160.801 5.57533ZM179.785 3.29274C182.937 3.04785 186.123 2.86333 189.338 2.73812L189.261 0.739638C186.02 0.865821 182.809 1.05181 179.63 1.29875L179.785 3.29274ZM198.903 2.53978C202.071 2.53041 205.264 2.57564 208.479 2.67449L208.541 0.675433C205.303 0.57591 202.088 0.530349 198.897 0.53979L198.903 2.53978ZM218.037 3.12125C221.204 3.31899 224.389 3.56647 227.59 3.86277L227.775 1.87128C224.554 1.57318 221.349 1.32415 218.162 1.12514L218.037 3.12125ZM237.109 4.88116C238.692 5.07297 240.277 5.27628 241.866 5.49096L242.134 3.50898C240.536 3.29308 238.942 3.08862 237.35 2.89569L237.109 4.88116Z" fill="#0F0049"/>
</svg>
