<svg width="206" height="99" viewBox="0 0 206 99" fill="none" xmlns="http://www.w3.org/2000/svg">
<path d="M197.293 98.2071C197.683 98.5976 198.317 98.5976 198.707 98.2071L205.071 91.8431C205.462 91.4526 205.462 90.8195 205.071 90.4289C204.681 90.0384 204.047 90.0384 203.657 90.4289L198 96.0858L192.343 90.4289C191.953 90.0384 191.319 90.0384 190.929 90.4289C190.538 90.8195 190.538 91.4526 190.929 91.8431L197.293 98.2071ZM0.0383304 0.774211C0.541164 2.53767 1.06928 4.25301 1.62192 5.92146L3.52048 5.29261C2.97691 3.65153 2.45703 1.96302 1.96167 0.225789L0.0383304 0.774211ZM5.37037 15.7092C6.84221 19.0532 8.43129 22.1706 10.1288 25.0756L11.8556 24.0666C10.1983 21.2303 8.64351 18.1811 7.2009 14.9035L5.37037 15.7092ZM16.0229 33.7957C18.2556 36.6541 20.6203 39.2451 23.1026 41.5911L24.4764 40.1375C22.0679 37.8612 19.7706 35.3448 17.599 32.5646L16.0229 33.7957ZM31.3007 48.2021C34.2375 50.2114 37.291 51.9595 40.4417 53.4766L41.3093 51.6746C38.245 50.1991 35.2794 48.501 32.4301 46.5515L31.3007 48.2021ZM50.2248 57.3837C53.5462 58.4646 56.9444 59.3452 60.4001 60.0557L60.8029 58.0967C57.413 57.3997 54.0875 56.5375 50.8438 55.4819L50.2248 57.3837ZM70.7785 61.6912C74.2276 62.0841 77.7146 62.3447 81.222 62.5006L81.3108 60.5026C77.8432 60.3485 74.4025 60.091 71.0048 59.7041L70.7785 61.6912ZM91.6867 62.682C95.1709 62.6574 98.6598 62.5572 102.137 62.4072L102.05 60.4091C98.5925 60.5582 95.1281 60.6577 91.6726 60.682L91.6867 62.682ZM112.554 61.8315C116.057 61.6035 119.533 61.3507 122.961 61.1006L122.816 59.1059C119.387 59.356 115.918 59.6083 112.424 59.8357L112.554 61.8315ZM133.355 60.368C136.889 60.1376 140.35 59.942 143.717 59.8138L143.641 57.8152C140.249 57.9444 136.77 58.1412 133.225 58.3722L133.355 60.368ZM154.085 59.6717C157.682 59.7301 161.124 59.9215 164.382 60.2931L164.609 58.306C161.272 57.9253 157.763 57.7311 154.117 57.6719L154.085 59.6717ZM174.434 62.2389C177.844 63.2384 180.924 64.5743 183.633 66.3242L184.718 64.6442C181.818 62.7709 178.554 61.3626 174.996 60.3196L174.434 62.2389ZM190.821 73.194C192.613 75.7375 194.055 78.7454 195.094 82.3013L197.014 81.7403C195.919 77.9951 194.387 74.7834 192.456 72.0422L190.821 73.194ZM196.811 92.2388C196.936 93.9076 197 95.66 197 97.5H199C199 95.6137 198.934 93.8112 198.805 92.0891L196.811 92.2388Z" fill="#0F0049"/>
</svg>
