<svg width="54" height="67" viewBox="0 0 54 67" fill="none" xmlns="http://www.w3.org/2000/svg">
<g clip-path="url(#clip0)">
<path d="M52.7158 58.2361L48.8596 22.9013C48.799 10.2931 38.8917 0.0556641 26.7227 0.0556641C14.5537 0.0556641 4.64643 10.2938 4.58647 22.9013L0.729569 58.2361C0.665094 58.8273 0.856587 59.4178 1.25311 59.8479C1.64963 60.2785 2.21121 60.5079 2.78117 60.4638C2.82114 60.4611 6.76508 60.1896 10.317 60.1896C12.8206 60.1896 14.0649 60.3233 14.6684 60.4364C17.6897 60.9995 23.5873 64.9692 25.6047 66.4519C25.94 66.6973 26.3313 66.8211 26.7227 66.8211C27.1147 66.8211 27.508 66.6967 27.8433 66.4492C29.7975 65.008 35.5184 61.1366 38.4797 60.5427C39.1612 60.4063 40.6029 60.2438 43.6042 60.2438C47.0568 60.2438 50.6429 60.4624 50.6784 60.4651C51.2451 60.4925 51.8035 60.2719 52.1968 59.8425C52.5901 59.4132 52.7803 58.8246 52.7158 58.2361ZM43.6042 56.2312C40.9111 56.2312 38.9955 56.3529 37.7454 56.6037C34.2766 57.2992 29.049 60.7487 26.7201 62.3785C24.3358 60.7159 18.9135 57.1514 15.3519 56.4866C14.2332 56.278 12.5859 56.177 10.3157 56.177C8.35826 56.177 6.32794 56.2532 4.82954 56.3275L8.44143 23.2431C8.44982 23.1681 8.45368 23.0926 8.45368 23.0177C8.45368 12.5689 16.6485 4.06892 26.7221 4.06892C36.795 4.06892 44.9904 12.5689 44.9904 23.0177C44.9904 23.0932 44.9949 23.1688 45.0027 23.2431L48.6159 56.3455C47.2464 56.288 45.4237 56.2312 43.6042 56.2312Z" fill="#0F0049"/>
<path d="M15.1173 25.4944C17.0312 25.4944 18.5828 23.885 18.5828 21.8998C18.5828 19.9145 17.0312 18.3052 15.1173 18.3052C13.2033 18.3052 11.6517 19.9145 11.6517 21.8998C11.6517 23.885 13.2033 25.4944 15.1173 25.4944Z" fill="#0F0049"/>
<path d="M38.3282 25.4944C40.2422 25.4944 41.7937 23.885 41.7937 21.8998C41.7937 19.9145 40.2422 18.3052 38.3282 18.3052C36.4142 18.3052 34.8627 19.9145 34.8627 21.8998C34.8627 23.885 36.4142 25.4944 38.3282 25.4944Z" fill="#0F0049"/>
<path d="M26.7227 50.2664L35.3546 27.0811H18.0895L26.7227 50.2664ZM26.7227 39.1288L23.731 31.0936H29.7143L26.7227 39.1288Z" fill="#0F0049"/>
</g>
<defs>
<clipPath id="clip0">
<rect width="52.8696" height="66.8764" fill="white" transform="translate(0.260864)"/>
</clipPath>
</defs>
</svg>
