<svg width="24" height="24" viewBox="0 0 24 24" fill="none" xmlns="http://www.w3.org/2000/svg">
<path d="M14.25 17.9531C14.25 19.8375 14.2453 21.7172 14.2546 23.6016C14.2546 23.8078 14.1984 23.8641 13.9921 23.8594C12.389 23.85 10.7906 23.85 9.18745 23.8594C8.96714 23.8594 8.89683 23.8078 8.89683 23.5781C8.9062 19.8422 8.90151 16.1109 8.90151 12.375C8.90151 12 8.9437 12.0469 8.55933 12.0422C7.87964 12.0422 7.19995 12.0375 6.52026 12.0469C6.3562 12.0469 6.30933 11.9953 6.30933 11.8313C6.31401 10.6453 6.31401 9.4547 6.30933 8.26876C6.30933 8.1047 6.3562 8.05313 6.52026 8.05782C7.23276 8.0672 7.94058 8.05313 8.65308 8.0672C8.84526 8.07189 8.9062 8.02032 8.9062 7.81876C8.89683 6.82032 8.9062 5.8172 8.90151 4.81876C8.89683 3.98907 9.02339 3.18751 9.44058 2.45626C9.89058 1.65939 10.5656 1.11095 11.4 0.754699C12.1031 0.454699 12.8437 0.314074 13.6031 0.271886C15.1078 0.187511 16.6171 0.257824 18.1218 0.229699C18.2906 0.225011 18.3328 0.285949 18.3328 0.445324C18.3281 1.67814 18.3281 2.91564 18.3328 4.14845C18.3328 4.33595 18.2625 4.36407 18.0984 4.36407C17.2312 4.35939 16.364 4.35939 15.4968 4.35939C14.775 4.35939 14.2546 4.8797 14.2546 5.5922C14.2546 6.32814 14.264 7.05938 14.25 7.79532C14.2453 8.00626 14.3156 8.05782 14.5171 8.05782C15.7031 8.04845 16.8937 8.05782 18.0796 8.04845C18.2765 8.04845 18.3421 8.1047 18.3187 8.30157C18.2484 8.90626 18.1875 9.51095 18.1218 10.1156C18.0609 10.6969 17.9578 11.2734 17.864 11.85C17.8359 12.0141 17.7843 12.0516 17.6343 12.0516C16.6171 12.0469 15.6046 12.0469 14.5875 12.0516C14.189 12.0516 14.2453 12 14.2453 12.4031C14.25 14.25 14.25 16.1016 14.25 17.9531Z" fill="#080029"/>
</svg>
