<svg width="40" height="46" viewBox="0 0 40 46" fill="none" xmlns="http://www.w3.org/2000/svg">
<path d="M39.8514 27.843C39.6874 24.9424 38.9274 19.1901 37.9826 16.3782C35.9451 10.3099 29.8685 0.0400391 20.0151 0.0400391C10.1633 0.0400391 4.08551 10.3099 2.04773 16.3782C1.10218 19.1927 0.342546 24.9438 0.179213 27.8433C-0.0689352 32.2493 1.56144 36.5485 4.77032 39.9491C8.37514 43.7693 13.4363 45.9603 18.6563 45.9603H21.3748C26.594 45.9603 31.6551 43.7693 35.26 39.9491C38.4688 36.5481 40.0996 32.2493 39.8514 27.843ZM33.6448 38.42C30.5044 41.7476 25.9177 43.7341 21.3744 43.7341H18.6559C14.1125 43.7341 9.52514 41.7476 6.38514 38.4196C3.60033 35.4686 2.1844 31.757 2.39773 27.9683C2.5581 25.1316 3.30366 19.6193 4.15403 17.0871C5.87588 11.9607 11.4066 2.26547 20.0155 2.26547C28.6259 2.26547 34.1555 11.9607 35.8766 17.0875C36.7266 19.6171 37.4729 25.1301 37.6333 27.9683C37.8463 31.757 36.43 35.4689 33.6448 38.42Z" fill="#080029"/>
<path d="M25.9614 13.6831C23.7714 13.6831 21.6958 14.421 20.0151 15.7802C18.3343 14.421 16.2588 13.6831 14.0684 13.6831C8.83396 13.6831 4.57544 17.9485 4.57544 23.1914C4.57544 26.677 6.43877 29.8076 9.41433 31.4751C9.10618 32.1744 8.94692 32.907 8.94692 33.6415C8.94692 37.8223 13.8084 41.0969 20.0151 41.0969C26.2217 41.0969 31.0829 37.8223 31.0829 33.6415C31.0829 32.907 30.9232 32.174 30.6154 31.4751C33.591 29.8076 35.454 26.6766 35.454 23.1914C35.4543 17.9485 31.1958 13.6831 25.9614 13.6831ZM28.6473 29.9538L27.3195 30.4831L28.1591 31.6417C28.6247 32.2838 28.861 32.9567 28.861 33.6415C28.861 36.4765 24.8099 38.8711 20.0154 38.8711C15.2206 38.8711 11.1695 36.4765 11.1695 33.6415C11.1695 32.9571 11.4058 32.2845 11.8717 31.6417L12.7114 30.4831L11.384 29.9538C8.5984 28.8431 6.79877 26.1884 6.79877 23.1914C6.79877 19.176 10.0603 15.9089 14.0695 15.9089C16.0199 15.9089 17.8517 16.6735 19.2277 18.0613L20.0162 18.857L20.8047 18.0613C22.1806 16.6735 24.0121 15.9089 25.9625 15.9089C29.9714 15.9089 33.2332 19.176 33.2332 23.1914C33.2321 26.1884 31.4325 28.8431 28.6473 29.9538Z" fill="#080029"/>
<path d="M13.3482 24.2892C14.4476 24.2892 15.3389 23.3965 15.3389 22.2952C15.3389 21.194 14.4476 20.3013 13.3482 20.3013C12.2487 20.3013 11.3574 21.194 11.3574 22.2952C11.3574 23.3965 12.2487 24.2892 13.3482 24.2892Z" fill="#080029"/>
<path d="M26.6821 24.2892C27.7816 24.2892 28.6729 23.3965 28.6729 22.2952C28.6729 21.194 27.7816 20.3013 26.6821 20.3013C25.5827 20.3013 24.6914 21.194 24.6914 22.2952C24.6914 23.3965 25.5827 24.2892 26.6821 24.2892Z" fill="#080029"/>
<path d="M19.1858 28.2876H16.9636V31.2884H19.1858V28.2876Z" fill="#080029"/>
<path d="M23.0667 28.2876H20.8445V31.2884H23.0667V28.2876Z" fill="#080029"/>
</svg>
