<svg width="53" height="40" viewBox="0 0 53 40" fill="none" xmlns="http://www.w3.org/2000/svg">
<path d="M23.1348 35.5654C24.4082 36.2021 27.7192 37.0935 30.7755 35.5654" stroke="black" stroke-width="2.14582" stroke-linecap="round"/>
<path d="M10.6076 5.81018C9.2964 8.69216 6.81334 9.64348 4.86922 9.12255C2.9251 8.60163 1.40314 5.96606 1.92397 4.02229C2.4448 2.07852 5.08064 0.557039 7.02476 1.07796C8.96888 1.59889 11.1284 3.86641 10.6076 5.81018Z" fill="#0B0B0B"/>
<path d="M42.9536 5.85941C44.2656 8.74325 46.7498 9.69528 48.6948 9.17411C50.6398 8.65295 52.1624 6.01581 51.6412 4.0708C51.1201 2.12579 48.4829 0.603238 46.5379 1.1244C44.5929 1.64556 42.4324 3.91441 42.9536 5.85941Z" fill="#0B0B0B"/>
<path d="M15.1712 32.9077C12.4235 32.9077 10.2604 32.2354 8.68196 30.8908C7.1035 29.5462 6.26555 27.5682 6.16811 24.9569C6.14863 24.3918 6.13888 23.5539 6.13888 22.4431C6.13888 21.3128 6.14863 20.4651 6.16811 19.9C6.26555 17.3277 7.11324 15.3498 8.71119 13.9662C10.3286 12.5631 12.482 11.8616 15.1712 11.8616C17.8604 11.8616 20.0138 12.5631 21.6312 13.9662C23.2486 15.3498 24.0963 17.3277 24.1743 19.9C24.2132 21.0303 24.2327 21.878 24.2327 22.4431C24.2327 22.9887 24.2132 23.8267 24.1743 24.9569C24.0768 27.5682 23.2389 29.5462 21.6604 30.8908C20.082 32.2354 17.9189 32.9077 15.1712 32.9077ZM15.1712 28.6985C16.243 28.6985 17.0907 28.3769 17.7143 27.7339C18.3573 27.0908 18.6984 26.1067 18.7373 24.7816C18.7763 23.6513 18.7958 22.8523 18.7958 22.3846C18.7958 21.878 18.7763 21.079 18.7373 19.9877C18.6984 18.6626 18.3573 17.6785 17.7143 17.0354C17.0712 16.3923 16.2235 16.0708 15.1712 16.0708C14.1189 16.0708 13.2712 16.3923 12.6281 17.0354C12.0045 17.6785 11.6635 18.6626 11.605 19.9877C11.5856 20.5334 11.5758 21.3323 11.5758 22.3846C11.5758 23.4175 11.5856 24.2164 11.605 24.7816C11.6635 26.1067 12.0045 27.0908 12.6281 27.7339C13.2517 28.3769 14.0994 28.6985 15.1712 28.6985ZM38.9041 32.9077C36.1564 32.9077 33.9933 32.2354 32.4148 30.8908C30.8364 29.5462 29.9984 27.5682 29.901 24.9569C29.8815 24.3918 29.8718 23.5539 29.8718 22.4431C29.8718 21.3128 29.8815 20.4651 29.901 19.9C29.9984 17.3277 30.8461 15.3498 32.4441 13.9662C34.0615 12.5631 36.2148 11.8616 38.9041 11.8616C41.5933 11.8616 43.7466 12.5631 45.3641 13.9662C46.9815 15.3498 47.8292 17.3277 47.9071 19.9C47.9461 21.0303 47.9656 21.878 47.9656 22.4431C47.9656 22.9887 47.9461 23.8267 47.9071 24.9569C47.8097 27.5682 46.9718 29.5462 45.3933 30.8908C43.8148 32.2354 41.6518 32.9077 38.9041 32.9077ZM38.9041 28.6985C39.9759 28.6985 40.8236 28.3769 41.4471 27.7339C42.0902 27.0908 42.4312 26.1067 42.4702 24.7816C42.5092 23.6513 42.5287 22.8523 42.5287 22.3846C42.5287 21.878 42.5092 21.079 42.4702 19.9877C42.4312 18.6626 42.0902 17.6785 41.4471 17.0354C40.8041 16.3923 39.9564 16.0708 38.9041 16.0708C37.8518 16.0708 37.0041 16.3923 36.361 17.0354C35.7374 17.6785 35.3964 18.6626 35.3379 19.9877C35.3184 20.5334 35.3087 21.3323 35.3087 22.3846C35.3087 23.4175 35.3184 24.2164 35.3379 24.7816C35.3964 26.1067 35.7374 27.0908 36.361 27.7339C36.9846 28.3769 37.8323 28.6985 38.9041 28.6985Z" fill="black"/>
</svg>
