<svg width="24" height="24" viewBox="0 0 24 24" fill="none" xmlns="http://www.w3.org/2000/svg">
<path d="M15.52 12C15.52 12.6962 15.3136 13.3767 14.9268 13.9556C14.54 14.5345 13.9902 14.9856 13.347 15.2521C12.7038 15.5185 11.9961 15.5882 11.3133 15.4524C10.6305 15.3165 10.0033 14.9813 9.51098 14.489C9.0187 13.9967 8.68346 13.3695 8.54764 12.6867C8.41182 12.0039 8.48152 11.2962 8.74794 10.653C9.01436 10.0098 9.46553 9.46001 10.0444 9.07323C10.6233 8.68644 11.3038 8.48 12 8.48C12.9332 8.48107 13.8279 8.85227 14.4878 9.51216C15.1477 10.1721 15.5189 11.0668 15.52 12ZM23 7.16V16.84C22.9981 18.4732 22.3486 20.0389 21.1937 21.1937C20.0389 22.3486 18.4732 22.9981 16.84 23H7.16C5.52683 22.9981 3.96109 22.3486 2.80627 21.1937C1.65144 20.0389 1.00185 18.4732 1 16.84V7.16C1.00185 5.52683 1.65144 3.96109 2.80627 2.80627C3.96109 1.65144 5.52683 1.00185 7.16 1H16.84C18.4732 1.00185 20.0389 1.65144 21.1937 2.80627C22.3486 3.96109 22.9981 5.52683 23 7.16ZM17.28 12C17.28 10.9557 16.9703 9.93488 16.3902 9.06659C15.81 8.1983 14.9854 7.52155 14.0206 7.12192C13.0558 6.72229 11.9941 6.61772 10.9699 6.82145C9.9457 7.02518 9.0049 7.52806 8.26648 8.26648C7.52806 9.0049 7.02518 9.9457 6.82145 10.9699C6.61772 11.9941 6.72229 13.0558 7.12192 14.0206C7.52155 14.9854 8.1983 15.81 9.06659 16.3902C9.93488 16.9703 10.9557 17.28 12 17.28C13.3999 17.2784 14.7419 16.7216 15.7318 15.7318C16.7216 14.7419 17.2784 13.3999 17.28 12ZM19.04 6.28C19.04 6.01893 18.9626 5.76372 18.8175 5.54665C18.6725 5.32957 18.4663 5.16039 18.2251 5.06048C17.9839 4.96057 17.7185 4.93443 17.4625 4.98536C17.2064 5.0363 16.9712 5.16201 16.7866 5.34662C16.602 5.53122 16.4763 5.76643 16.4254 6.02248C16.3744 6.27854 16.4006 6.54394 16.5005 6.78514C16.6004 7.02634 16.7696 7.2325 16.9866 7.37754C17.2037 7.52258 17.4589 7.6 17.72 7.6C18.0701 7.6 18.4058 7.46093 18.6534 7.21338C18.9009 6.96583 19.04 6.63009 19.04 6.28Z" fill="#080029"/>
</svg>
