<svg width="153" height="117" viewBox="0 0 153 117" fill="none" xmlns="http://www.w3.org/2000/svg">
<path d="M65.1941 104.028C68.919 105.891 78.6035 108.498 87.5432 104.028" stroke="#FCFCFC" stroke-width="6.27652" stroke-linecap="round"/>
<path d="M28.5521 16.9948C24.7168 25.4246 17.4538 28.2072 11.7673 26.6835C6.08073 25.1598 1.62901 17.4507 3.15244 11.7652C4.67587 6.07968 12.3857 1.62934 18.0722 3.15305C23.7588 4.67675 30.0755 11.3093 28.5521 16.9948Z" fill="#FCFCFC"/>
<path d="M123.164 17.1382C127.002 25.5734 134.268 28.3581 139.957 26.8337C145.646 25.3093 150.1 17.5956 148.576 11.9065C147.051 6.21734 139.338 1.76387 133.648 3.28828C127.959 4.81268 121.64 11.449 123.164 17.1382Z" fill="#FCFCFC"/>
<path d="M41.9007 94.355C33.8637 94.355 27.5367 92.3885 22.9197 88.4555C18.3027 84.5225 15.8517 78.737 15.5667 71.099C15.5097 69.446 15.4812 66.995 15.4812 63.746C15.4812 60.44 15.5097 57.9605 15.5667 56.3075C15.8517 48.7835 18.3312 42.998 23.0052 38.951C27.7362 34.847 34.0347 32.795 41.9007 32.795C49.7667 32.795 56.0652 34.847 60.7962 38.951C65.5272 42.998 68.0067 48.7835 68.2347 56.3075C68.3487 59.6135 68.4057 62.093 68.4057 63.746C68.4057 65.342 68.3487 67.793 68.2347 71.099C67.9497 78.737 65.4987 84.5225 60.8817 88.4555C56.2647 92.3885 49.9377 94.355 41.9007 94.355ZM41.9007 82.043C45.0357 82.043 47.5152 81.1025 49.3392 79.2215C51.2202 77.3405 52.2177 74.462 52.3317 70.586C52.4457 67.28 52.5027 64.943 52.5027 63.575C52.5027 62.093 52.4457 59.756 52.3317 56.564C52.2177 52.688 51.2202 49.8095 49.3392 47.9285C47.4582 46.0475 44.9787 45.107 41.9007 45.107C38.8227 45.107 36.3432 46.0475 34.4622 47.9285C32.6382 49.8095 31.6407 52.688 31.4697 56.564C31.4127 58.16 31.3842 60.497 31.3842 63.575C31.3842 66.596 31.4127 68.933 31.4697 70.586C31.6407 74.462 32.6382 77.3405 34.4622 79.2215C36.2862 81.1025 38.7657 82.043 41.9007 82.043ZM111.319 94.355C103.282 94.355 96.9554 92.3885 92.3384 88.4555C87.7214 84.5225 85.2704 78.737 84.9854 71.099C84.9284 69.446 84.8999 66.995 84.8999 63.746C84.8999 60.44 84.9284 57.9605 84.9854 56.3075C85.2704 48.7835 87.7499 42.998 92.4239 38.951C97.1549 34.847 103.453 32.795 111.319 32.795C119.185 32.795 125.484 34.847 130.215 38.951C134.946 42.998 137.425 48.7835 137.653 56.3075C137.767 59.6135 137.824 62.093 137.824 63.746C137.824 65.342 137.767 67.793 137.653 71.099C137.368 78.737 134.917 84.5225 130.3 88.4555C125.683 92.3885 119.356 94.355 111.319 94.355ZM111.319 82.043C114.454 82.043 116.934 81.1025 118.758 79.2215C120.639 77.3405 121.636 74.462 121.75 70.586C121.864 67.28 121.921 64.943 121.921 63.575C121.921 62.093 121.864 59.756 121.75 56.564C121.636 52.688 120.639 49.8095 118.758 47.9285C116.877 46.0475 114.397 45.107 111.319 45.107C108.241 45.107 105.762 46.0475 103.881 47.9285C102.057 49.8095 101.059 52.688 100.888 56.564C100.831 58.16 100.803 60.497 100.803 63.575C100.803 66.596 100.831 68.933 100.888 70.586C101.059 74.462 102.057 77.3405 103.881 79.2215C105.705 81.1025 108.184 82.043 111.319 82.043Z" fill="#FCFCFC"/>
</svg>
