<svg width="44" height="35" viewBox="0 0 44 35" fill="none" xmlns="http://www.w3.org/2000/svg">
<path d="M42.0253 2.37611C40.9181 1.23898 39.4518 0.612802 37.8963 0.612802C36.311 0.612802 34.8251 1.25983 33.7117 2.43449L32.4533 3.76228C29.2273 1.55435 25.6325 0.392578 22.0002 0.392578C18.3675 0.392578 14.7727 1.55435 11.547 3.76228L10.2883 2.43449C9.17489 1.25983 7.68861 0.613182 6.10366 0.613182C4.54856 0.613182 3.0823 1.23936 1.97505 2.37687C-0.33156 4.74665 -0.356319 8.62882 1.91971 11.0308L3.77665 12.9901C2.61588 15.5122 2.00564 18.1197 2.00564 20.5774C2.00564 29.2863 9.66716 34.6964 22.0005 34.6964C34.3336 34.6964 41.9951 29.2863 41.9951 20.5774C41.9951 18.1201 41.3845 15.513 40.2233 12.9901L42.081 11.0308C44.3567 8.62882 44.3319 4.74665 42.0253 2.37611ZM40.5248 9.43315L38.117 11.9735C37.7824 12.3268 37.7063 12.8646 37.9287 13.3032C39.1594 15.7291 39.8097 18.2444 39.8097 20.577C39.8097 29.3102 30.6095 32.4218 21.9998 32.4218C13.3898 32.4218 4.18955 29.3102 4.18955 20.577C4.18955 18.244 4.83984 15.7283 6.07016 13.3032C6.29263 12.8646 6.21617 12.3264 5.88192 11.9735L3.47444 9.43315C2.04423 7.9238 2.05989 5.48427 3.50903 3.99539C4.20484 3.28089 5.12603 2.88706 6.10329 2.88706C7.09949 2.88706 8.03342 3.29378 8.73323 4.03178L10.635 6.03805C11.0133 6.43719 11.6144 6.48912 12.0513 6.16162C15.096 3.87523 18.5361 2.66684 22.0002 2.66684C25.4636 2.66684 28.9036 3.87523 31.9487 6.16162C32.3852 6.4895 32.9871 6.43719 33.3654 6.03805L35.2671 4.03178C35.9666 3.29378 36.9005 2.88706 37.8967 2.88706C38.8743 2.88706 39.7955 3.28089 40.491 3.99501C41.9401 5.48465 41.9554 7.9238 40.5248 9.43315Z" fill="#080029"/>
<path d="M8.13473 15.287C6.03711 17.4707 5.63368 20.5906 7.23356 22.2557C8.83308 23.9216 11.83 23.5013 13.9277 21.3176C16.0249 19.1343 16.4283 16.0144 14.8288 14.3489C13.2289 12.6837 10.232 13.1037 8.13473 15.287ZM10.7126 20.4344C9.63157 20.4344 8.75553 19.5224 8.75553 18.3971C8.75553 17.2717 9.63157 16.3597 10.7126 16.3597C11.7936 16.3597 12.6697 17.2717 12.6697 18.3971C12.6697 19.5224 11.7936 20.4344 10.7126 20.4344Z" fill="#080029"/>
<path d="M29.1711 14.3489C27.5709 16.0144 27.975 19.1343 30.0723 21.3176C32.1695 23.5013 35.1668 23.9213 36.7664 22.2557C38.3666 20.5906 37.9625 17.4707 35.8652 15.287C33.768 13.1037 30.7703 12.6837 29.1711 14.3489ZM33.2873 20.4344C32.2063 20.4344 31.3303 19.5225 31.3303 18.3971C31.3303 17.2717 32.2063 16.3597 33.2873 16.3597C34.3684 16.3597 35.2444 17.2717 35.2444 18.3971C35.2444 19.5225 34.368 20.4344 33.2873 20.4344Z" fill="#080029"/>
<path d="M24.0469 22.9568C24.5417 22.8484 24.9131 22.3924 24.9131 21.8447C24.9131 21.2166 24.4241 20.7075 23.8208 20.7075H20.1797C19.5764 20.7075 19.0874 21.2166 19.0874 21.8447C19.0874 22.392 19.4588 22.848 19.9532 22.9568L18.1811 24.8016C17.7544 25.2454 17.7544 25.9656 18.1811 26.4095C18.3945 26.6316 18.6741 26.7427 18.9534 26.7427C19.2327 26.7427 19.5123 26.6316 19.7257 26.4095L21.9999 24.042L24.2741 26.4095C24.4875 26.6316 24.7671 26.7427 25.0464 26.7427C25.3256 26.7427 25.6053 26.6316 25.8186 26.4095C26.2454 25.9656 26.2454 25.2454 25.8186 24.8016L24.0469 22.9568Z" fill="#080029"/>
</svg>
