<svg width="52" height="52" viewBox="0 0 52 52" fill="none" xmlns="http://www.w3.org/2000/svg">
<circle cx="26" cy="26" r="26" fill="#0F0049"/>
<circle cx="26" cy="17" r="7" stroke="#FCFCFC" stroke-width="2"/>
<path fill-rule="evenodd" clip-rule="evenodd" d="M37.9565 42C37.4186 42 37 41.5379 37 41C37 34.9249 32.0751 30 26 30C19.9249 30 15 34.9249 15 41C15 41.5379 14.5814 42 14.0435 42H13.9583C13.439 42 13.0034 41.5998 13.0002 41.0806C13.0001 41.0537 13 41.0269 13 41C13 33.8203 18.8203 28 26 28C33.1797 28 39 33.8203 39 41C39 41.0269 38.9999 41.0537 38.9998 41.0806C38.9966 41.5998 38.561 42 38.0417 42H37.9565Z" fill="#FCFCFC"/>
</svg>
