<svg width="9" height="13" viewBox="0 0 9 13" fill="none" xmlns="http://www.w3.org/2000/svg">
<path d="M4.374 10.048C4.266 10.048 4.176 10.012 4.104 9.94C4.032 9.868 3.996 9.778 3.996 9.67V8.95C4.02 8.314 4.182 7.768 4.482 7.312C4.782 6.856 5.22 6.334 5.796 5.746C6.264 5.266 6.606 4.87 6.822 4.558C7.038 4.246 7.146 3.904 7.146 3.532C7.146 2.98 6.912 2.542 6.444 2.218C5.988 1.894 5.454 1.732 4.842 1.732C3.414 1.732 2.574 2.452 2.322 3.892C2.262 4.156 2.106 4.288 1.854 4.288H0.99C0.87 4.288 0.774 4.252 0.702 4.18C0.63 4.108 0.594 4.012 0.594 3.892C0.618 3.232 0.804 2.626 1.152 2.074C1.512 1.51 2.016 1.06 2.664 0.723999C3.312 0.387999 4.056 0.219999 4.896 0.219999C5.784 0.219999 6.528 0.375999 7.128 0.688C7.74 0.987999 8.19 1.384 8.478 1.876C8.766 2.356 8.91 2.872 8.91 3.424C8.91 4.036 8.772 4.564 8.496 5.008C8.22 5.452 7.806 5.968 7.254 6.556C6.798 7.036 6.456 7.444 6.228 7.78C6 8.104 5.868 8.47 5.832 8.878C5.808 9.214 5.796 9.466 5.796 9.634C5.736 9.91 5.586 10.048 5.346 10.048H4.374ZM4.23 13C4.11 13 4.008 12.964 3.924 12.892C3.852 12.808 3.816 12.706 3.816 12.586V11.488C3.816 11.368 3.852 11.272 3.924 11.2C4.008 11.116 4.11 11.074 4.23 11.074H5.4C5.52 11.074 5.622 11.116 5.706 11.2C5.79 11.272 5.832 11.368 5.832 11.488V12.586C5.832 12.706 5.79 12.808 5.706 12.892C5.622 12.964 5.52 13 5.4 13H4.23Z" fill="#0F0049"/>
</svg>
