<svg width="128" height="47" viewBox="0 0 128 47" fill="none" xmlns="http://www.w3.org/2000/svg">
<g clip-path="url(#clip0)">
<path d="M66.0841 15.5664L72.1738 15.1772C72.3127 16.1616 72.5674 16.8942 72.9842 17.4208C73.6557 18.2449 74.5819 18.657 75.8091 18.657C76.7122 18.657 77.43 18.451 77.9162 18.016C78.3793 17.6726 78.6572 17.1231 78.6572 16.5508C78.6572 16.0014 78.4025 15.4748 77.9625 15.1314C77.4994 14.7193 76.4111 14.3073 74.6977 13.941C71.8959 13.3228 69.8815 12.4987 68.7006 11.4456C67.5197 10.4612 66.8482 9.0189 66.8945 7.48505C66.8945 6.43195 67.2187 5.37886 67.8207 4.50891C68.5153 3.5245 69.4647 2.74613 70.5993 2.31115C71.8265 1.78461 73.5399 1.50989 75.6933 1.50989C78.333 1.50989 80.3475 1.99065 81.7368 2.97506C83.126 3.93658 83.9596 5.49333 84.2143 7.62241L78.1941 7.96581C78.032 7.05007 77.7078 6.38617 77.1752 5.95119C76.6427 5.51622 75.948 5.31018 75.045 5.31018C74.3041 5.31018 73.7483 5.47043 73.3779 5.76805C73.0305 6.04277 72.799 6.45485 72.8221 6.91271C72.8221 7.25611 73.0074 7.57662 73.2852 7.78266C73.5863 8.05738 74.304 8.30921 75.4386 8.53814C78.2404 9.13337 80.2317 9.72859 81.4589 10.3467C82.6861 10.9648 83.566 11.7203 84.0986 12.6132C84.6543 13.5289 84.9321 14.582 84.909 15.658C84.909 16.94 84.5385 18.222 83.7975 19.298C83.0334 20.4198 81.9683 21.2897 80.7179 21.8163C79.3981 22.3886 77.731 22.6862 75.7397 22.6862C72.2201 22.6862 69.7889 22.0223 68.4227 20.6716C67.0566 19.3209 66.2462 17.6268 66.0841 15.5664ZM1.45889 22.3428V1.87618H12.1333C14.1014 1.87618 15.6297 2.03643 16.6716 2.37983C17.6904 2.70034 18.5935 3.36425 19.1955 4.25709C19.867 5.2415 20.1912 6.38617 20.168 7.57662C20.2375 9.59123 19.1955 11.5143 17.4126 12.5216C16.7179 12.9108 15.9538 13.1855 15.1666 13.3228C15.7454 13.4831 16.3243 13.7578 16.8337 14.0783C17.2273 14.3988 17.5515 14.7651 17.8525 15.1543C18.1998 15.5435 18.5009 15.9785 18.7556 16.4363L21.8583 22.3657H14.5877L11.1608 16.07C10.7208 15.2688 10.3503 14.7422 10.003 14.4904C9.53993 14.1699 8.98421 14.0096 8.4285 14.0096H7.87278V22.3199H1.45889V22.3428ZM7.87278 10.1636H10.5819C11.1608 10.1178 11.7165 10.0262 12.2722 9.88885C12.689 9.82017 13.0595 9.59123 13.3142 9.24783C13.9394 8.42367 13.8467 7.25611 13.0826 6.54642C12.6658 6.20302 11.8554 6.01987 10.6977 6.01987H7.87278V10.1636ZM0.0001297 39.8791L6.08986 39.4899C6.22878 40.4743 6.48349 41.2069 6.90028 41.7335C7.54861 42.5576 8.49796 42.9926 9.72517 42.9926C10.6282 42.9926 11.346 42.7866 11.8323 42.3516C12.2954 41.9853 12.5732 41.4587 12.5732 40.8864C12.5732 40.337 12.3185 39.8104 11.8786 39.467C11.4155 39.0549 10.3272 38.6429 8.59058 38.2766C5.78884 37.6585 3.77437 36.8343 2.59347 35.7812C1.41258 34.7968 0.741085 33.3545 0.787395 31.8207C0.787395 30.7676 1.11156 29.7145 1.71359 28.8445C2.40823 27.8601 3.35758 27.0817 4.49217 26.6468C5.71938 26.1202 7.43284 25.8455 9.58624 25.8455C12.2259 25.8455 14.2404 26.3263 15.6297 27.3107C17.0189 28.2951 17.8294 29.8289 18.0841 31.958L12.0638 32.3014C11.9017 31.3857 11.5776 30.7218 11.045 30.2868C10.5356 29.8518 9.81779 29.6458 8.91475 29.6687C8.17379 29.6687 7.61808 29.8289 7.2476 30.1494C6.87712 30.4242 6.66873 30.8362 6.69188 31.2941C6.69188 31.6375 6.87712 31.958 7.15498 32.1641C7.45599 32.4388 8.17379 32.6906 9.30838 32.9195C12.1101 33.5148 14.1014 34.11 15.3286 34.7281C16.5558 35.3462 17.4357 36.1017 17.9683 36.9945C18.524 37.9103 18.8019 38.9634 18.8019 40.0165C18.8019 41.2985 18.4082 42.5576 17.6904 43.6336C16.9263 44.7554 15.8612 45.6253 14.6108 46.1519C13.291 46.7242 11.6239 47.0218 9.63255 47.0218C6.11301 47.0218 3.68175 46.3579 2.31561 45.0072C0.949479 43.6336 0.185369 41.9395 0.0001297 39.8791H0.0001297Z" fill="white"/>
<path d="M30.796 38.2771L36.3994 39.9484C36.0984 41.3448 35.4732 42.6727 34.6165 43.8402C33.8292 44.8704 32.7873 45.6717 31.6064 46.1982C30.4023 46.7248 28.8741 46.9995 27.0217 46.9995C24.7757 46.9995 22.9233 46.679 21.5109 46.038C20.0753 45.397 18.8481 44.2523 17.8061 42.6269C16.7641 41.0014 16.2547 38.9182 16.2547 36.377C16.2547 32.9888 17.1578 30.3789 18.987 28.5704C20.8162 26.7618 23.3864 25.8461 26.7207 25.8461C29.3372 25.8461 31.3748 26.3726 32.8799 27.4028C34.3618 28.4559 35.4732 30.0584 36.2142 32.2104L30.5644 33.4467C30.4255 32.9659 30.2171 32.4851 29.9392 32.0731C29.5919 31.5923 29.152 31.226 28.6194 30.9513C28.0868 30.6766 27.4848 30.5621 26.8828 30.5621C25.424 30.5621 24.3126 31.1344 23.5485 32.302C22.9696 33.149 22.6686 34.4997 22.6686 36.3312C22.6686 38.5976 23.0159 40.1544 23.7106 41.0015C24.4052 41.8485 25.3777 42.2606 26.6512 42.2606C27.8785 42.2606 28.8046 41.9172 29.4298 41.2533C30.055 40.5436 30.5181 39.5592 30.796 38.2771ZM43.8785 26.1895H50.2692V33.3551H57.262V26.1895H63.699V46.6561H57.262V38.3687H50.2692V46.6561H43.8785V26.1895Z" fill="white"/>
<path d="M62.8191 36.4225C62.8191 33.0801 63.7685 30.4702 65.644 28.6159C67.5196 26.7615 70.1592 25.8229 73.5167 25.8229C76.9667 25.8229 79.6064 26.7386 81.4819 28.5701C83.3575 30.4015 84.2837 32.9656 84.2837 36.2622C84.2837 38.666 83.8669 40.612 83.0565 42.1458C82.2692 43.6568 81.042 44.893 79.5369 45.7172C77.9856 46.5642 76.0637 46.9992 73.7714 46.9992C71.4327 46.9992 69.5109 46.6329 67.9827 45.9003C66.4081 45.1219 65.1115 43.9086 64.2547 42.4205C63.3054 40.818 62.8191 38.8263 62.8191 36.4225ZM69.2099 36.4454C69.2099 38.5058 69.6035 39.9938 70.3676 40.9096C71.1317 41.8024 72.1968 42.2603 73.5398 42.2603C74.906 42.2603 75.9711 41.8253 76.7352 40.9325C77.4993 40.0396 77.8698 38.46 77.8698 36.1707C77.8698 34.2476 77.4762 32.8282 76.6889 31.9583C75.9016 31.0654 74.8365 30.6305 73.4935 30.6305C72.3126 30.5847 71.178 31.0883 70.3908 31.9812C69.6035 32.874 69.2099 34.3621 69.2099 36.4454ZM90.8365 36.4225C90.8365 33.0801 91.7859 30.4702 93.6614 28.6159C95.5369 26.7615 98.1766 25.8229 101.534 25.8229C104.984 25.8229 107.647 26.7386 109.499 28.5701C111.352 30.4015 112.301 32.9656 112.301 36.2622C112.301 38.666 111.884 40.612 111.074 42.1458C110.287 43.6568 109.059 44.893 107.554 45.7172C106.003 46.5642 104.081 46.9992 101.789 46.9992C99.4501 46.9992 97.5283 46.6329 96 45.9003C94.4255 45.1219 93.1288 43.9086 92.2721 42.4205C91.3228 40.818 90.8365 38.8263 90.8365 36.4225ZM97.2272 36.4454C97.2272 38.5058 97.6209 39.9938 98.385 40.9096C99.1491 41.8024 100.214 42.2603 101.557 42.2603C102.923 42.2603 103.988 41.8253 104.753 40.9325C105.517 40.0396 105.887 38.46 105.887 36.1707C105.887 34.2476 105.494 32.8282 104.706 31.9583C103.919 31.0654 102.854 30.6305 101.511 30.6305C100.33 30.5847 99.1722 31.0883 98.4081 31.9812C97.6209 32.874 97.2272 34.3621 97.2272 36.4454Z" fill="white"/>
<path d="M111.63 26.1895H118.02V41.6196H128V46.6561H111.607V26.1895H111.63Z" fill="white"/>
<path d="M104.555 25.0115C110.983 20.2106 112.968 12.075 108.987 6.8401C105.006 1.60522 96.5678 1.25342 90.139 6.05435C83.7103 10.8553 81.7259 18.9909 85.7067 24.2258C89.6874 29.4607 98.126 29.8125 104.555 25.0115Z" stroke="white" stroke-width="1.17433" stroke-miterlimit="10"/>
<path d="M104.555 25.0115C110.983 20.2106 112.968 12.075 108.987 6.8401C105.006 1.60522 96.5678 1.25342 90.139 6.05435C83.7103 10.8553 81.7259 18.9909 85.7067 24.2258C89.6874 29.4607 98.126 29.8125 104.555 25.0115Z" stroke="white" stroke-width="1.17433" stroke-miterlimit="10"/>
<path d="M90.86 14.0327L93.1755 12.4302L96.0235 16.4365C96.5098 17.0775 96.8802 17.7643 97.1581 18.5198C97.3202 19.0921 97.2739 19.7102 97.0423 20.2597C96.7413 20.9465 96.2551 21.5188 95.6067 21.9309C94.8426 22.4574 94.1943 22.7551 93.6386 22.8466C93.106 22.9382 92.5503 22.8466 92.0409 22.6177C91.4851 22.343 90.9989 21.9538 90.6284 21.4501L92.6197 19.6187C92.7818 19.8705 92.9902 20.0994 93.2218 20.2826C93.3839 20.397 93.5691 20.4657 93.7775 20.4657C93.9396 20.4657 94.1016 20.397 94.2174 20.3055C94.449 20.1681 94.6111 19.8934 94.5879 19.6187C94.5184 19.2295 94.3564 18.8403 94.1016 18.5427L90.86 14.0327ZM97.8064 16.5739L99.9135 14.9255C100.145 15.2003 100.446 15.4063 100.77 15.5208C101.233 15.6581 101.72 15.5665 102.113 15.2689C102.391 15.0858 102.623 14.834 102.715 14.5135C102.854 14.1014 102.623 13.6435 102.206 13.5062C102.136 13.4833 102.067 13.4604 101.997 13.4604C101.72 13.4375 101.233 13.5519 100.516 13.8496C99.3347 14.3303 98.4085 14.5135 97.7138 14.4448C97.0423 14.3761 96.4171 14.0327 96.0467 13.4604C95.7688 13.0712 95.6299 12.6133 95.6067 12.1554C95.6067 11.6289 95.7456 11.1024 96.0467 10.6674C96.4866 10.0493 97.0192 9.52271 97.6675 9.11063C98.64 8.44673 99.4967 8.12622 100.238 8.12622C100.979 8.12622 101.673 8.46962 102.322 9.17931L100.238 10.8047C99.8209 10.2782 99.0336 10.1637 98.5011 10.5758L98.4316 10.6445C98.2001 10.7818 98.038 10.9879 97.9454 11.2397C97.8759 11.4229 97.9222 11.6289 98.038 11.7892C98.1306 11.9036 98.2695 11.9952 98.4316 11.9952C98.6169 12.0181 98.941 11.9265 99.4041 11.7205C100.562 11.2397 101.442 10.965 102.044 10.8734C102.553 10.7818 103.086 10.8276 103.572 11.0337C104.012 11.2168 104.382 11.5373 104.637 11.9265C104.961 12.3844 105.147 12.9338 105.17 13.5062C105.193 14.1014 105.031 14.6737 104.707 15.1774C104.29 15.7955 103.757 16.322 103.132 16.7341C101.859 17.6041 100.817 17.9704 99.983 17.833C99.0799 17.6956 98.339 17.2378 97.8064 16.5739Z" fill="white"/>
</g>
<defs>
<clipPath id="clip0">
<rect width="128" height="47" fill="white"/>
</clipPath>
</defs>
</svg>
