<svg width="278" height="214" viewBox="0 0 278 214" fill="none" xmlns="http://www.w3.org/2000/svg">
<path d="M183.465 157.3C197.417 159.001 209.388 167.605 219.239 168.784C230.188 170.093 246.745 162.9 263.63 171.367C267.976 173.546 271.545 176.165 270.215 179.42C267.898 185.091 263.022 187.314 252.34 188.855L251.201 189.013C242.943 190.111 234.068 190.377 211.57 190.525L203.882 190.584C176.457 190.822 160.597 192.107 140.058 193.747L137.965 193.917C100.145 197.029 69.9556 196.53 47.3978 193.081L46.7166 192.975C28.4915 190.12 17.5343 185.399 12.1855 180.041C9.03677 176.887 7.22299 173.946 7.12939 170.803C7.03577 167.66 11.6798 164.205 14.3239 162.9C21.6893 159.266 24.0926 157.948 38.2525 156.087C44.3492 155.286 53.4832 155.35 64.0413 154.994C101.917 153.715 160.429 154.491 183.465 157.3Z" fill="white"/>
<path fill-rule="evenodd" clip-rule="evenodd" d="M201.584 171.446C177.425 226.201 89.9981 224.438 29.1653 187.066C17.5475 179.928 -22.3883 146.288 16.9179 126.644C56.2242 107 43.6343 76.8272 75.3558 40.8391C112.04 -0.779459 180.356 -22.1252 228.402 33.8706C350.518 176.192 209.719 153.009 201.584 171.446Z" fill="#D9E8FF"/>
<path fill-rule="evenodd" clip-rule="evenodd" d="M50.9984 35.2878C49.0627 32.1775 47.123 30.984 45.2149 32.0164C43.5996 32.8903 43.331 35.2246 44.1904 38.9589L43.6754 39.2367C42.9676 39.6183 42.7032 40.5015 43.0849 41.2093C43.1179 41.2705 43.1552 41.3292 43.1967 41.3851L43.4727 41.7545C47.5023 47.0998 50.6953 49.2891 53.1865 48.0852C55.2804 47.0733 55.6341 42.7632 54.5568 34.9638C54.4813 34.4176 53.9945 34.0294 53.4523 34.0687L53.3843 34.0759C53.2613 34.0929 53.1423 34.1318 53.033 34.1907L50.9984 35.2878ZM45.285 38.1217L49.7774 35.6913L49.7668 35.6748C48.222 33.2788 46.9132 32.5165 45.8088 33.114L45.7581 33.1432C44.9426 33.6409 44.7166 35.2046 45.236 37.8772L45.285 38.1217ZM53.3606 35.4316L44.2677 40.335C44.1666 40.3895 44.1288 40.5157 44.1834 40.6168C44.1881 40.6255 44.1934 40.6339 44.1993 40.6419L44.4672 41.0003C48.1503 45.8858 50.9205 47.7941 52.6435 46.9614C53.9526 46.3288 54.2961 42.4865 53.3854 35.6133L53.3606 35.4316ZM51.5027 43.2935C51.7166 43.0694 51.848 42.7659 51.848 42.4318C51.848 41.7425 51.2892 41.1838 50.6 41.1838C49.9107 41.1838 49.352 41.7425 49.352 42.4318C49.352 43.121 49.9107 43.6798 50.6 43.6798C50.6543 43.6798 50.7077 43.6763 50.7602 43.6696L51.4696 44.9719L51.4953 45.0131C51.6154 45.1833 51.8466 45.2402 52.0339 45.1382C52.2357 45.0283 52.3102 44.7756 52.2002 44.5739L51.5027 43.2935Z" fill="#ECA718"/>
<path fill-rule="evenodd" clip-rule="evenodd" d="M183.465 157.3C197.417 159.001 209.388 167.605 219.239 168.784C230.188 170.093 246.745 162.9 263.63 171.367C267.976 173.546 271.545 176.165 270.215 179.42C267.898 185.091 263.022 187.314 252.34 188.855L251.201 189.013C242.943 190.111 234.068 190.377 211.57 190.525L203.882 190.584C176.457 190.822 160.597 192.107 140.059 193.747L137.965 193.917C100.145 197.029 69.9556 196.53 47.3979 193.081L46.7166 192.975C28.4916 190.12 17.5344 185.399 12.1856 180.041C9.03683 176.887 7.22308 173.946 7.12946 170.803C7.03583 167.66 11.6799 164.205 14.3239 162.9C21.6894 159.266 24.0927 157.948 38.2525 156.087C44.3493 155.286 53.4833 155.35 64.0413 154.994C101.917 153.715 160.429 154.491 183.465 157.3ZM37.9398 158.72L37.0119 158.844C23.8164 160.633 15.3811 163.888 11.3853 167.134L11.1359 167.343C8.0676 169.987 7.78073 172.959 12.1912 177.353C17.0135 182.158 29.313 187.578 47.0475 190.341C69.2499 193.801 99.0997 194.805 136.586 191.797L140.516 191.48C162.158 189.779 178.762 188.873 209.493 188.657L217.976 188.594C236.271 188.428 244.048 188.101 251.555 187.058L252.268 186.955C285.418 180.471 261.498 168.837 247.775 168.784C236.023 168.738 221.907 172.044 217.976 170.807C205.586 166.907 199.224 160.936 183.465 159.025L178.883 158.476L174.971 158.291C110.861 155.313 65.1718 155.161 37.9398 158.72Z" fill="#00160A"/>
<path d="M79.4606 8.06122C79.233 8.05389 79.0051 8.05414 78.7774 8.06197C73.1674 8.25489 68.7637 12.914 68.8654 18.509L68.8698 18.6788L68.9387 20.7753C69.1357 27.0724 69.2441 33.3446 69.2638 39.592L69.2977 58.8141C69.3052 65.7324 69.301 71.9765 69.2807 78.0911L69.2529 84.5756C69.1439 105.221 68.8498 119.71 68.304 126.017L68.1986 127.196C67.5399 134.904 67.4034 145.975 67.7941 160.384C67.7986 160.55 67.807 160.717 67.8193 160.883C68.251 166.724 73.2899 171.124 79.1187 170.789L79.2955 170.777L81.2327 170.636C99.3396 169.344 117.447 168.698 135.554 168.698C153.277 168.698 171.137 169.317 189.132 170.555C189.653 170.591 190.175 170.594 190.696 170.564C197.518 170.178 202.753 164.389 202.478 157.584L202.468 157.378L202.332 154.923C201.124 132.815 200.499 110.707 200.455 88.5988L200.453 86.1424C200.453 70.0287 201.208 47.9293 202.716 19.8346C202.733 19.5199 202.737 19.2046 202.727 18.8896C202.537 12.791 197.489 7.9877 191.41 8.07805L191.226 8.08229L182.026 8.36123C161.124 8.97773 145.904 9.29987 136.357 9.32758L134.72 9.32941L133.037 9.32504C123.291 9.28319 108.203 8.94895 87.7652 8.32241L79.4606 8.06122Z" fill="white"/>
<path fill-rule="evenodd" clip-rule="evenodd" d="M190.513 7.48798C189.776 7.89178 188.805 8.17582 187.6 8.3397C190.702 8.61532 193.142 8.55102 194.918 8.14697L194.534 8.09943C193.283 7.94148 191.943 7.73767 190.513 7.48798Z" fill="#E7EAEE"/>
<path fill-rule="evenodd" clip-rule="evenodd" d="M73.8143 156.257L73.9007 156.261C74.4369 156.298 74.8151 156.717 74.7658 157.179C74.7093 157.708 74.1439 158.221 73.5265 158.264C73.0358 158.298 72.6949 157.92 72.7494 157.334C72.8065 156.719 73.2881 156.26 73.8143 156.257Z" fill="#E7EAEE"/>
<path fill-rule="evenodd" clip-rule="evenodd" d="M83.6346 164.292L83.721 164.295C84.2572 164.332 84.6354 164.751 84.5861 165.213C84.5296 165.743 83.9642 166.256 83.3468 166.298C82.8561 166.332 82.5152 165.955 82.5697 165.369C82.6268 164.754 83.1084 164.294 83.6346 164.292Z" fill="#E7EAEE"/>
<path fill-rule="evenodd" clip-rule="evenodd" d="M135.663 163.764C114.358 168.466 154.36 167.635 169.964 166.605C178.457 166.045 185.238 170.287 189.132 170.555C189.653 170.59 190.175 170.594 190.696 170.564C197.519 170.178 202.753 164.389 202.478 157.584L202.468 157.377L202.332 154.923C201.124 132.815 200.499 110.707 200.456 88.5987L200.453 86.1423C200.453 70.0286 201.208 47.9293 202.716 19.8346C202.733 19.5198 202.737 19.2045 202.727 18.8895C202.537 12.7909 190.851 151.584 135.663 163.764Z" fill="#E7EAEE"/>
<path d="M198.849 158.081L198.925 158.083C199.313 158.115 199.631 158.519 199.585 159.012C199.534 159.559 199.063 160.05 198.592 160.087C198.262 160.114 197.983 159.758 198.032 159.148C198.083 158.523 198.474 158.09 198.849 158.081Z" fill="white"/>
<path fill-rule="evenodd" clip-rule="evenodd" d="M198.716 161.645C197.329 161.755 196.354 160.515 196.475 159.022C196.592 157.571 197.697 156.42 199.024 156.524C200.329 156.628 201.265 157.818 201.141 159.157C201.021 160.443 199.962 161.546 198.716 161.645ZM198.925 158.083L198.849 158.081C198.474 158.09 198.083 158.523 198.032 159.148C197.983 159.758 198.262 160.114 198.593 160.087C199.063 160.05 199.534 159.559 199.585 159.012C199.631 158.519 199.313 158.115 198.925 158.083Z" fill="white"/>
<path d="M185.654 17.0652C190.584 17.0652 194.581 21.0622 194.581 25.9927C194.581 26.1772 194.576 26.3617 194.564 26.5459L194.433 28.733C194.193 32.8839 193.954 37.8123 193.715 43.5181L193.679 44.4317C193.096 59.7806 193.077 96.0929 193.624 153.368C193.671 158.299 189.712 162.334 184.782 162.381C184.662 162.382 184.541 162.381 184.421 162.377L86.4772 159.355C81.9421 159.215 78.2333 155.696 77.8559 151.174L77.7729 150.153C76.4829 133.894 76.4061 113.134 77.5425 87.8714L77.7091 84.2486C78.2895 70.9547 78.335 51.5933 77.8457 26.1644C77.7519 21.2862 81.589 17.2466 86.4461 17.0711L86.6857 17.0656L185.654 17.0652Z" fill="white"/>
<path fill-rule="evenodd" clip-rule="evenodd" d="M119.803 122.346C124.13 122.528 128.573 121.761 132.427 119.878C137.253 117.52 140.885 113.564 142.895 107.891C145.542 100.419 144.57 92.3391 140.764 85.2279C137.376 78.8986 132.05 74.0815 127.14 72.8904C127.14 72.8904 140.764 92.0547 138.812 102.531C135.828 118.55 119.803 122.346 119.803 122.346Z" fill="#E7EAEE"/>
<path fill-rule="evenodd" clip-rule="evenodd" d="M122.949 99.8401C125.055 100.714 125.698 102.337 124.878 104.709L124.831 104.842C119.498 119.484 113.21 119.617 118.591 104.842C119.243 103.052 119.081 101.679 118.106 100.723C119.83 100.373 121.444 100.078 122.949 99.8401Z" fill="#E7EAEE"/>
<path fill-rule="evenodd" clip-rule="evenodd" d="M89.5499 82.7245C90.9297 78.6251 92.9444 75.5434 96.7099 73.1068L97.1882 72.8035C98.0007 72.2935 99.0022 71.7161 99.8167 72.1106C100.852 72.6118 102.35 74.4383 101.438 75.1554C100.82 75.6416 98.2751 76.1586 96.3566 77.8394C94.0917 79.8235 92.4616 83.0208 92.4616 83.8037C92.4616 86.3578 88.7352 85.1452 89.5499 82.7245Z" fill="#E7EAEE"/>
<path fill-rule="evenodd" clip-rule="evenodd" d="M85.2832 24.2952C80.5468 37.3005 80.579 39.8809 80.2948 37.6393C79.3756 30.3897 78.6823 25.6258 79.7745 22.732C81.1572 19.0683 84.6234 18.3477 85.5162 18.7729C87.4037 19.6719 85.2832 24.2952 85.2832 24.2952Z" fill="#E7EAEE"/>
<path fill-rule="evenodd" clip-rule="evenodd" d="M163.21 91.1319L161.634 91.0837C159.765 91.0361 158.417 91.0473 157.287 91.1356C156.379 91.2065 155.701 91.3305 155.318 91.4517L155.242 91.4771L155.234 91.5129C155.192 91.7249 155.161 92.0089 155.148 92.3518L155.144 92.4832C155.119 93.5128 155.243 94.8882 155.491 96.4243C155.693 97.6838 155.97 98.9922 156.259 100.095L156.331 100.366C156.444 100.778 156.551 101.135 156.646 101.414L156.68 101.513L156.722 101.529C157.302 101.735 158.457 101.76 160.682 101.596L162.194 101.477C163.212 101.403 163.954 101.37 164.686 101.379L171.79 101.528C172.784 101.547 173.682 101.561 174.562 101.573L176.158 101.591C180.143 101.823 184.523 101.649 185.068 100.657C186.73 97.6315 187.513 91.4003 186.73 91.3587C185.32 91.2838 183.613 91.1953 182.803 91.206L180.931 91.2399L179.233 91.2535C178.458 91.2579 177.65 91.2604 176.782 91.2612L167.046 91.2387C166.413 91.2343 165.793 91.219 164.676 91.182L163.21 91.1319Z" fill="#E7EAEE"/>
<path fill-rule="evenodd" clip-rule="evenodd" d="M88.5569 6.11364L79.5324 5.83045C79.2553 5.82152 78.9779 5.82183 78.7007 5.83136C71.8021 6.06858 66.4019 11.8534 66.6391 18.752L66.7079 20.845C66.7887 23.4297 66.9118 26.0102 67.0346 28.5864L67.0346 28.5864C67.2432 32.9609 67.4512 37.3233 67.4512 41.6734L67.4802 57.451C67.5079 79.4536 67.4413 115.69 66.464 126.186L66.3905 127.01C65.7553 134.446 65.1846 144.909 65.5105 158.398L65.563 160.444C65.5684 160.645 65.5786 160.846 65.5934 161.047C66.1204 168.177 72.3274 173.53 79.4572 173.003L81.3916 172.862L81.712 172.84C81.7766 172.947 81.8422 173.056 81.9069 173.162L81.9069 173.162C82.2202 173.68 82.5129 174.163 82.5809 174.4C82.7524 174.998 82.7706 175.676 82.6715 177.208L82.5711 178.645L82.5438 179.112C82.3976 181.977 82.7284 183.681 84.1257 184.964C85.9229 186.614 87.8268 186.439 91.7279 186.081L91.9031 186.064L92.9074 185.967C94.0681 185.855 95.3733 185.946 96.2626 186.007C96.5187 186.025 96.7403 186.041 96.9141 186.048L97.2425 186.064C99.4808 186.154 99.8362 185.417 100.032 183.596C100.14 182.592 99.9995 181.802 99.4098 179.765L98.9685 178.263L98.8221 177.741C98.1332 175.196 98.1961 173.925 99.0935 173.31C99.3113 173.161 100.221 172.891 101.27 172.579C102.349 172.258 103.575 171.893 104.348 171.571C114.75 171.144 125.152 170.93 135.554 170.93C146.484 170.93 157.465 171.166 168.499 171.638C168.426 171.757 168.413 171.93 168.491 172.17C168.578 172.441 168.91 172.629 169.334 172.869C170.459 173.505 172.232 174.507 171.819 178.4L171.821 178.56C171.883 181.629 173.743 183.429 176.736 184.04C178.737 184.449 181.013 184.326 183.491 183.896C184.719 183.683 185.509 182.915 185.887 181.746C186.095 181.1 186.17 180.52 186.219 179.365C186.219 179.365 185.673 173.363 188.708 172.763C188.798 172.769 188.888 172.775 188.979 172.781C189.33 172.806 189.682 172.817 190.034 172.816C190.082 172.827 190.13 172.839 190.178 172.852C190.323 172.892 190.462 172.869 190.587 172.804C190.665 172.801 190.744 172.797 190.822 172.793C198.944 172.333 205.156 165.376 204.697 157.254L204.56 154.801C203.31 131.915 202.685 109.029 202.685 86.1423C202.685 70.5572 203.394 49.3309 204.811 22.4633L204.945 19.9543C204.965 19.5766 204.969 19.1982 204.958 18.8201C204.728 11.4279 198.549 5.62164 191.157 5.85143L186.471 5.99531C163.254 6.69923 146.549 7.06601 136.354 7.09565L134.722 7.09748C125.204 7.09012 109.816 6.76217 88.5569 6.11364ZM185.661 172.56C180.502 172.227 175.355 171.945 170.219 171.714C172.678 172.907 173.555 175.136 173.604 178.219L173.605 178.4C173.605 180.395 175.157 181.697 177.244 182.123C177.462 182.168 177.686 182.216 177.915 182.266C179.357 182.579 181.005 182.936 182.833 182.636L183.11 182.59C184.374 182.123 184.374 177.582 184.374 177.582C184.388 177.212 184.401 176.972 184.423 176.678L184.45 176.349C184.608 174.696 184.954 173.461 185.661 172.56ZM84.7263 173.785C84.605 173.362 84.432 172.988 84.2084 172.667C88.5876 172.37 92.9668 172.112 97.346 171.892C96.6617 172.654 96.5975 173.684 96.5723 174.914C96.5505 175.974 96.7648 177.101 97.2154 178.689L97.2425 178.784L97.6547 180.188C98.1594 181.922 98.3112 182.647 98.2686 183.254L98.2595 183.357C98.1988 183.921 97.4748 184.557 96.2514 184.486L96.0325 184.474C95.5081 184.395 90.3406 184.486 90.3406 184.486C87.9546 184.727 86.8058 184.395 85.6352 183.32C84.8494 182.598 84.6386 181.317 84.7935 178.864L84.89 177.487C85.0113 175.687 85.0012 174.844 84.7745 173.962L84.7263 173.785ZM78.7774 8.06192C79.0051 8.05409 79.2329 8.05384 79.4606 8.06117L87.7652 8.32235C108.203 8.9489 123.291 9.28313 133.037 9.32499L134.72 9.32935L136.357 9.32752C145.904 9.29981 161.124 8.97767 182.026 8.36117L191.226 8.08223L191.41 8.07799C197.489 7.98764 202.537 12.7909 202.727 18.8895C202.737 19.2045 202.733 19.5199 202.716 19.8346C201.207 47.9293 200.453 70.0287 200.453 86.1423L200.455 88.5988C200.498 110.707 201.124 132.815 202.332 154.923L202.468 157.378L202.478 157.584C202.753 164.389 197.518 170.178 190.696 170.564C190.175 170.594 189.652 170.591 189.132 170.555C171.137 169.317 153.277 168.698 135.554 168.698C117.447 168.698 99.3396 169.344 81.2327 170.636L79.2955 170.777L79.1187 170.788C73.2899 171.124 68.251 166.724 67.8193 160.883C67.807 160.717 67.7986 160.55 67.7941 160.384C67.4034 145.975 67.5398 134.904 68.1986 127.196L68.304 126.017C68.8498 119.71 69.1439 105.221 69.2529 84.5756L69.2807 78.0911C69.301 71.9765 69.3052 65.7324 69.2977 58.814L69.2638 39.5919C69.2441 33.3446 69.1357 27.0723 68.9387 20.7752L68.8698 18.6788L68.8654 18.5089C68.7637 12.914 73.1674 8.25483 78.7774 8.06192ZM194.581 25.9927C194.581 21.0622 190.584 17.0652 185.654 17.0652L86.6857 17.0656L86.4461 17.0711C81.589 17.2467 77.7519 21.2862 77.8457 26.1645C78.335 51.5933 78.2895 70.9547 77.7092 84.2486L77.5425 87.8714C76.4061 113.134 76.4829 133.894 77.7729 150.153L77.8559 151.174C78.2333 155.696 81.9421 159.215 86.4772 159.355L184.421 162.377C184.541 162.381 184.662 162.382 184.782 162.381C189.712 162.334 193.671 158.299 193.624 153.368C193.078 96.0929 193.096 59.7807 193.679 44.4317L193.715 43.5182C193.954 37.8123 194.193 32.8839 194.433 28.733L194.564 26.5459C194.576 26.3618 194.581 26.1773 194.581 25.9927ZM86.7716 19.2971H185.654C189.352 19.2971 192.35 22.2948 192.35 25.9927C192.35 26.1311 192.345 26.2695 192.337 26.4076C192.103 30.1724 191.87 34.6666 191.638 39.8913L191.486 43.4249C190.896 57.5257 190.839 91.2928 191.313 144.78L191.392 153.39C191.427 157.088 188.458 160.114 184.76 160.149C184.67 160.15 184.58 160.149 184.49 160.146L86.546 157.124L86.3985 157.118C83.0646 156.943 80.359 154.331 80.0801 150.989C78.7057 134.52 78.6137 113.243 79.8084 87.1727L79.9205 84.7602C80.4839 72.2159 80.5639 54.2267 80.162 30.7788L80.0772 26.1215C80.006 22.4243 82.9456 19.3695 86.6428 19.2983C86.6857 19.2975 86.7286 19.2971 86.7716 19.2971ZM83.3508 12.4521C83.4917 13.9694 82.3922 15.1871 80.9108 15.0852C79.5559 14.9919 78.3642 13.9101 78.2253 12.6072L78.217 12.512C78.1309 11.2157 79.124 10.1137 80.4564 9.97238L80.557 9.96359C81.9778 9.86581 83.2149 10.9888 83.3508 12.4521ZM80.7302 11.5201L80.6438 11.5233C80.1076 11.5605 79.7294 11.9793 79.7787 12.4415C79.8352 12.9707 80.4007 13.484 81.018 13.5265C81.5088 13.5603 81.8496 13.1828 81.7952 12.5966C81.7381 11.982 81.2565 11.5223 80.7302 11.5201ZM72.8314 24.2863C71.287 24.4234 70.2462 22.9375 70.3746 21.1554C70.5005 19.4088 71.6999 18.0051 73.1852 18.1368L73.2811 18.1473C74.6452 18.3248 75.5876 19.6667 75.5103 21.1708L75.5033 21.276C75.3761 22.8135 74.2231 24.1629 72.8314 24.2863ZM73.0706 19.6947L72.9947 19.691C72.521 19.6968 72 20.337 71.9329 21.2677C71.8659 22.1975 72.2656 22.768 72.6934 22.7301C73.2739 22.6786 73.8781 21.9714 73.9463 21.1471C74.0109 20.3667 73.5716 19.7395 73.0706 19.6947ZM188.479 12.4521C188.338 13.9694 189.437 15.1871 190.919 15.0852C192.273 14.9919 193.465 13.9101 193.604 12.6072L193.612 12.512C193.699 11.2157 192.705 10.1137 191.373 9.97238L191.272 9.96359C189.852 9.86581 188.615 10.9888 188.479 12.4521ZM191.099 11.5201L191.186 11.5233C191.722 11.5605 192.1 11.9793 192.051 12.4415C191.994 12.9707 191.429 13.484 190.811 13.5265C190.321 13.5603 189.98 13.1828 190.034 12.5966C190.091 11.982 190.573 11.5223 191.099 11.5201ZM196.797 21.7327C195.968 20.5007 196.473 18.9396 197.858 18.3031C199.193 17.6891 200.784 18.199 201.41 19.4783L201.452 19.5698C201.996 20.7944 201.538 22.2054 200.373 22.779L200.286 22.8195C199.088 23.3506 197.556 22.8594 196.797 21.7327ZM200.016 20.183L199.975 20.1066C199.71 19.6519 199.071 19.4647 198.51 19.7225C197.976 19.9684 197.819 20.4524 198.094 20.8605C198.439 21.3739 199.166 21.607 199.653 21.3913C200.078 21.2028 200.251 20.666 200.016 20.183ZM71.7281 155.447C70.6448 156.519 70.7044 158.158 71.9048 159.032C73.0026 159.832 74.6109 159.769 75.5548 158.86L75.6224 158.793C76.5216 157.855 76.4692 156.373 75.5393 155.408L75.4679 155.337C74.4424 154.348 72.7729 154.413 71.7281 155.447ZM74.3347 156.417L74.3988 156.476C74.7857 156.849 74.8062 157.413 74.4713 157.735C74.0879 158.104 73.3247 158.134 72.8245 157.77C72.4269 157.48 72.4084 156.972 72.8269 156.558C73.2657 156.124 73.9301 156.081 74.3347 156.417ZM81.7251 167.067C80.5247 166.193 80.4651 164.553 81.5484 163.482C82.5931 162.448 84.2627 162.383 85.2882 163.371L85.3596 163.443C86.2895 164.407 86.3419 165.89 85.4427 166.828L85.3751 166.895C84.4312 167.804 82.8229 167.867 81.7251 167.067ZM84.2191 164.51L84.155 164.452C83.7504 164.116 83.086 164.158 82.6472 164.592C82.2287 165.006 82.2472 165.515 82.6448 165.804C83.145 166.169 83.9082 166.139 84.2915 165.77C84.6264 165.447 84.6059 164.883 84.2191 164.51ZM191.63 164C190.386 165.255 190.353 167.1 191.678 168.049C192.891 168.918 194.708 168.746 195.795 167.677C196.921 166.568 196.954 164.784 195.845 163.699C194.724 162.6 192.842 162.778 191.63 164ZM194.703 164.77L194.766 164.829C195.226 165.279 195.212 166.058 194.699 166.563C194.146 167.107 193.174 167.199 192.587 166.779C192.112 166.438 192.125 165.72 192.739 165.101C193.362 164.472 194.229 164.371 194.703 164.77ZM198.716 161.645C197.329 161.755 196.354 160.515 196.475 159.022C196.592 157.571 197.697 156.42 199.024 156.525C200.329 156.628 201.265 157.818 201.141 159.157C201.021 160.443 199.962 161.546 198.716 161.645ZM198.925 158.084L198.85 158.081C198.474 158.09 198.083 158.523 198.032 159.148C197.983 159.758 198.262 160.114 198.593 160.088C199.063 160.05 199.534 159.559 199.585 159.013C199.631 158.519 199.313 158.115 198.925 158.084Z" fill="#00160A"/>
<path fill-rule="evenodd" clip-rule="evenodd" d="M81.5485 163.482C80.4652 164.553 80.5248 166.193 81.7252 167.067C82.823 167.867 84.4313 167.804 85.3752 166.895L85.4427 166.827C86.3419 165.89 86.2895 164.407 85.3597 163.443L85.2883 163.371C84.2627 162.383 82.5932 162.448 81.5485 163.482ZM84.1551 164.452L84.2192 164.51C84.606 164.883 84.6265 165.447 84.2916 165.77C83.9083 166.139 83.1451 166.168 82.6449 165.804C82.2472 165.515 82.2288 165.006 82.6473 164.592C83.086 164.158 83.7505 164.116 84.1551 164.452Z" fill="#00160A"/>
<path d="M194.703 164.77L194.767 164.829C195.226 165.279 195.212 166.058 194.699 166.563C194.146 167.107 193.174 167.199 192.587 166.779C192.112 166.439 192.125 165.72 192.739 165.101C193.362 164.472 194.229 164.371 194.703 164.77Z" fill="white"/>
<path fill-rule="evenodd" clip-rule="evenodd" d="M96.186 68.97C95.6708 69.1489 95.206 69.3917 94.6315 69.7454L94.1907 70.0219L93.972 70.1613C90.6433 72.3099 88.421 74.9819 86.84 78.6003L86.7554 78.7961L86.692 78.7772C86.2724 78.6541 85.892 78.5937 85.4854 78.6275C84.6184 78.6996 83.8103 79.219 83.5217 80.1873C83.0708 81.6995 83.257 83.4288 83.8423 85.1993L83.9521 85.5235C84.5231 87.1647 85.1552 88.2784 86.206 88.6035C87.6029 89.0358 92.4293 87.1226 94.1122 85.3865C95.3127 84.1481 94.8319 82.6336 93.6894 81.7595L93.5844 81.6819L93.474 81.6056L93.3488 81.5244L93.4325 81.3746C93.4909 81.2717 93.5521 81.1671 93.6158 81.0615C94.2983 79.9298 95.1517 78.8598 96.0162 78.1025C96.349 77.8108 96.7341 77.5435 97.1729 77.2941C97.8519 76.9081 100.56 75.845 101.016 75.4864C102.481 74.3346 102.311 72.6666 101.385 71.2208C100.809 70.3215 99.9034 69.4788 99.0281 69.0549C98.1087 68.6096 97.1466 68.6364 96.186 68.97ZM98.1527 70.8628C99.1876 71.364 100.686 73.1905 99.7744 73.9076C99.1562 74.3938 96.6111 74.9109 94.6926 76.5916C92.4277 78.5757 90.7976 81.773 90.7976 82.5559L91.0559 82.6529C92.4682 83.1964 93.0062 83.6416 92.67 83.9885C91.1722 85.5336 87.1012 86.778 86.7998 86.6847C86.5031 86.5929 84.7467 83.1091 85.4467 80.7612C85.5402 80.4473 86.3533 80.6859 87.886 81.4768C89.2657 77.3773 91.2804 74.2956 95.0459 71.8591L95.5242 71.5558C96.3367 71.0458 97.3382 70.4684 98.1527 70.8628Z" fill="#00160A"/>
<path fill-rule="evenodd" clip-rule="evenodd" d="M99.2335 115.194C90.965 106.158 90.4864 90.7427 99.4191 80.8158C104.969 74.6485 118.012 70.6761 127.14 72.8906C132.05 74.0817 137.376 78.8988 140.764 85.2281C144.57 92.3393 145.542 100.419 142.895 107.891C140.885 113.564 137.253 117.52 132.427 119.878C128.573 121.761 124.13 122.529 119.803 122.346C111.994 122.018 102.284 118.528 99.2335 115.194ZM138.796 86.2814C135.685 80.4687 130.837 76.0841 126.614 75.0596L126.363 75.0006C118.037 73.1122 106.026 76.8097 101.078 82.3087C92.9319 91.3616 93.3702 105.48 100.88 113.687C103.472 116.519 112.629 119.811 119.897 120.117C123.875 120.284 127.954 119.58 131.447 117.873C135.758 115.767 138.98 112.256 140.791 107.145C143.216 100.302 142.321 92.867 138.796 86.2814ZM134.497 107.666C139.436 98.9949 132.74 80.2733 123.389 78.7109C114.598 77.2422 111.266 79.3745 107.475 82.6618L106.742 83.3048C99.323 89.8646 99.323 103.957 106.571 110.495C108.393 112.138 116.407 116.352 122.557 115.063C126.634 114.208 132.309 111.505 134.497 107.666ZM113.857 81.1565C114.323 80.9896 114.814 80.852 115.337 80.7449C115.266 80.9074 115.206 81.0799 115.157 81.2622C114.879 82.2814 114.908 83.1535 115.207 85.276L115.411 86.6825C115.429 86.8065 115.444 86.9202 115.46 87.0366L115.505 87.3944C115.822 90.0816 115.534 91.4832 114.333 92.2563C113.233 92.9638 112.152 93.2309 109.682 93.5183L108.757 93.623C107.617 93.7543 107.019 93.8452 106.299 94.0077L105.973 94.0733C104.976 94.2831 104.148 94.5436 103.505 94.8715C103.929 91.0327 105.501 87.3813 108.221 84.9768C110.786 82.7089 112.08 81.7939 113.857 81.1565ZM123.021 80.9122C122.66 80.8518 122.308 80.7978 121.966 80.7499C122.038 80.9314 122.099 81.1244 122.149 81.3283C122.358 82.1796 122.394 82.9353 122.343 84.6573L122.318 85.4001C122.293 86.1151 122.28 86.5406 122.276 86.9492L122.276 87.4391C122.297 89.6173 122.638 91.0654 123.476 92.046L123.57 92.1505L123.607 92.1663C123.658 92.1871 123.724 92.2108 123.802 92.2368L123.885 92.2637C124.077 92.3248 124.317 92.393 124.625 92.4739L125.141 92.6055L127.34 93.1441C127.772 93.2515 128.157 93.3494 128.525 93.4466L129.13 93.6097C130.948 94.1106 132.342 94.5988 133.357 95.1432C131.842 88.3634 127.673 81.6894 123.021 80.9122ZM133.6 100.13C133.726 100.05 133.844 99.9683 133.957 99.8858C134.011 102.415 133.587 104.753 132.557 106.561C131.078 109.157 126.971 111.629 122.96 112.676C123.062 112.42 123.144 112.142 123.207 111.844C123.402 110.928 123.434 109.88 123.357 108.395L123.308 107.596L123.236 106.545C123.098 104.446 123.132 103.567 123.315 103.357C124.138 102.41 125.278 102.048 128.182 101.632L128.855 101.536C131.282 101.181 132.42 100.882 133.6 100.13ZM116.541 111.588C116.572 111.965 116.697 112.349 116.9 112.712C115.87 112.495 114.8 112.182 113.708 111.782C111.267 110.889 108.9 109.589 108.066 108.837C105.419 106.449 103.895 102.845 103.495 99.0503C104.181 99.3662 105.088 99.6334 106.214 99.8999L106.387 99.9405C106.841 100.046 107.306 100.144 107.855 100.252L109.422 100.557C112.931 101.278 114.743 102.113 115.57 103.23L115.654 103.346C116.202 104.146 116.354 105.051 116.398 107.401L116.423 109.075C116.442 110.077 116.473 110.742 116.541 111.588ZM119.181 80.8398L119.281 80.8489C120.229 80.9619 120.429 81.8404 120.317 85.1542L120.279 86.3029C120.27 86.6494 120.266 86.9283 120.266 87.2339C120.268 89.3115 120.516 90.9255 121.184 92.2181C121.06 92.1519 120.918 92.1144 120.767 92.1144L120.615 92.1163L120.577 92.1174L120.56 92.1103C120.303 92.0153 120.023 92.0454 119.797 92.1786L119.774 92.1929L119.695 92.2055C117.748 92.5301 115.813 93.6929 114.776 95.2332C113.663 96.8856 113.718 98.6896 114.988 100.234C113.78 99.5967 112.177 99.0854 110.061 98.6383L109.379 98.5012C108.977 98.4232 108.476 98.3273 108.476 98.3274L108.073 98.2479C107.683 98.1699 107.338 98.097 107.006 98.0218L106.841 97.984C105.834 97.7501 105.038 97.5102 104.482 97.2596L104.394 97.2187C104.222 97.1373 104.087 97.059 103.99 96.9891L103.977 96.9791L104.002 96.9538C104.07 96.8855 104.174 96.8079 104.317 96.7258C104.805 96.4442 105.608 96.1863 106.71 95.9737L106.989 95.9136C107.48 95.8126 107.96 95.7406 108.711 95.651L109.928 95.512C112.698 95.1895 113.981 94.8714 115.419 93.9456C117.517 92.5956 117.918 90.4846 117.475 86.9635L117.427 86.592C117.402 86.4096 117.375 86.22 117.339 85.9775L117.201 85.0262C116.952 83.2571 116.916 82.498 117.08 81.8481L117.095 81.7893C117.294 81.0569 117.802 80.7539 119.181 80.8398ZM117.106 101.93C117.132 101.964 117.158 101.999 117.184 102.033C118.133 103.313 118.35 104.443 118.405 107.33L118.427 108.854C118.444 109.808 118.469 110.437 118.523 111.165L118.543 111.427C118.585 111.943 119.466 112.763 120.438 112.577C121.196 112.433 121.489 111.191 121.347 108.428L121.327 108.082L121.216 106.461C121.041 103.806 121.096 102.924 121.703 102.155C120.25 102.702 118.56 102.675 117.106 101.93ZM124.046 100.478C124.946 100.138 126.093 99.9072 127.685 99.6739L128.549 99.5503C130.566 99.2556 131.541 99.0146 132.367 98.5295L132.521 98.4356C133.456 97.84 133.545 97.7215 133.13 97.3857L132.995 97.2815C132.26 96.7279 130.84 96.1752 128.796 95.6018L128.364 95.4829C127.897 95.3567 127.418 95.2334 126.854 95.0931L124.505 94.517C124.061 94.4054 123.706 94.3123 123.417 94.2267C125.233 96.1464 125.533 98.3071 124.285 100.153L124.215 100.255C124.16 100.331 124.104 100.405 124.046 100.478ZM120.053 93.9562L120.18 93.9382L120.27 93.9923C123.19 95.7676 123.84 97.7018 122.76 99.2195C121.686 100.729 119.327 101.251 117.634 100.178C115.672 98.9349 115.346 97.5828 116.257 96.2305C117.026 95.0886 118.564 94.1851 120.053 93.9562Z" fill="#00160A"/>
<path d="M150.891 90.523C150.898 90.2505 150.915 90.032 150.936 89.8625C151.118 89.8144 151.378 89.7586 151.734 89.7082C152.581 89.5882 153.663 89.5383 154.919 89.5357C156.165 89.5331 157.497 89.5766 158.838 89.623C158.92 89.6259 159.001 89.6287 159.082 89.6315C160.322 89.6746 161.577 89.7183 162.692 89.7195C163.965 89.7209 165.263 89.7253 166.572 89.7298C169.784 89.7407 173.064 89.7519 176.232 89.7194C176.385 89.7178 176.597 89.7134 176.858 89.7079C177.874 89.6867 179.627 89.6501 181.432 89.7082C182.563 89.7446 183.63 89.8167 184.475 89.9389C184.835 89.991 185.116 90.0468 185.321 90.1C185.404 90.3286 185.493 90.6749 185.562 91.1469C185.714 92.1949 185.721 93.554 185.561 94.9233C185.399 96.308 185.088 97.5151 184.718 98.3147C184.601 98.5678 184.505 98.7276 184.438 98.824C178.954 99.3701 169.916 99.1727 162.573 99.0122C161.741 98.994 160.93 98.9763 160.149 98.9602C159.129 98.9392 158.083 99.0075 157.137 99.081C156.895 99.0998 156.662 99.1187 156.435 99.1371C155.731 99.194 155.092 99.2458 154.467 99.2722C153.646 99.3069 153.022 99.2872 152.556 99.2092C152.466 99.1942 152.39 99.1783 152.325 99.1623C152.248 98.9255 152.159 98.6285 152.063 98.2765C151.775 97.2178 151.463 95.8145 151.232 94.3814C150.998 92.9287 150.866 91.5567 150.891 90.523ZM185.222 89.8782C185.222 89.8781 185.224 89.8808 185.228 89.8868C185.224 89.8813 185.222 89.8783 185.222 89.8782ZM184.331 98.9528C184.331 98.9521 184.337 98.9452 184.351 98.9347C184.338 98.9483 184.331 98.9536 184.331 98.9528ZM151.011 89.4759C151.018 89.4547 151.022 89.4453 151.023 89.446C151.023 89.4467 151.019 89.4573 151.011 89.4759Z" stroke="#D3D3D3" stroke-width="5.36509"/>
<path fill-rule="evenodd" clip-rule="evenodd" d="M162.67 87.253C163.957 87.2544 165.263 87.2589 166.577 87.2634C169.278 87.2726 172.014 87.2819 174.693 87.2652L176.18 87.253C176.307 87.2517 176.497 87.2477 176.735 87.2427C178.971 87.1955 185.569 87.0563 187.02 88.1576C189.394 89.9591 188.449 101.302 185.055 101.67C179.423 102.282 169.958 102.074 162.507 101.911H162.507C161.666 101.892 160.85 101.874 160.069 101.858C158.984 101.836 157.817 101.931 156.664 102.024C154.078 102.234 151.567 102.437 150.231 101.302C149.542 100.716 146.887 89.5683 148.955 88.0373C150.535 86.8672 155.065 87.0247 159.135 87.1661C160.146 87.2012 161.128 87.2354 162.03 87.248L162.031 87.2467L162.032 87.248C162.25 87.251 162.463 87.2528 162.67 87.253ZM159.948 89.4269C160.168 89.4341 160.368 89.4406 160.553 89.4462C160.703 90.3705 160.721 91.9946 160.613 94.3875L160.533 96.1166C160.463 97.7329 160.437 98.8328 160.483 99.6352L159.958 99.6242C159.226 99.6151 158.484 99.6475 157.466 99.7223L155.954 99.8403C153.729 100.004 152.574 99.98 151.994 99.7737L151.952 99.7582L151.918 99.6588C151.823 99.3802 151.715 99.0225 151.603 98.6109L151.531 98.3397C151.242 97.237 150.965 95.9287 150.762 94.6691C150.515 93.133 150.391 91.7576 150.416 90.728L150.42 90.5967C150.433 90.2537 150.464 89.9698 150.506 89.7577L150.514 89.7219L150.59 89.6965C150.973 89.5753 151.651 89.4514 152.559 89.3805C153.689 89.2921 155.037 89.281 156.906 89.3285L158.482 89.3768L159.948 89.4269ZM167.062 99.7731L162.748 99.6827C162.724 99.4296 162.707 99.1187 162.702 98.7586L162.701 98.6813C162.694 98.116 162.705 97.5762 162.744 96.6276L162.87 93.838C162.946 91.9215 162.948 90.5302 162.822 89.4847L172.054 89.506C172.548 89.5056 173.024 89.5046 173.484 89.503C173.343 92.2799 173.568 97.1369 173.856 99.8494C173.078 99.8483 172.269 99.8437 171.43 99.8359L169.834 99.8178C168.954 99.8061 168.056 99.7916 167.062 99.7731ZM176.124 99.842C179.553 99.8132 182.307 99.7021 184.442 99.4902L184.641 99.4694L184.668 99.4416C184.782 99.3125 184.915 99.1051 185.051 98.8274L185.102 98.7199C185.503 97.8531 185.82 96.5899 185.984 95.1917C186.146 93.8081 186.144 92.4058 185.983 91.2981C185.909 90.787 185.804 90.3677 185.686 90.0744L185.653 89.9955L185.628 89.9433L185.539 89.9156C185.3 89.8449 184.972 89.7769 184.571 89.7172C183.78 89.5993 182.761 89.5207 181.57 89.4788C180.462 89.4399 179.336 89.4341 178.075 89.4509L176.203 89.4848L175.671 89.489C175.653 89.7908 175.641 90.1497 175.636 90.5518L175.634 90.6824C175.625 91.7705 175.664 93.141 175.742 94.6586L175.758 94.964C175.821 96.1546 175.906 97.3846 175.997 98.4664L176.052 99.0963C176.076 99.3655 176.1 99.6157 176.124 99.842ZM166.295 93.2547L166.498 93.5465C166.731 93.8739 166.95 94.1637 167.159 94.4194C166.879 95.0309 166.731 95.718 166.685 96.6021C166.668 96.9236 166.915 97.1978 167.237 97.2146C167.558 97.2314 167.833 96.9844 167.849 96.6629C167.876 96.1535 167.938 95.7334 168.049 95.3607C168.695 95.9251 169.259 96.1348 169.853 96.1456L169.968 96.1457C170.29 96.1457 170.551 95.8847 170.551 95.5628C170.551 95.2609 170.322 95.0127 170.028 94.9828L169.968 94.9798L169.87 94.9798C169.489 94.9712 169.106 94.8108 168.584 94.284C168.754 94.0463 168.959 93.8104 169.204 93.5586L169.829 92.9401C170.058 92.7134 170.06 92.3443 169.833 92.1157C169.606 91.887 169.237 91.8854 169.009 92.112L168.485 92.6276C168.231 92.8819 168.007 93.1266 167.813 93.3716L167.6 93.0841C167.491 92.9328 167.376 92.7699 167.256 92.5947C167.074 92.3293 166.711 92.2619 166.445 92.4441C166.18 92.6264 166.113 92.9893 166.295 93.2547ZM182.213 92.6996L182.219 92.3438C182.222 92.0219 181.963 91.7588 181.641 91.7561C181.319 91.7534 181.056 92.0123 181.053 92.3342C181.05 92.6883 181.041 93.0056 181.026 93.2895C180.728 93.1954 180.406 93.1174 180.053 93.0487L179.33 92.9141C179.014 92.8541 178.709 93.0618 178.649 93.3782C178.589 93.6945 178.796 93.9995 179.113 94.0596L179.977 94.2228C180.321 94.2944 180.623 94.3753 180.897 94.4774C180.758 95.2061 180.53 95.5533 180.22 95.7734L180.139 95.8281L180.091 95.8639C179.864 96.053 179.812 96.3871 179.981 96.6373C180.161 96.9042 180.524 96.9747 180.79 96.7946L180.885 96.7305C181.372 96.3893 181.723 95.8997 181.942 95.0709C182.243 95.3178 182.529 95.6312 182.836 96.0387C183.03 96.2958 183.395 96.3473 183.652 96.1536C183.91 95.9598 183.961 95.5943 183.767 95.3372C183.235 94.6301 182.728 94.1429 182.154 93.7928C182.184 93.4639 182.204 93.101 182.213 92.6996Z" fill="#00160A"/>
<path fill-rule="evenodd" clip-rule="evenodd" d="M156.78 92.6499L156.688 92.9938C156.582 93.3809 156.475 93.7283 156.366 94.0401C156.839 94.5188 157.212 95.114 157.558 95.9289C157.683 96.2253 157.545 96.5675 157.249 96.6933C156.952 96.819 156.61 96.6807 156.484 96.3843C156.285 95.9147 156.083 95.5413 155.851 95.229C155.438 95.9801 154.979 96.3703 154.424 96.5837L154.317 96.6229C154.014 96.7331 153.68 96.5771 153.57 96.2745C153.466 95.9909 153.597 95.6792 153.863 95.5506L153.918 95.5274L154.01 95.4939C154.365 95.3556 154.67 95.0738 154.98 94.4002C154.739 94.2349 154.466 94.0834 154.15 93.9307L153.351 93.5632C153.058 93.4285 152.93 93.0822 153.065 92.7898C153.2 92.4974 153.546 92.3696 153.839 92.5044L154.507 92.8098C154.833 92.9618 155.126 93.1153 155.393 93.2789C155.477 93.007 155.562 92.7014 155.651 92.3585C155.731 92.0468 156.049 91.8593 156.361 91.9398C156.673 92.0203 156.86 92.3382 156.78 92.6499Z" fill="#B0E9AF"/>
</svg>
