<svg width="24" height="24" viewBox="0 0 24 24" fill="none" xmlns="http://www.w3.org/2000/svg">
<path d="M0.0332476 20.7535C2.67405 20.9954 5.05363 20.3181 7.21947 18.6637C4.95389 18.4605 3.43875 17.3091 2.59331 15.1516C3.33426 15.2435 4.02771 15.2677 4.7639 15.0645C2.32258 14.2905 1.02118 12.6651 0.845438 10.0431C1.57688 10.3914 2.26558 10.6429 3.07778 10.6526C1.62913 9.5448 0.888185 8.10803 0.916683 6.29877C0.930932 5.4667 1.14942 4.68301 1.58163 3.94286C4.26519 7.14051 7.63269 8.91108 11.7791 9.20617C11.7554 9.02234 11.7411 8.87721 11.7221 8.72725C11.3802 6.04722 13.09 3.60907 15.7024 3.10112C17.341 2.78184 18.7896 3.22206 20.015 4.37341C20.205 4.54756 20.3665 4.58626 20.604 4.52337C21.5587 4.27666 22.4659 3.91867 23.3445 3.43491C23.0073 4.56691 22.3139 5.41833 21.3734 6.13429C21.5872 6.09559 21.8057 6.06657 22.0194 6.02303C22.2426 5.97465 22.4659 5.92144 22.6891 5.85855C22.9028 5.8005 23.1118 5.73277 23.3208 5.66021C23.5345 5.58764 23.7483 5.50541 24 5.46187C23.8765 5.63602 23.7578 5.81985 23.6248 5.98917C23.0738 6.70029 22.4374 7.32434 21.7392 7.88067C21.6679 7.93872 21.6062 8.0645 21.6109 8.15157C21.6489 9.86892 21.4114 11.5427 20.8652 13.1682C19.7918 16.3707 17.9204 18.9636 15.1134 20.8164C13.7265 21.7307 12.2114 22.3306 10.5917 22.6789C8.98634 23.0223 7.37146 23.0852 5.75183 22.8917C4.12745 22.6982 2.58381 22.2096 1.13042 21.4453C0.745696 21.247 0.375223 21.0244 0 20.8116C0.014249 20.7922 0.0237483 20.7729 0.0332476 20.7535Z" fill="#080029"/>
</svg>
