<svg width="1217" height="699" viewBox="0 0 1217 699" fill="none" xmlns="http://www.w3.org/2000/svg">
<path d="M758.992 386.657C749.536 393.038 737.174 394.927 726.203 391.704C724.979 391.346 723.635 390.821 723.083 389.674C722.242 387.954 723.586 385.994 723.826 384.107C724.521 378.635 716.695 376.271 714.222 371.374C713.237 369.439 713.165 367.169 712.996 365.019C711.48 345.786 701.395 328.466 692.918 311.122C692.318 309.856 691.694 308.494 691.934 307.108C692.197 305.722 693.781 304.527 695.006 305.22C694.094 308.493 696.111 312.292 699.328 313.39C700.791 307.799 701.606 300.44 696.565 297.574C694.86 296.595 692.796 296.428 690.827 296.333C683.05 295.952 675.225 296.383 667.544 297.627C666.247 297.843 664.855 298.034 663.727 297.389C662.743 296.816 662.214 295.693 661.542 294.761C659.645 292.253 654.628 290.892 651.964 293.067C649.012 295.504 651.269 300.808 645.581 301.526C642.364 301.933 639.267 300.309 636.459 298.708C633.434 297.013 630.361 295.245 628.152 292.57C627.384 291.614 626.687 290.539 625.631 289.894C623.614 288.628 621.046 289.322 618.67 289.298C616.293 289.275 613.412 287.555 614.036 285.285C614.228 284.592 614.756 284.019 615.164 283.397C618.14 278.857 614.202 272.359 608.993 270.712C603.783 269.064 598.167 270.714 592.958 272.339C585.157 274.802 577.356 277.24 569.532 279.703C566.579 280.635 563.483 281.567 560.434 281.018C557.818 280.541 555.081 279.013 552.705 280.16C549.464 281.713 549.993 286.516 548.05 289.526C546.178 292.394 542.193 293.326 540.274 296.17C538.042 299.468 539.363 303.84 539.148 307.806C538.693 315.427 532.381 321.234 526.837 326.54C521.293 331.845 515.678 338.727 517.095 346.253C517.528 348.57 518.632 350.744 518.801 353.085C518.921 355.021 518.417 356.932 517.89 358.82C516.259 364.745 514.651 370.647 513.02 376.573C518.471 386.176 524.522 395.445 531.077 404.308C534.318 408.68 537.751 413.028 542.241 416.133C546.73 419.238 552.443 420.957 557.724 419.57C560.076 418.949 562.284 417.706 564.733 417.466C568.117 417.107 571.454 418.708 574.863 418.564C578.847 418.396 582.28 415.934 585.472 413.568C588.664 411.202 592.144 408.765 596.104 408.644C600.089 408.524 604.363 411.964 603.523 415.835C603.331 416.671 602.923 417.531 603.043 418.367C603.308 420.207 605.708 420.851 607.533 420.588C609.381 420.349 611.349 419.656 613.03 420.468C615.31 421.59 615.575 424.792 614.807 427.205C613.776 430.479 611.592 433.25 610.128 436.357C608.664 439.463 608.065 443.405 610.154 446.129C611.234 447.538 612.867 448.422 614.187 449.592C616.42 451.551 617.741 454.298 618.822 457.07C623.457 468.824 624.467 481.964 621.901 494.317C620.774 499.789 617.27 504.233 616.167 509.275C614.92 514.962 619.482 521.316 622.171 525.951C626.253 532.998 628.655 541.002 629.185 549.125C629.377 552.35 629.33 555.743 630.819 558.634C631.947 560.784 633.82 562.456 635.381 564.319C641.311 571.533 642.057 581.52 642.563 590.838C643.811 592.486 646.404 592.486 648.276 591.602C650.172 590.717 651.684 589.188 653.508 588.208C658.117 585.746 663.734 587.035 668.919 586.437C677.848 585.432 685.696 578.072 687.23 569.255C687.662 566.818 687.662 564.238 688.717 561.991C690.301 558.598 694.141 556.304 694.645 552.601C694.836 551.143 694.476 549.614 694.788 548.157C695.795 543.593 702.828 542.158 703.427 537.499C703.715 535.277 702.346 533.223 701.482 531.144C698.888 524.98 701.071 517.191 706.471 513.248C708.487 511.766 710.863 510.81 712.927 509.376C722.864 502.517 722.645 487.632 718.442 476.356C716.809 471.96 714.696 467.517 715.007 462.81C715.198 459.728 716.446 456.789 717.886 454.065C721.533 447.183 726.573 441.042 732.597 436.119C736.533 432.916 741.069 430.025 743.301 425.485C744.668 422.713 745.052 419.559 746.132 416.644C748.099 411.339 752.179 407.181 755.37 402.522C758.706 397.862 761.081 391.889 758.992 386.657ZM701.116 501.279C700.852 503.214 698.668 505.03 696.988 504.027C696.915 498.867 695.81 493.754 694.704 488.713C694.176 486.3 693.623 483.863 693.095 481.45C692.855 480.327 692.494 479.061 691.486 478.511C690.766 478.129 689.83 478.177 689.157 477.699C688.149 476.983 688.221 475.43 687.405 474.498C686.324 473.304 684.284 473.734 682.915 472.874C681.547 472.038 681.235 470.223 681.042 468.646L678.975 451.133C678.902 450.464 678.83 449.724 679.19 449.15C679.598 448.505 680.39 448.242 681.11 447.979C684.183 446.808 686.775 444.442 688.214 441.503C688.814 440.236 689.222 438.898 690.062 437.775C693.062 433.737 697.071 434.931 697.407 438.897C697.889 444.392 695.68 443.699 692.584 445.635C690.208 447.117 686.128 449.603 684.496 452.088C682.024 455.815 684.209 456.866 685.914 460.474C687.475 463.842 685.987 468.358 688.46 471.129C690.069 472.921 692.733 473.255 694.774 474.545C697.967 476.551 699.144 480.636 699.36 484.363C699.577 488.114 699.074 491.937 700.035 495.569C700.515 497.456 701.38 499.344 701.116 501.279Z" fill="#D9E8FF"/>
<path d="M731.853 508.934C729.837 512.614 733.967 516.89 733.632 521.071C733.297 525.372 728.472 528.049 727.465 532.254C727.057 533.974 727.345 535.79 727.754 537.51C728.523 540.807 729.675 544.032 731.188 547.09C731.669 548.07 732.221 549.049 733.013 549.79C735.486 552.083 739.759 551.318 742.159 548.952C744.559 546.586 745.494 543.098 745.998 539.777C746.501 536.432 746.693 532.991 748.036 529.909C749.98 525.393 754.276 521.593 754.035 516.695C753.915 514.258 752.618 512.012 752.065 509.647C751.489 507.258 751.968 504.224 754.225 503.22C754.465 504.773 754.705 506.35 754.946 507.903C761.33 505.918 753.501 484.942 746.566 495.552C743.758 499.877 746.543 502.791 740.926 505.014C737.95 506.233 733.677 505.613 731.853 508.934Z" fill="#D9E8FF"/>
<path d="M1216.83 134.928C1216.66 134.212 1216.09 133.662 1215.53 133.161C1211.69 129.649 1207.42 126.616 1202.81 124.203C1205.72 123.964 1208.72 123.677 1211.28 122.29C1213.88 120.928 1215.94 118.18 1215.56 115.289C1214.91 110.367 1207.9 107.502 1208.59 102.58C1208.93 100.358 1210.85 98.1354 1209.81 96.1525C1209.07 94.7908 1207.32 94.4327 1205.76 94.2419C1197.64 93.1683 1189.55 92.0707 1181.42 90.9971C1181.78 94.0792 1180.91 97.4959 1178.42 99.36C1175.9 101.2 1171.65 100.604 1170.45 97.7368C1170.04 96.7334 1170.02 95.5627 1169.32 94.7027C1167.88 92.8633 1164.95 93.939 1162.72 94.7995C1157.94 96.6401 1152.49 96.6412 1147.74 94.7785C1146.83 94.3963 1145.82 93.8948 1145.44 92.987C1144.86 91.6252 1145.82 90.1437 1145.89 88.6863C1146.01 86.1775 1143.42 84.2428 1140.9 84.0043C1138.4 83.7898 1135.95 84.7937 1133.55 85.5826C1126.57 87.8298 1118.26 88.1419 1112.52 83.5796C1110.82 82.2419 1109.43 80.522 1107.58 79.3755C1104.99 77.7513 1101.82 77.4174 1098.79 77.1074C1090.97 76.3204 1083.14 75.5335 1075.32 74.7226C1074.57 74.6511 1073.71 74.6034 1073.06 75.0336C1072.05 75.7744 1072.22 77.2796 1071.88 78.4743C1071.26 80.792 1068.62 82.011 1066.22 82.1787C1063.8 82.3464 1061.37 81.7734 1058.97 82.0606C1057.19 82.2521 1055.44 82.9214 1053.67 82.8022C1051.87 82.707 1049.9 81.4411 1049.94 79.673C1047.69 81.0831 1046.2 83.616 1046.13 86.2681C1041.57 86.7707 1035.83 83.5224 1036.84 79.0543C1037.1 77.9075 1037.77 76.8799 1037.89 75.7092C1038.49 68.4458 1020.44 66.8246 1016.36 69.9552C1015.26 70.8156 1014.39 71.9626 1013.34 72.8707C1008.9 76.7182 1000.98 75.1905 998.286 69.9586C991.901 69.1714 985.42 69.2204 979.011 70.0339C976.418 65.6383 969.649 67.7182 965.329 70.4427C961.009 73.1911 954.696 75.8682 951.407 71.9744C962.328 69.5115 972.673 64.5638 981.457 57.6812C982.345 56.9881 983.305 56.0561 983.089 54.9332C982.969 54.1687 982.297 53.6193 981.648 53.1655C977.591 50.3708 972.622 48.8905 967.677 49.0109C964.077 49.0832 959.78 49.753 957.499 46.9819C956.083 45.2858 955.914 42.6816 954.186 41.2723C952.529 39.9346 950.153 40.2457 948.064 40.6045C943.432 41.4416 938.775 42.2787 934.118 43.1158C933.398 43.2354 932.606 43.4028 932.102 43.9285C931.454 44.6454 931.503 45.7205 931.431 46.7001C931.024 52.7927 923.319 57.1187 917.87 54.2765C916.165 53.369 914.725 51.9596 912.877 51.3865C910.548 50.6941 908.052 51.483 905.748 52.2958C896.123 55.6186 886.498 58.9415 876.873 62.2643C879.465 64.0079 882.826 64.5807 885.85 63.7917C886.763 65.3923 884.411 66.8263 882.586 67.2089C875.242 68.7394 867.921 70.2699 860.576 71.7765C864.777 74.9534 868.858 78.3214 872.748 81.8568C874.644 80.5423 876.421 83.9586 875.701 86.1568C875.005 88.355 873.686 91.079 875.366 92.6317C873.11 91.8914 871.189 90.2194 870.084 88.0932C871.26 87.2328 872.388 86.3486 873.564 85.4882C870.996 86.0143 868.187 84.3424 867.419 81.8578C862.738 80.9507 858.273 78.9446 854.503 76.0305C853.76 77.7748 854.768 80.0921 856.593 80.7369C854.864 80.9761 853.136 81.1676 851.408 81.3829C851.985 84.0587 854.385 86.2325 857.122 86.5426C853.689 87.4272 849.825 86.6157 847.016 84.442C849.584 80.5948 845.814 74.503 841.205 75.0295C843.846 75.3874 844.302 79.1623 843.127 81.5517C841.951 83.9651 839.887 86.1158 839.935 88.7678C839.984 92.0172 843.033 95.9349 840.489 98.014C843.586 100.594 849.322 95.9098 851.915 98.9437C852.708 99.8992 852.804 101.213 853.14 102.408C854.149 105.991 858.086 108.476 861.759 107.83C859.647 111.175 854.605 107.879 852.3 104.654C850.019 101.429 844.858 98.2282 842.842 101.645C842.194 102.768 842.315 104.13 842.315 105.396C842.197 114.691 831.228 122.075 822.514 118.708C825.826 114.622 833.628 116.245 836.171 111.657C837.203 109.77 836.915 107.476 836.602 105.374C835.569 98.4689 834.559 91.5881 833.526 84.6834C834.125 81.5056 834.364 78.2563 834.22 75.0308C830.571 76.2978 824.691 76.1316 824.81 72.285C821.714 77.3985 818.595 82.512 815.499 87.6256C813.603 90.708 812.188 95.5346 815.405 97.1586C817.565 96.2742 820.086 98.0895 820.686 100.359C821.311 102.605 820.519 104.97 819.488 107.073C814.828 94.2439 791.257 100.15 785.11 87.9658C782.302 89.0415 784.871 93.3655 787.704 94.3923C790.56 95.4192 794.473 97.2343 793.418 100.054C792.626 102.276 789.554 102.276 787.201 102.11C780.408 101.633 773.447 103.187 767.495 106.533C766.966 104.144 766.414 101.779 765.909 99.4377C760.965 102.927 755.973 106.416 751.029 109.929C748.604 111.626 746.06 113.371 743.108 113.682C740.18 113.969 736.795 112.226 736.41 109.311C736.025 106.396 740.298 103.839 742.194 106.084C743.009 100.732 735.663 96.2657 731.247 99.4442C734.177 104.366 734.25 110.864 731.418 115.858C730.363 117.722 728.755 119.466 726.642 119.801C724.53 120.112 722.081 118.297 722.537 116.218C719.849 118.584 718.337 122.192 718.53 125.752C714.162 127.163 708.952 125.491 706.239 121.764C706.576 123.843 706.912 125.874 707.249 127.952C704.105 131.322 697.215 128.886 696.902 124.299C696.806 122.937 697.166 121.599 697.166 120.237C697.165 115.602 693.059 112.162 689.314 109.367C694.907 111.469 700.525 113.594 706.118 115.696C709.263 116.89 712.624 118.108 715.912 117.462C720.737 116.553 723.856 110.078 719.559 106.734C711.852 100.738 702.97 96.2241 693.56 93.5261C690.847 92.762 687.943 92.1175 685.278 92.9781C683.094 93.6714 680.166 95.0577 678.989 93.0987C681.174 93.4089 683.526 92.5723 685.014 90.9234C680.453 89.9208 675.844 89.2766 671.187 89.0385C665.811 93.7941 662.164 100.509 663.725 107.294C666.128 117.71 679.716 126.452 674.749 135.915C679.429 134.862 684.326 133.834 688.959 135.004C691.456 135.601 693.88 137.082 695.513 139.041C695.489 138.945 695.513 138.825 695.537 138.73C696.929 138.276 698.417 137.798 699.833 138.18C701.25 138.562 702.402 140.21 701.682 141.5C701.202 142.408 699.93 143.149 700.387 144.081C700.675 144.654 701.467 144.75 702.067 144.941C703.795 145.466 704.756 147.688 703.964 149.289C701.492 149.146 699.019 149.027 696.523 148.908C695.683 150.7 694.555 152.42 693.763 154.212C690.428 161.715 692.854 170.316 693.144 178.511C693.265 182.716 692.305 187.399 690.218 191.031C690.722 190.935 691.226 190.816 691.73 190.744C701.067 189.166 711.749 191.505 717.464 199.03C723.178 206.555 721.26 219.481 712.5 223.019C709.163 224.357 705.275 224.31 702.226 226.222C700.978 226.963 700.067 228.301 699.635 229.711C705.299 226.508 711.131 223.449 717.54 222.253C716.125 225.264 713.341 227.558 710.124 228.347C711.205 229.04 710.845 230.832 709.765 231.525C708.685 232.218 707.292 232.099 706.044 231.836C704.796 231.597 703.476 231.263 702.252 231.574C701.171 231.837 700.307 232.673 699.876 233.701C699.66 234.155 699.564 234.657 699.564 235.158C699.564 235.517 699.636 235.827 699.732 236.162C702.996 233.438 708.181 233.365 711.518 236.016C712.79 237.043 713.799 238.381 715.167 239.289C716.68 240.292 718.648 240.746 719.8 242.179C720.929 243.612 720.137 246.503 718.361 246.121C718.289 247.029 719.249 247.674 720.114 247.841C721.002 248.008 721.962 247.937 722.754 248.343C724.603 249.298 724.267 252.261 722.659 253.575C721.051 254.866 718.795 254.985 716.706 254.986C711.257 255.059 705.593 255.107 700.599 252.91C698.247 251.883 696.134 250.355 693.685 249.495C691.261 248.635 688.332 248.564 686.364 250.213C685.452 250.978 684.828 252.077 683.94 252.913C681.829 254.945 678.228 255.208 675.827 253.512C673.859 252.103 672.898 249.451 673.354 247.086C671.098 249.356 669.154 252.008 667.762 254.852C668.963 258.244 670.164 261.661 671.365 265.053C671.773 266.152 672.133 267.251 672.542 268.326C673.694 271.647 675.591 275.541 679.096 275.755C683.537 276.041 688 270.019 691.53 275.466C692.202 276.517 692.419 277.76 692.419 279.026C692.395 281.487 695.805 284.592 697.628 282.657C697.412 280.889 697.22 278.977 698.035 277.376C698.851 275.799 701.107 274.795 702.524 275.918C703.484 276.659 703.677 278.02 703.749 279.215C703.845 280.983 703.749 282.799 703.51 284.543C702.958 288.748 701.279 293.121 697.727 295.367C694.943 297.112 690.934 298.379 693.215 302.106C693.744 302.918 695.856 301.986 696.456 302.774C697.777 304.614 696.865 306.549 697.033 308.723C697.394 313.334 702.651 315.651 705.533 319.306C709.518 324.323 708.68 331.514 710.649 337.607C714.66 350.078 730.456 358.078 729.571 371.148C729.211 376.237 726.716 382.593 730.917 385.531C733.726 387.465 737.567 386.103 740.687 384.645C746.495 381.968 752.328 379.267 758.184 376.566C760.561 375.49 763.081 374.247 764.304 371.93C764.928 370.711 765.144 369.301 766.032 368.25C767.328 366.721 769.584 366.505 771.481 365.884C775.777 364.449 778.657 360.411 780.816 356.42C783.144 352.095 784.967 347.508 786.263 342.753C786.598 341.511 786.91 340.173 786.598 338.906C785.469 334.295 777.331 333.843 776.922 329.112C776.754 327.129 778.146 325.361 778.794 323.497C779.441 321.61 778.721 318.838 776.728 318.862C775.529 322.375 774.233 326.031 771.569 328.612C768.882 331.192 764.345 332.292 761.416 330.023C759.231 328.351 758.511 325.436 757.022 323.143C754.765 319.583 750.636 317.434 748.667 313.731C746.698 310.004 749.577 303.744 753.49 305.344C755.412 312.392 760.262 318.579 766.671 322.114C770.632 320.775 774.448 318.982 778.024 316.76C779.8 315.35 782.153 318.001 782.346 320.247C782.538 322.517 782.179 325.289 784.027 326.602C784.963 327.295 786.236 327.342 787.412 327.342C797.038 327.34 806.615 326.24 815.976 324.04C814.057 329.607 819.219 336.296 825.1 335.865C824.38 338.135 822.1 339.831 819.7 339.856C820.852 342.101 822.077 344.443 824.142 345.947C826.206 347.428 829.327 347.762 831.127 345.994C832.831 344.345 833.046 341.263 835.254 340.355C837.823 339.279 840.368 342.48 840.152 345.252C839.937 347.999 838.209 350.365 837.273 352.993C835.402 358.322 837.155 364.175 838.86 369.55C842.199 379.919 845.658 390.55 852.5 399.079C854.948 396.784 857.42 394.49 859.868 392.196C863.181 392.769 863.302 397.5 862.246 400.654C861.167 403.855 860.183 408.132 863.064 409.876C865.657 411.428 869.113 408.943 869.689 406.004C870.264 403.065 868.919 400.151 867.599 397.451C865.894 394.011 864.213 390.547 862.532 387.059C861.955 385.864 861.331 384.598 861.451 383.26C861.547 382.113 862.099 381.086 862.578 380.034C864.09 376.665 864.569 372.819 863.897 369.187C872.897 364.622 880.433 357.238 885.088 348.277C885.808 346.939 886.48 345.53 887.704 344.621C891.4 341.945 897.618 345.695 900.882 342.516C905.443 344.212 909.284 347.676 911.445 352.024C913.03 355.201 914.495 359.43 918.048 359.692C912.599 361.915 908.928 367.793 909.337 373.623C914.81 375.007 920.858 369.845 920.305 364.255C922.441 363.036 925.274 364.517 926.427 366.691C927.555 368.865 927.436 371.445 927.292 373.882C926.885 381.265 926.431 388.624 926.024 395.959C925.904 398.157 925.809 400.522 927.033 402.338C928.186 404.058 930.371 405.013 931.163 406.924C932.364 409.743 929.964 413.304 931.525 415.955C932.365 417.365 934.022 417.986 935.294 418.965C938.031 421.043 938.944 424.723 940.913 427.541C942.881 430.36 947.442 432.199 949.578 429.499C945.017 425.94 942.111 420.397 941.798 414.616C941.726 413.302 941.774 411.916 941.221 410.721C940.549 409.216 939.109 408.237 937.884 407.138C930.754 400.641 931.616 389.411 933.078 379.878C936.392 384.704 941.697 388.119 947.506 389.121C945.635 392.945 947.268 398.057 950.965 400.159C951.204 396.408 954.036 392.991 957.661 392.011C959.245 391.58 960.925 391.556 962.413 390.911C966.878 388.998 967.356 382.977 967.14 378.151C967.067 376.24 966.947 374.257 965.914 372.68C964.185 370.076 960.705 369.456 957.968 367.927C953.071 365.18 950.669 358.682 952.66 353.401C954.604 348.145 960.676 344.775 966.197 345.873C968.022 346.661 967.206 349.552 965.622 350.747C964.038 351.942 961.854 352.659 961.11 354.499C960.054 357.056 963.175 359.898 965.888 359.3C968.6 358.726 970.328 355.883 970.519 353.111C970.687 350.364 969.678 347.688 968.67 345.084C974.503 346.349 980.935 344.317 984.943 339.92C986.071 338.678 987.079 337.244 988.543 336.407C991.375 334.758 995.432 335.665 997.76 333.323C999.536 331.555 999.416 328.712 999.967 326.251C1001 321.687 1004.53 318.198 1006.61 314.041C1008.68 309.883 1010.72 303.48 1009.61 298.892C1008.82 295.548 1007.07 292.514 1005.87 289.312C1005 287.043 1004.42 284.678 1004.11 282.241C1003.99 281.261 1003.9 280.162 1004.35 279.302C1005.17 277.725 1007.18 277.366 1008.7 276.434C1010.95 275.048 1012.13 272.156 1011.45 269.624C1005.21 271.704 997.916 270.128 993.115 265.661C994.506 262.985 997.579 261.742 1000.24 260.308C1002.93 258.898 1005.71 256.604 1005.59 253.57C1007.3 253.569 1008.98 253.569 1010.66 253.545C1010.78 256.292 1009.48 259.088 1007.3 260.785C1009.6 262.767 1013.08 260.879 1015.8 259.469C1018.51 258.059 1023.05 258.058 1023.38 261.068C1023.7 263.983 1019.28 265.943 1019.88 268.81C1022.98 267.758 1026.31 271.891 1024.63 274.687C1024.18 275.427 1023.43 276.168 1023.55 277.052C1023.7 278.127 1024.97 278.533 1025.91 279.059C1028.52 280.444 1029.68 284.028 1028.33 286.656C1030.16 285.246 1031.98 283.836 1033.8 282.402C1034.21 284.075 1036.11 285.197 1037.81 284.815C1039.49 284.408 1040.67 282.544 1040.29 280.872C1039.92 279.223 1038.39 278.077 1037.88 276.476C1037.14 274.063 1038.84 271.387 1038 269.022C1037.35 267.158 1035.36 266.179 1033.73 265.009C1032.12 263.838 1030.66 261.736 1031.64 259.992C1032.22 258.916 1033.49 258.486 1034.52 257.865C1039.66 254.686 1040.76 245.631 1046.81 245.438C1048.03 245.39 1049.23 245.772 1050.41 245.605C1053.84 245.126 1055.04 240.969 1056.67 237.887C1060.25 231.053 1068.55 227.73 1072.32 220.968C1075.2 215.783 1074.86 209.451 1076.56 203.741C1077.81 199.607 1080.16 195.306 1078.7 191.221C1076.9 186.132 1068.64 185.13 1065.66 189.646C1066.14 187.09 1066.62 184.557 1067.13 181.977C1065.33 187.759 1053.32 182.553 1063.77 176.888C1070.73 173.136 1076.97 167.974 1081.98 161.857C1083.69 159.778 1085.29 157.555 1087.53 156.05C1095.73 150.529 1107.04 157.36 1116.64 154.969C1116.98 155.901 1117.29 156.856 1117.63 157.788C1115.03 158.864 1112.49 159.939 1109.92 161.015C1115.35 163.547 1121.18 157.548 1127.16 157.786C1128.91 157.858 1131.43 157.857 1131.52 156.161C1129.92 155.922 1127.83 155.039 1128.12 153.438C1128.21 152.864 1128.64 152.386 1129.05 151.98C1130.61 150.331 1132.17 148.706 1133.76 147.057C1136.37 144.309 1140.62 141.37 1143.62 143.758C1145.88 145.574 1144.85 149.946 1141.99 150.544C1143.86 152.407 1147.03 150.71 1148.9 148.823C1150.77 146.959 1153.17 144.712 1155.67 145.668C1156.37 144.282 1156.37 142.585 1155.72 141.224C1157.71 140.124 1160.16 139.861 1162.34 140.529C1161.02 141.629 1160.11 143.254 1159.85 144.95C1159.66 146.049 1159.75 147.196 1159.42 148.247C1158.22 152.214 1152.89 152.669 1149.12 154.509C1142.5 157.712 1140.17 166.17 1134.22 170.448C1132.75 171.523 1131.1 172.312 1129.87 173.65C1127.26 176.542 1127.59 181.033 1128.79 184.737C1130.04 188.44 1132.06 191.999 1132.28 195.87C1132.32 196.61 1132.3 197.327 1132.23 198.044C1131.97 200.624 1135.16 202.081 1136.98 200.241C1137.41 199.787 1137.87 199.333 1138.3 198.903C1140.41 196.728 1142.62 194.482 1143.7 191.639C1144.45 189.631 1144.78 187.194 1146.63 186.143C1148 185.378 1149.7 185.712 1151.24 185.425C1152.8 185.186 1154.45 183.609 1153.66 182.223C1151.12 180.432 1151.57 175.892 1154.38 174.577C1155.56 175.127 1156.73 175.676 1157.91 176.249C1160.69 174.982 1156.49 170.42 1158 167.767C1158.58 166.74 1160 166.119 1159.95 164.948C1159.9 163.49 1157.83 163.228 1156.37 163.467C1155.41 158.713 1158.7 153.528 1163.4 152.356C1163.33 153.336 1163.23 154.339 1163.16 155.319C1165.49 153.861 1167.82 152.403 1170.15 150.897C1170.55 152.02 1170.96 153.143 1171.37 154.314C1174.16 155.747 1176.34 149.415 1179.24 150.585C1179.87 150.848 1180.3 151.421 1180.83 151.827C1182.92 153.523 1186.64 152.232 1187.21 149.604C1189.37 139.688 1201.47 139.232 1211.6 138.394C1214.14 138.25 1217.38 137.222 1216.83 134.928ZM769.179 255.956C767.475 257.485 765.027 257.892 762.747 257.534C762.195 257.988 762.603 258.943 763.203 259.302C763.803 259.684 764.571 259.779 765.099 260.281C766.036 261.189 765.676 262.718 765.82 264.008C766.085 266.086 767.885 267.687 768.366 269.718C769.231 273.373 765.271 276.743 761.478 276.767C753.581 276.84 748.035 270.462 745.993 263.605C744.816 259.687 742.558 249.056 748.606 248.457C746.782 246.068 748.702 243.44 747.549 240.884C746.924 239.498 745.364 238.829 744.308 237.73C742.219 235.509 742.53 231.782 744.306 229.296C746.082 226.811 748.938 225.353 751.794 224.23C754.579 223.154 757.747 222.317 760.484 223.44C763.244 224.562 764.925 228.48 762.861 230.631C760.63 232.949 756.068 231.612 754.053 234.121C752.781 235.674 753.213 238.111 754.486 239.664C755.782 241.216 757.727 242.076 759.599 242.793C760.655 243.199 761.784 243.7 762.192 244.704C762.84 246.233 761.52 247.786 760.681 249.196C759.865 250.629 760.033 253.138 761.69 253.138C763.298 253.113 763.561 250.844 764.449 249.505C765.697 247.618 768.962 247.928 770.234 249.815C771.507 251.702 770.859 254.45 769.179 255.956ZM966.238 182.832C965.878 183.525 965.446 184.218 965.207 184.958C964.967 185.795 964.967 186.703 964.751 187.539C964.127 190.048 961.799 191.673 959.687 193.202C958.223 194.254 956.759 195.425 955.895 196.978C955.535 197.623 955.295 198.34 954.888 198.985C952.8 202.474 946.583 203.192 950.495 198.317C952.918 195.282 956.518 190.838 959.518 188.209C960.55 187.301 961.798 186.56 962.494 185.389C963.622 183.477 962.998 181.064 963.069 178.842C963.141 176.62 964.82 173.968 966.981 174.589C967.798 177.289 967.51 180.299 966.238 182.832ZM697.77 144.296C697.794 144.535 697.794 144.75 697.77 145.013C697.698 145.873 697.531 146.686 697.243 147.474C697.579 147.498 697.891 147.498 698.155 147.474C698.635 146.423 698.322 145.371 697.77 144.296ZM681.386 197.316C685.37 197.029 688.346 194.52 690.338 191.055C686.545 191.964 682.825 193.804 681.386 197.316Z" fill="#D9E8FF"/>
<path d="M712.596 223.067C709.26 224.405 705.371 224.358 702.323 226.27C701.075 227.011 700.163 228.349 699.731 229.759C699.227 230.022 698.723 230.332 698.219 230.595C689.363 235.614 692.673 224.575 684.392 224.649C676.302 224.722 678.633 238.197 675.033 237.003C674.121 239.058 675.609 241.494 674.962 243.645C674.722 244.386 674.266 245.055 673.93 245.748C673.714 246.178 673.57 246.656 673.498 247.133C671.242 249.404 669.298 252.056 667.907 254.899C667.811 254.589 667.691 254.302 667.594 253.992C665.626 252.057 662.002 254.112 661.378 256.788C660.754 259.464 661.931 262.212 662.724 264.84C663.516 267.468 663.805 270.693 661.813 272.629C660.781 273.656 659.101 274.373 660.59 276.714C661.118 277.575 662.174 277.909 663.182 277.765C665.319 277.454 667.144 281.396 665.055 281.516C661.191 281.971 658.357 277.933 657.133 274.254C655.932 270.575 655.091 266.298 651.85 264.173C650.265 263.122 648.081 262.62 647.312 260.9C646.015 257.986 649.784 254.592 648.391 251.725C647.022 248.93 642.437 249.959 640.085 247.88C638.092 246.113 638.355 242.696 636.435 240.881C635.45 239.949 634.082 239.591 632.834 239.113C628.849 237.585 625.56 234.408 623.879 230.514C621.598 230.92 621.935 234.313 623.015 236.367C627.218 244.179 633.892 250.653 641.862 254.642C639.27 255.932 637.998 258.871 636.943 261.571C635.335 265.585 633.728 269.624 632.144 273.662C629.72 273.375 627.175 273.017 625.207 271.56C623.262 270.103 622.205 267.117 623.645 265.158C626.31 267.737 631.471 266.805 633.078 263.483C634.662 260.114 632.165 255.575 628.468 255.146C630.027 250.749 625.058 246.904 620.689 245.256C616.32 243.608 610.966 241.507 610.437 236.895C608.445 235.128 605.228 236.012 603.068 237.566C600.908 239.143 599.108 241.294 596.564 242.154C594.044 243.015 590.443 241.582 590.61 238.906C589.314 240.029 588.018 241.153 586.698 242.276C589.651 243.111 587.972 247.842 585.259 249.229C582.523 250.615 578.803 251.476 578.131 254.486C577.867 255.681 578.228 256.923 578.204 258.19C578.18 260.077 577.292 261.845 576.453 263.542C574.317 267.699 571.558 272.335 566.949 273.196C564.237 273.698 560.108 273.986 560.492 276.686C556.579 273.294 551.13 271.742 546.017 272.555C546.329 270.166 546.64 267.8 546.928 265.435C545.176 265.172 543.375 264.91 541.623 264.671C544.359 260.92 545.342 255.926 544.237 251.411C543.636 248.878 542.891 245.318 545.34 244.434C544.019 243.263 543.059 241.687 542.578 239.99C546.251 238.389 550.523 238.221 554.364 239.486C556.021 240.036 557.605 240.848 559.286 241.349C564.039 242.758 569.751 241.18 572.463 237.094C575.199 232.984 574.045 226.581 569.7 224.216C567.419 222.974 564.635 222.879 562.402 221.542C560.194 220.204 559.041 216.525 561.273 215.211C563.098 217.982 567.299 218.841 570.059 217.025C568.762 214.803 568.186 212.199 568.449 209.642C570.489 208.806 573.106 210.717 572.866 212.915C576.467 212.986 579.995 210.524 581.147 207.131C581.579 205.96 581.722 204.67 582.562 203.714C583.642 202.448 585.539 202.256 587.123 201.659C591.035 200.201 593.339 195.446 592.066 191.527C597.106 189.209 602.723 188.157 608.244 188.466C606.299 184.883 604.282 181.06 604.473 176.951C604.664 172.865 608 168.66 612.081 169.041C612.705 171.43 612.658 173.963 611.986 176.352C613.186 176.615 614.363 176.877 615.563 177.14C612.971 179.267 610.355 183.401 613.044 185.383C615.181 186.96 618.253 184.928 620.869 185.477C622.07 185.716 623.102 186.528 624.278 186.791C629.583 188.104 634.743 179.406 639.232 182.535C640.745 183.586 641.345 185.712 643.937 185.401C645.354 185.21 646.602 184.326 647.298 183.059C648.785 180.479 648.305 177.516 648.592 174.673C648.856 172.212 650.031 169.464 652.456 168.818C655.096 168.101 657.641 170.275 660.377 170.561C664.986 171.086 668.586 164.801 665.801 161.123C662.32 163.775 657.856 165.09 653.463 164.733C652.166 162.487 654.878 160.026 657.231 158.974C665.391 155.365 674.657 154.24 683.443 155.839C685.027 154.381 682.746 152.088 680.825 151.157C678.905 150.249 676.744 147.789 678.4 146.45C672.615 144.134 667.527 152.21 661.262 152.522C654.853 152.834 651.131 144.305 653.506 138.379C655.905 132.454 661.834 128.845 667.402 125.666C663.728 119.909 654.103 119.457 649.903 124.833C650.432 129.229 648.656 133.817 645.296 136.709C641.84 139.672 636.176 142.397 637.353 146.793C638.386 150.663 644.579 152.525 643.74 156.444C642.996 160.052 637.043 160.101 635.628 163.518C634.62 166.002 636.565 169.06 635.365 171.45C634.142 173.863 630.685 173.959 628.501 175.584C627.013 176.684 626.173 178.452 624.805 179.695C623.413 180.937 620.917 181.416 619.908 179.839C618.924 178.286 620.22 176.398 620.939 174.702C623.123 169.708 619.977 164.142 616.928 159.627C610.759 159.126 607.568 170.738 601.831 168.374C600.223 167.705 599.262 166.081 598.446 164.528C596.189 160.347 593.883 156.095 593.018 151.412C592.177 146.729 592.992 141.497 596.28 138.08C600.672 133.515 608.041 133.251 612.913 129.236C618.362 124.744 619.704 116.405 625.56 112.462C629.065 110.096 634.441 108.828 634.849 104.623C630.984 104.934 627.119 105.246 623.255 105.557C625.006 102.331 629.207 100.658 632.688 101.78C631.247 98.6985 634.823 95.353 638.255 94.8745C641.688 94.4199 645.265 95.3988 648.553 94.4186C651.241 93.6057 653.377 91.6223 655.97 90.4988C658.202 89.5427 660.674 89.3033 663.098 89.1834C665.835 89.0634 668.571 89.0629 671.308 89.1819C665.932 93.9374 662.285 100.652 663.846 107.437C666.248 117.854 679.836 126.596 674.869 136.058C679.55 135.006 684.447 133.977 689.08 135.147C691.576 135.744 694.001 137.225 695.634 139.184C695.394 141 696.882 142.72 697.747 144.416C697.771 144.655 697.771 144.87 697.747 145.133C697.675 145.993 697.507 146.805 697.219 147.594C693.187 147.451 683.729 145.518 688.267 152.087C690.283 149.697 691.219 151.226 693.547 150.987C694.508 150.891 695.42 149.888 695.059 148.98C695.587 149.004 696.115 149.027 696.644 149.051C695.804 150.843 694.676 152.564 693.884 154.356C690.549 161.859 692.975 170.459 693.265 178.654C693.385 182.859 692.426 187.542 690.338 191.174C690.843 191.079 691.347 190.959 691.851 190.887C701.188 189.309 711.87 191.648 717.585 199.173C723.275 206.603 721.381 219.529 712.596 223.067Z" fill="#D9E8FF"/>
<path d="M538.103 187.189C538.08 189.507 540.337 191.585 539.713 193.831C539.089 196.029 535.969 197.033 535.825 199.327C535.682 201.883 539.235 202.791 541.755 202.288C546.412 201.356 550.636 198.536 553.3 194.617C554.596 192.705 555.099 189.408 552.915 188.644C555.915 187.592 558.915 186.54 561.916 185.488C564.268 187.495 566.813 190.863 564.87 193.253C563.622 194.806 560.669 195.882 561.558 197.65C561.918 198.366 562.878 198.748 563.046 199.537C563.215 200.373 562.423 201.066 561.775 201.616C558.943 203.982 557.263 207.685 557.36 211.388C561.632 207.469 567.488 205.318 573.298 205.58C574.666 205.627 576.178 205.77 577.21 204.91C578.242 204.026 577.786 201.78 576.441 201.995C578.074 200.824 579.682 199.677 581.314 198.506C581.674 198.243 582.058 197.956 582.25 197.55C582.658 196.594 581.721 195.519 580.713 195.185C579.705 194.851 578.6 194.899 577.64 194.445C575.528 193.466 575.167 190.694 574.422 188.473C573.702 186.251 571.085 184.029 569.285 185.511C569.741 183.384 570.172 181.091 569.332 179.108C568.491 177.101 565.802 175.74 564.05 177.03C563.042 175.525 565.394 174.139 566.618 172.825C567.962 171.391 567.938 168.882 566.545 167.473C565.153 166.087 562.584 166.088 561.216 167.498C561.407 163.412 562.27 158.371 566.207 157.104C567.287 156.769 568.463 156.792 569.519 156.41C570.6 156.051 571.608 155.072 571.439 153.949C571.632 155.263 573.744 155.31 574.536 154.259C575.328 153.207 575.16 151.75 574.943 150.436C571.895 149.576 570.575 154.69 567.551 155.646C566.159 156.1 564.574 155.575 563.23 156.124C560.038 157.463 560.903 163.364 557.567 164.297C556.775 164.512 555.91 164.369 555.142 164.679C553.63 165.325 553.463 167.427 553.823 169.028C554.183 170.629 554.856 172.373 554.136 173.854C553.752 174.667 552.96 175.479 553.272 176.339C553.681 177.462 555.337 177.151 556.465 177.557C559.322 178.56 557.762 181.905 556.274 183.22C554.426 184.869 551.305 184.439 549.121 184.129C545.904 183.747 538.126 180.906 538.103 187.189Z" fill="#D9E8FF"/>
<path d="M609.506 253.644C609.121 253.333 608.737 252.999 608.353 252.688C609.553 252.402 610.369 251.159 610.441 249.917C610.513 248.674 609.985 247.48 609.288 246.476C608.448 245.258 607.007 244.087 605.614 244.589C603.814 245.211 603.79 247.72 604.391 249.512C604.991 251.303 605.832 253.382 604.752 254.911C605.424 254.744 606.168 254.959 606.649 255.46C604.056 257.133 603.433 262.414 607.274 262.723C611.116 263.033 611.859 258.135 607.994 257.228C608.042 256.989 609.554 253.692 609.506 253.644Z" fill="#D9E8FF"/>
<path d="M1044.73 294.967C1044.95 292.913 1045.16 290.5 1046.91 289.376C1047.47 290.81 1048.52 292.028 1049.84 292.816C1051.04 292.123 1051.69 290.809 1052.39 289.638C1053.08 288.443 1054.04 287.225 1055.39 287.009C1056.73 286.794 1058.29 288.299 1057.57 289.47C1061.12 290.855 1063.5 285.718 1066.79 283.782C1068.54 282.778 1070.63 282.682 1072.6 282.204C1074.54 281.702 1076.6 280.459 1076.89 278.476C1077.06 277.305 1076.56 276.158 1076.51 274.987C1076.44 272.479 1078.36 270.448 1079.58 268.249C1081.74 264.45 1081.83 259.552 1079.84 255.682C1078.76 253.58 1077.08 251.716 1076.55 249.423C1076.02 247.105 1077.37 244.095 1079.74 244.142C1080.39 246.149 1081.28 248.418 1083.27 249.159C1085.26 249.923 1087.93 247.39 1086.49 245.837C1088.72 245.215 1091.07 245.024 1093.38 245.238C1094.36 243.805 1094.12 241.702 1092.85 240.508C1100.15 237.974 1106.41 232.979 1111.23 226.957C1104.58 231.068 1097.94 235.179 1091.29 239.29C1090.5 239.768 1089.56 240.269 1088.7 239.959C1087.9 239.649 1087.52 238.789 1087.13 238.048C1085.33 234.703 1081.59 232.506 1077.77 232.578C1078.08 235.732 1078.4 238.91 1078.71 242.063C1076.45 241.658 1074.39 243.785 1073.86 246.007C1073.33 248.229 1073.86 250.57 1074.06 252.84C1074.73 260.867 1070.91 269.111 1064.36 273.843C1064.34 272.553 1064.31 271.239 1064.29 269.949C1060.83 270.451 1062.42 276.878 1059.3 278.479C1058.41 278.933 1057.38 278.838 1056.39 278.934C1051.5 279.436 1051.59 284.454 1046.31 282.448C1045.78 288.827 1037.65 287.706 1038.22 294.132C1038.71 299.58 1043.84 303.712 1044.73 294.967Z" fill="#D9E8FF"/>
<path d="M1087.56 193.943C1087.65 194.397 1087.73 194.874 1087.65 195.352C1087.51 196.236 1086.81 196.953 1086.57 197.813C1086.14 199.319 1087.1 200.872 1088.26 201.97C1089.38 203.045 1090.78 203.977 1091.5 205.362C1092.72 207.68 1091.86 210.882 1093.59 212.84C1093.03 214.178 1090.99 213.773 1089.82 212.937C1088.64 212.101 1087.18 211.002 1085.9 211.695C1084.39 213.846 1085.23 216.808 1086.43 219.149C1087.61 221.491 1089.15 223.879 1088.93 226.484C1088.81 227.702 1087.88 229.136 1086.68 228.85C1086.22 228.73 1085.84 228.396 1085.5 228.061C1083.87 226.509 1082.16 224.765 1081.85 222.543C1081.63 220.918 1082.21 219.317 1082.62 217.74C1083.46 214.491 1083.62 211.05 1083.1 207.729C1082.88 206.296 1082.52 204.886 1082.57 203.429C1082.66 200.753 1084.08 197.766 1082.52 195.592C1082.04 194.923 1081.24 194.159 1081.6 193.394C1082.28 192.032 1085.25 189.451 1086.31 188.376C1086.98 190.12 1087.22 192.055 1087.56 193.943Z" fill="#D9E8FF"/>
<path d="M917.988 420.21C920.173 421.811 922.909 422.981 924.206 425.37C925.191 427.209 925.191 429.623 926.728 431.08C927.544 431.844 928.696 432.202 929.513 432.967C931.457 434.758 931.026 437.864 931.962 440.325C933.283 443.813 937.365 445.867 938.133 449.522C938.398 450.765 938.254 452.103 938.782 453.273C939.815 455.471 942.792 455.925 944.448 457.716C945.265 458.6 945.721 459.747 946.417 460.702C948.41 463.45 952.539 464.381 955.515 462.756C954.459 461.131 953.858 459.22 953.81 457.308C953.786 456.162 953.954 455.015 953.713 453.892C953.185 451.192 950.592 449.305 949.871 446.629C951.095 445.745 952.68 447.035 953.592 448.229C954.505 449.424 956.017 450.785 957.289 449.973C954.984 446.963 952.343 444.216 949.438 441.779C949.678 442.878 948.19 443.667 947.134 443.285C946.078 442.903 945.453 441.852 944.901 440.896C944.493 440.155 944.061 439.367 944.133 438.531C944.204 437.838 944.612 437.217 944.732 436.524C944.996 435.066 943.94 433.705 942.763 432.845C941.563 431.985 940.17 431.388 939.138 430.337C937.073 428.259 936.712 424.627 934.12 423.242C932.871 422.573 931.383 422.573 930.111 421.952C926.221 419.97 925.452 414.236 921.011 412.469C914.745 409.961 913.402 416.842 917.988 420.21Z" fill="#D9E8FF"/>
<path d="M957.003 463.664C956.067 464.954 955.155 466.245 954.219 467.535C954.027 467.822 953.811 468.109 953.811 468.467C953.811 469.423 955.204 469.566 956.14 469.446C959.164 469.039 962.237 469.182 965.214 469.898C970.207 471.092 974.961 473.863 980.074 473.527C980.842 473.479 981.634 473.36 982.402 473.479C983.243 473.598 983.987 473.981 984.803 474.219C986.676 474.769 988.764 474.458 990.396 473.406C989.028 472.092 986.867 472.188 984.947 472.045C983.026 471.902 980.77 471.042 980.529 469.131C980.457 468.605 980.577 468.08 980.433 467.578C980.145 466.503 978.92 465.977 977.816 465.906C976.712 465.834 975.584 466.098 974.503 465.883C972.679 465.525 971.262 463.852 969.462 463.59C967.613 463.327 966.821 464.737 965.333 464.809C962.284 464.929 959.859 459.697 957.003 463.664Z" fill="#D9E8FF"/>
<path d="M1000.36 474.455C1001.96 474.478 1003.55 475.744 1005.04 475.195C1005.42 475.051 1005.76 474.812 1006.17 474.764C1006.67 474.716 1007.13 475.027 1007.58 475.218C1012 477.248 1017.06 471.465 1021.6 473.208C1020.55 477.485 1014.86 478.848 1012.62 482.648C1016.47 482.097 1020.11 480.138 1022.68 477.222C1023.38 476.434 1024.03 475.573 1024.91 475C1025.42 474.665 1025.99 474.474 1026.52 474.139C1027.72 473.374 1028.44 471.917 1028.35 470.507C1027.03 470.484 1025.71 470.794 1024.55 471.44C1023.69 471.918 1022.92 472.563 1021.96 472.778C1020.38 473.137 1018.82 472.229 1017.21 472.015C1013.82 471.537 1010.53 475.05 1007.46 474.477C1006.24 474.239 1005.61 472.877 1004.08 472.495C1002.83 472.185 1000.84 472.711 999.419 472.52C997.835 472.305 994.57 470.705 993.37 472.377C989.842 477.324 999.492 474.455 1000.36 474.455Z" fill="#D9E8FF"/>
<path d="M999.492 479.162C1000.16 478.397 1001.49 478.875 1002.16 479.64C1002.83 480.404 1003.26 481.408 1004.13 481.957C1004.99 482.483 1006.22 482.387 1006.98 481.694C1007.44 481.287 1007.7 480.618 1007.49 480.069C1007.25 479.495 1006.62 479.232 1006.05 479.041C1005.5 478.85 1004.92 478.659 1004.37 478.444C1003.38 478.11 1002.35 477.752 1001.32 477.895C1000.28 478.039 999.252 478.828 999.253 479.879" fill="#D9E8FF"/>
<path d="M971.93 449.493C970.082 449.685 967.633 449.852 966.913 448.132C966.481 447.129 966.961 445.982 966.984 444.883C967.032 443.091 965.879 441.514 965.039 439.937C963.574 437.142 963.07 433.893 963.573 430.787C963.693 429.999 963.909 429.186 964.461 428.613C964.821 428.254 965.277 428.015 965.709 427.776C967.437 426.868 969.165 425.96 970.893 425.075C973.15 423.904 975.43 422.709 977.542 421.299C982.846 417.762 987.19 412.816 989.974 407.105C990.934 406.077 992.734 407.033 993.383 408.299C994.031 409.565 994.2 411.07 995.184 412.073C996.721 413.602 1000.06 413.936 999.794 416.086C999.698 416.923 998.978 417.544 998.378 418.165C996.314 420.34 995.45 423.589 996.195 426.48C996.94 429.371 999.22 431.832 1002.08 432.763C999.461 433.002 996.1 434.03 996.101 436.634C996.101 438.283 997.566 440.003 996.654 441.389C995.718 442.823 993.197 442.154 992.069 443.445C991.181 444.496 991.734 446.073 991.926 447.435C992.407 450.851 989.743 454.364 986.334 454.89C984.894 455.105 983.213 454.723 982.493 453.457C982.109 452.788 982.061 452 981.749 451.307C980.5 448.512 978.604 450.185 976.755 450.161C975.459 450.137 973.659 449.302 971.93 449.493Z" fill="#D9E8FF"/>
<path d="M1022.86 429.461C1023.18 429.365 1023.46 429.246 1023.78 429.15C1023.13 428.72 1022.24 428.864 1021.59 429.318C1020.94 429.772 1020.51 430.417 1019.98 431.014C1018.18 433.022 1015.4 434.121 1012.71 433.883C1011.01 433.74 1009.33 433.095 1007.65 433.406C1005.61 433.789 1004.05 435.629 1003.45 437.612C1003.13 438.616 1003.42 440.145 1004.48 440.049C1005.05 438.257 1006.69 436.942 1008.49 436.369C1010.29 435.795 1012.23 435.89 1014.1 436.224C1015.57 436.487 1017.03 436.893 1018.5 436.701C1019.96 436.51 1021.47 435.506 1021.64 434.048C1021.76 432.997 1021.21 431.85 1021.66 430.871C1022.05 430.034 1023.18 429.293 1022.74 428.457C1022.26 428.577 1023.34 429.365 1022.86 429.461Z" fill="#D9E8FF"/>
<path d="M1000.3 453.096C1000.98 456.13 1002.39 459.284 1001.29 462.175C1002.51 462.724 1003.98 461.697 1004.39 460.43C1004.79 459.164 1004.48 457.778 1004.17 456.488C1003.86 455.198 1003.54 453.812 1004 452.546C1004.1 452.259 1004.29 451.948 1004.58 451.876C1004.72 451.852 1004.89 451.876 1005.03 451.924C1006.69 452.402 1007.82 453.954 1008.35 455.603C1008.87 457.228 1008.9 458.972 1009.14 460.668C1009.28 461.719 1009.57 462.89 1010.48 463.463C1011.95 464.443 1014.04 463.128 1014.59 461.456C1015.14 459.783 1014.68 457.967 1014.47 456.223C1014.13 453.81 1013.96 450.895 1011.8 449.701C1010.91 449.223 1009.69 449.008 1009.4 448.029C1009.06 446.882 1010.43 445.974 1011.58 445.639C1012.64 445.328 1013.72 445.113 1014.83 444.969C1016.12 444.802 1017.83 444.443 1017.95 443.153C1018.09 441.791 1016.36 441.122 1015.02 440.908C1013.41 440.645 1011.75 440.359 1010.12 440.574C1008.49 440.789 1006.86 441.554 1005.99 442.94C1005.8 443.227 1005.63 443.585 1005.32 443.705C1004.86 443.896 1004.36 443.562 1004.09 443.156C1003.83 442.749 1003.69 442.272 1003.4 441.889C999.869 437.565 1000.04 451.901 1000.3 453.096Z" fill="#D9E8FF"/>
<path d="M1029.59 450.055C1027.79 449.625 1025.89 449.673 1024.14 450.175C1023.83 450.271 1023.44 450.438 1023.42 450.773C1023.4 451.131 1023.8 451.346 1024.14 451.418C1025.85 451.871 1027.72 451.68 1029.28 450.891C1029.04 450.198 1028.13 449.84 1027.48 450.174" fill="#D9E8FF"/>
<path d="M1037.27 449.122C1036.38 448.668 1035.21 448.788 1034.44 449.433C1033.67 450.079 1033.33 451.202 1033.65 452.158C1035.45 452.611 1037.25 450.508 1038.95 451.201C1040.08 451.655 1040.63 453.184 1041.86 453.255C1042.89 453.303 1043.61 451.869 1042.96 451.081C1042.41 450.412 1041.35 450.412 1040.68 449.862C1039.45 448.859 1040.22 446.899 1041.04 445.561C1039.67 445.274 1038.66 446.852 1038.47 448.238C1038.4 448.835 1038.37 449.48 1038.11 450.03C1037.82 450.58 1037.15 450.986 1036.6 450.723" fill="#D9E8FF"/>
<path d="M1029.66 440.738C1029.63 441.24 1029.63 441.741 1029.85 442.195C1030.07 442.625 1030.62 442.96 1031.08 442.745C1031.41 442.601 1031.6 442.219 1031.72 441.884C1032.18 440.785 1032.66 439.495 1032.13 438.42C1031.89 437.942 1031.48 437.536 1031.29 437.034C1030.76 435.505 1032.61 434.693 1033.79 434.812C1033.5 432.877 1031.87 434.239 1031.87 432.16C1031.87 431.85 1035.49 430.463 1032.47 429.962C1028.55 429.27 1029.75 438.181 1029.66 440.738Z" fill="#D9E8FF"/>
<path d="M1045.98 438.344C1044.16 438.488 1042.16 438.44 1040.75 437.294C1039.4 438.417 1040.29 440.734 1041.78 441.666C1043.27 442.597 1045.12 442.764 1046.65 443.6C1048.19 444.436 1049.34 446.562 1048.24 447.901C1049.46 448.211 1050.71 448.545 1051.94 448.856C1052.22 450.002 1050.9 450.839 1049.92 451.484C1048.94 452.129 1048.12 453.754 1049.15 454.351C1049.63 455.379 1051.17 455.211 1052.18 454.661C1053.18 454.112 1054.24 453.347 1055.32 453.681C1056.02 453.896 1056.5 454.541 1057.03 455.043C1059.21 457.264 1062.52 457.789 1065.33 459.151C1068.12 460.512 1070.66 463.809 1069.15 466.533C1068.57 467.56 1067.54 468.229 1066.77 469.113C1066.01 469.998 1065.48 471.36 1066.15 472.315C1068.6 472.482 1071.12 471.693 1073.04 470.164C1075.01 472.266 1077.36 474.248 1080.19 474.845C1083.03 475.466 1086.41 474.294 1087.51 471.618C1087.73 471.093 1087.87 470.495 1088.33 470.137C1088.95 469.635 1089.87 469.802 1090.66 470.017C1093.04 470.685 1095.36 471.545 1097.62 472.596C1098.05 472.787 1098.51 473.026 1098.7 473.456C1098.99 474.077 1098.63 474.77 1098.53 475.463C1098.17 477.972 1101.29 479.404 1103.79 479.834C1107.18 480.431 1110.61 480.741 1114.07 480.764C1114.18 479.044 1112.31 477.873 1110.63 477.491C1108.95 477.109 1107.06 477.062 1105.76 475.915C1104.25 474.554 1104.1 472.093 1102.52 470.827C1101.32 469.871 1099.23 469.251 1099.54 467.745C1099.88 466.145 1102.68 466.359 1103.24 464.83C1103.57 463.874 1102.73 462.871 1101.8 462.513C1100.86 462.154 1099.8 462.226 1098.79 462.035C1096.3 461.558 1094.26 459.336 1094.02 456.852C1093.92 455.896 1094.04 454.892 1093.66 454.032C1093.08 452.718 1091.54 452.145 1090.15 451.692C1082.81 449.328 1075.46 446.988 1068.14 444.624C1067.08 444.289 1065.93 443.955 1064.9 444.314C1062.09 445.294 1062.28 450.335 1059.33 450.861C1057.82 451.148 1056.45 449.93 1055.39 448.807C1054.34 447.708 1052.82 446.156 1052.7 444.555C1052.61 443.456 1053.73 442.5 1053.64 441.52C1053.16 437.793 1048.86 438.129 1045.98 438.344Z" fill="#D9E8FF"/>
<path d="M1103.07 461.39C1103.28 461.701 1103.67 461.844 1104.05 461.964C1107.1 462.799 1110.48 462.464 1113.29 461.006C1114.2 460.552 1115.09 459.955 1116.1 459.859C1116.77 459.787 1117.45 459.93 1118.12 459.859C1118.79 459.787 1119.51 459.404 1119.63 458.759C1119.75 458.114 1119.27 457.373 1119.65 456.848C1120.06 456.298 1121.02 456.513 1121.48 455.987C1121.98 455.414 1121.38 454.554 1120.83 454.028C1118.57 451.902 1116.36 449.609 1113.94 447.674C1113.72 450.709 1115.96 454.22 1113.56 456.825C1112.16 458.307 1102.35 460.268 1103.07 461.39Z" fill="#D9E8FF"/>
<path d="M1133.15 470.871C1134.25 471.229 1135.43 471.396 1136.53 471.85C1137.61 472.28 1138.67 473.068 1138.98 474.191C1138.98 474.143 1138.98 474.095 1138.96 474.048C1138.57 471.061 1135.52 469.197 1132.81 467.788C1132.45 467.597 1132.09 467.406 1131.9 467.047C1131.78 466.809 1128.15 469.223 1133.15 470.871Z" fill="#D9E8FF"/>
<path d="M1165.01 528.756C1164.75 527.513 1164.29 526.271 1163.47 525.315C1162.66 524.335 1161.36 523.69 1160.11 523.858C1159.03 526.224 1160.91 528.924 1163.07 530.405C1164.58 531.432 1166.31 532.101 1168.04 532.698C1165.88 533.033 1165.37 530.38 1165.01 528.756Z" fill="#D9E8FF"/>
<path d="M1172.13 507.107C1173.14 509.544 1173.86 512.076 1174.3 514.657C1175.5 513.964 1175.83 512.148 1174.97 511.073C1175.83 511.837 1175.83 513.151 1176.05 514.274C1176.58 517.237 1178.93 519.817 1181.86 520.581C1182.32 519.697 1181.93 518.622 1181.31 517.857C1180.68 517.093 1179.82 516.567 1179.1 515.898C1177.75 514.632 1176.94 512.817 1176.86 510.977C1176.79 509.304 1177.1 507.202 1175.64 506.39C1175.38 507.106 1175.14 507.823 1174.87 508.54C1174.44 508.492 1174.18 508.086 1174.01 507.704C1173 505.291 1174.01 501.826 1171.73 500.083C1171.37 501.158 1170.69 502.257 1169.49 502.401C1169.47 504.145 1171.44 505.459 1172.13 507.107Z" fill="#D9E8FF"/>
<path d="M1142.75 471.633C1144.43 472.349 1146.59 472.086 1147.86 473.376C1149.11 474.666 1148.85 476.84 1149.9 478.273C1150.41 478.942 1151.15 479.396 1151.7 480.041C1152.25 480.686 1152.54 481.713 1151.99 482.335C1151.29 483.147 1149.88 482.646 1149.35 481.738C1148.82 480.83 1148.87 479.707 1148.75 478.656C1148.63 477.605 1148.17 476.458 1147.16 476.1C1146.2 475.765 1144.93 476.291 1144.24 475.527C1144.02 475.264 1143.92 474.93 1143.8 474.619C1142.82 472.039 1139.53 470.773 1138.95 468.169C1140.25 469.22 1141.07 470.94 1142.75 471.633Z" fill="#D9E8FF"/>
<path d="M1044.48 467.374C1042.79 468.808 1041.26 470.409 1039.94 472.178C1040.95 472.68 1042.27 472.416 1043.04 471.58C1043.78 470.744 1043.88 469.405 1043.27 468.45" fill="#D9E8FF"/>
<path d="M1055.66 460.372C1056.64 461.112 1057.56 462.164 1057.58 463.406C1057.6 464.649 1056.38 465.915 1055.2 465.509C1055.44 463.741 1055.66 461.973 1055.9 460.204" fill="#D9E8FF"/>
<path d="M1044.96 487.229C1044.09 485.413 1041.5 484.649 1039.77 485.701C1041.29 486.943 1041.43 489.499 1040.06 490.909C1039.37 491.626 1038.41 492.032 1037.61 492.654C1035 494.661 1034.88 499.153 1037.4 501.303C1036.18 501.924 1034.98 502.569 1033.75 503.191C1032.89 500.013 1030.44 497.29 1027.36 496.096C1023.16 498.725 1020.02 503.002 1018.8 507.781C1018.32 507.877 1017.81 507.948 1017.33 508.044C1017.12 509.454 1016.88 510.863 1016.66 512.297C1015.58 510.864 1015.15 508.952 1015.48 507.208C1012.94 507.71 1011.52 510.387 1010.83 512.871C1010.13 515.356 1009.73 518.104 1007.88 519.92C1006.53 521.259 1004.64 521.856 1002.84 522.406C1000.05 523.267 997.269 524.103 994.485 524.964C992.18 525.657 989.684 526.518 988.46 528.573C987.452 530.222 986.805 532.874 984.884 532.659C984.068 532.564 983.444 531.895 982.628 531.704C980.995 531.298 979.532 533.09 979.46 534.763C979.388 536.435 980.181 538.036 980.637 539.66C981.069 541.285 981.046 543.292 979.702 544.344C981.238 544.439 982.846 545.036 983.759 546.278C984.671 547.52 984.672 549.479 983.496 550.459C982.32 551.463 980.087 550.89 979.823 549.361C983.209 558.535 985.611 568.091 986.957 577.767C987.51 581.733 987.823 585.986 985.903 589.499C989.264 592.007 994.137 592.269 997.762 590.142C999.778 588.947 1001.39 587.083 1003.5 586.055C1007.17 584.262 1011.63 585.289 1015.57 584.117C1019.17 583.042 1022.08 580.15 1025.8 579.504C1028.58 579.026 1031.7 579.814 1034.13 578.404C1035.28 577.734 1036.12 576.635 1037.25 575.894C1038.49 575.058 1040.01 574.723 1041.49 574.651C1047.42 574.316 1053.5 578.376 1054.84 584.134C1055.18 585.567 1055.23 587.097 1055.8 588.458C1056.38 589.82 1057.68 591.062 1059.14 590.919C1059.5 586.403 1063.82 582.579 1068.36 582.722C1068.57 584.179 1067.52 585.517 1066.41 586.473C1065.31 587.429 1064.01 588.313 1063.44 589.675C1062.86 591.037 1063.51 593.02 1064.97 593.116C1065.72 591.706 1066.75 590.463 1067.97 589.459C1070.28 591.514 1069.2 596.03 1066.2 596.795C1069.08 595.958 1073.14 595.67 1074.12 598.49C1074.38 599.278 1074.31 600.162 1074.38 600.998C1074.82 605.37 1079.4 607.926 1083.41 609.717C1084.23 610.075 1085.12 610.458 1085.98 610.314C1087.49 610.051 1088.31 608.45 1089.2 607.207C1090.08 605.941 1091.88 604.842 1093.06 605.869C1094.07 606.753 1093.64 608.473 1094.45 609.524C1095.53 610.957 1097.93 610.192 1099.11 608.83C1100.29 607.468 1100.98 605.652 1102.52 604.672C1105.35 602.88 1110.51 604.289 1111.35 601.039C1111.81 599.271 1110.32 597.647 1109.84 595.902C1109.07 593.155 1110.87 590.359 1112.91 588.376C1114.95 586.392 1117.42 584.672 1118.62 582.091C1120.64 577.79 1118.52 572.678 1119.34 567.995C1120.15 563.288 1123.9 558.628 1121.93 554.28C1121.16 552.584 1119.6 551.294 1118.95 549.526C1118.33 547.83 1118.59 545.775 1117.41 544.389C1116.67 543.505 1115.52 543.099 1114.6 542.431C1111.51 540.209 1111.41 535.765 1110.23 532.158C1108.07 525.588 1101.88 521.288 1097.58 515.842C1096.79 514.838 1096.04 513.763 1095.71 512.521C1095.32 511.088 1095.49 509.558 1095.37 508.077C1095.08 504.469 1092.9 501.053 1089.73 499.286C1089.03 498.904 1088.29 498.569 1087.78 497.948C1087.09 497.064 1087.13 495.846 1087.09 494.723C1086.94 490.494 1085.26 486.337 1082.43 483.208C1080.56 492.478 1078.66 501.749 1076.79 511.019C1075.71 511.856 1074.37 512.358 1073 512.477C1072.45 510.112 1071.92 507.747 1071.37 505.382C1068.68 505.526 1065.87 505.622 1063.44 504.452C1061.04 503.281 1059.27 500.319 1060.35 497.882C1060.95 496.544 1062.27 495.062 1061.4 493.891C1063.8 494.799 1065.89 490.904 1064.14 489.041C1061.38 486.103 1058.33 490.356 1055.47 490.213C1051.94 489.927 1048.77 485.006 1044.96 487.229Z" fill="#D9E8FF"/>
<path d="M1095.99 631.72C1095.97 632.413 1095.95 633.249 1096.55 633.584C1096.79 633.727 1097.07 633.751 1097.34 633.775C1099.35 633.918 1101.92 633.654 1102.59 631.743C1103.15 630.214 1102.09 628.446 1102.67 626.941C1102.86 626.439 1103.19 626.009 1103.51 625.578C1104.25 624.455 1104.68 623.07 1104.32 621.779C1103.96 620.489 1102.64 619.438 1101.32 619.701C1100.6 619.845 1100 620.323 1099.28 620.514C1097 621.112 1090.47 616.263 1091.02 621.71C1091.19 623.407 1093.57 624.744 1094.43 626.154C1095.49 627.778 1096.07 629.761 1095.99 631.72Z" fill="#D9E8FF"/>
<path d="M1171.42 641.239C1169.9 641.741 1168.22 641.956 1166.98 642.912C1165.7 643.868 1165.13 646.019 1166.38 646.998C1167.34 647.762 1168.75 647.451 1169.93 647.833C1172.55 648.669 1172.79 652.205 1172.52 654.929C1174.35 655.717 1176.36 654.116 1177.37 652.396C1178.38 650.675 1179.08 648.62 1180.78 647.593C1181.88 646.899 1183.35 646.732 1184.16 645.728C1185.32 644.318 1184.55 642.192 1184.98 640.424C1186.06 635.98 1192.49 635.596 1194.2 631.247C1195.4 628.236 1197.58 622.334 1193.98 621.714C1185 620.163 1179.17 638.681 1171.42 641.239Z" fill="#D9E8FF"/>
<path d="M1199.55 624.818C1199.55 625.057 1199.55 625.296 1199.67 625.511C1199.98 626.013 1200.77 625.798 1201.23 625.439C1203.84 623.289 1202.26 618.725 1204.27 616.001C1204.94 615.093 1205.93 614.52 1206.82 613.827C1209.62 611.604 1211.38 608.068 1211.4 604.484C1210.1 605.177 1208.76 605.894 1207.3 606.109C1205.83 606.325 1204.2 605.895 1203.31 604.724C1202.23 603.267 1202.59 601.117 1201.58 599.636C1200.4 597.916 1197.86 597.677 1196.47 596.124C1195.17 594.715 1195.15 592.613 1194.86 590.725C1194.57 588.838 1193.59 586.688 1191.69 586.425C1187.92 590.726 1195.32 596.101 1196.28 599.78C1197.19 603.292 1195.36 604.272 1193.97 607.235C1192.51 610.317 1191.53 612.73 1194.45 615.119C1196.33 616.648 1197.89 614.306 1199.52 617.149C1200.46 618.75 1199.57 623.003 1199.55 624.818Z" fill="#D9E8FF"/>
<path d="M1002.71 367.608C1002.5 368.206 1002.3 368.827 1002.3 369.448C1002.35 371.622 1004.87 373.103 1005.04 375.277C1005.11 376.138 1004.8 376.998 1004.8 377.858C1004.8 378.718 1005.33 379.721 1006.22 379.721C1006.96 379.721 1007.49 379.028 1008.02 378.502C1008.55 377.977 1009.56 377.642 1009.96 378.263C1010.16 378.526 1010.13 378.908 1010.11 379.219C1009.87 381.536 1009.24 383.806 1008.24 385.933C1009.49 386.435 1010.95 385.622 1011.67 384.475C1012.39 383.328 1012.49 381.918 1012.58 380.58C1012.63 379.911 1012.68 379.218 1012.41 378.597C1012 377.665 1011 377.188 1010.35 376.423C1009.12 374.99 1009.24 372.839 1009.94 371.095C1010.63 369.351 1011.79 367.822 1012.48 366.077C1012.67 365.623 1012.82 365.145 1012.75 364.644C1012.67 364.142 1012.36 363.712 1012.15 363.258C1011.59 362.135 1011.54 360.845 1011.3 359.602C1009.17 348.827 1003.36 365.721 1002.71 367.608Z" fill="#D9E8FF"/>
<path d="M1023.38 384.377C1023.62 386.384 1022.78 388.462 1021.22 389.753C1020.86 390.04 1020.48 390.303 1020.26 390.709C1019.52 392.071 1021.25 393.361 1022.5 394.292C1026.39 397.23 1026.87 403.681 1023.44 407.147C1023.12 407.481 1022.76 407.792 1022.55 408.198C1022.36 408.604 1022.33 409.058 1022.31 409.512C1022.28 411.543 1022.64 413.598 1023.39 415.485C1021.37 416.489 1018.83 414.841 1018.06 412.715C1017.29 410.588 1017.72 408.247 1018.11 406.025C1018.25 405.188 1018.35 404.28 1017.89 403.588C1017.12 402.465 1015.27 402.704 1014.31 403.66C1013.35 404.64 1013.04 406.026 1012.66 407.34C1012.27 408.654 1011.72 410.016 1010.52 410.685C1009.61 406.146 1013.35 401.271 1017.96 400.912C1018.97 400.84 1020.05 400.935 1020.96 400.481C1021.87 400.027 1022.4 398.689 1021.66 397.996C1020.77 398.02 1020.43 396.849 1020.5 395.989C1020.58 395.105 1020.72 394.054 1020.02 393.528C1019.3 393.003 1018.22 393.552 1017.74 394.317C1017.26 395.082 1017.12 396.014 1016.64 396.778C1015.92 397.925 1014.48 398.571 1013.14 398.332C1013.06 396.325 1014.26 394.318 1016.06 393.433C1014.45 392.86 1012.8 391.953 1012.17 390.376C1011.55 388.799 1012.65 386.577 1014.33 386.696C1014.93 388.249 1015.53 389.802 1016.16 391.355C1017.48 392.167 1019.33 391.354 1020.1 390.016C1020.86 388.678 1020.79 387.029 1020.57 385.5C1022.3 386.384 1024.25 383.97 1023.55 382.179C1023.14 381.151 1022.21 380.435 1021.25 380.315C1022.33 381.366 1023.21 382.824 1023.38 384.377Z" fill="#D9E8FF"/>
<path d="M765.979 87.9698C767.155 87.1334 766.267 85.1266 764.898 84.6729C763.53 84.2192 762.066 84.6734 760.626 84.6976C759.185 84.7457 757.457 84.077 757.313 82.6435C757.264 82.2134 757.384 81.8072 757.528 81.401C758.536 79.0355 761.344 78.0793 763.192 76.287C766.072 73.4911 766.312 68.8798 768.832 65.7734C772.311 61.4721 778.913 61.2797 783.377 57.9817C784.769 56.9541 785.945 55.6159 787.409 54.6599C791.177 52.1744 796.074 52.5797 800.611 52.4594C806.54 52.291 812.445 51.0475 817.917 48.8006C816.766 54.2721 810.189 56.3281 804.741 57.691C801.068 58.6235 797.444 59.6754 793.867 60.8707C789.307 62.4007 784.746 64.2174 781.026 67.2285C777.306 70.2396 774.474 74.6841 774.403 79.4626C774.38 81.9713 777.381 87.3943 775.701 89.3537C773.733 91.6717 768.116 88.9251 765.979 87.9698Z" fill="#D9E8FF"/>
<path d="M904.615 24.0796C903.246 24.5099 901.878 24.9641 900.486 25.3945C901.759 27.3296 904.375 28.2848 906.584 27.6154C908.912 26.8982 911.168 24.6279 913.353 25.7027C913.929 26.7538 912.633 27.7815 911.577 28.3551C910.521 28.9287 909.417 30.267 910.281 31.103C910.497 31.2941 910.761 31.4136 911.05 31.4852C915.851 33.0134 921.3 31.7222 925.885 33.7761C927.326 34.421 928.718 35.4242 930.303 35.3522C931.887 35.2802 933.375 33.2969 932.271 32.1502C931.55 31.4097 930.11 31.386 929.822 30.4065C929.293 28.5907 933.59 27.8492 932.75 26.1769C929.653 26.273 926.532 26.3692 923.436 26.4653C922.379 26.4894 921.083 26.3941 920.627 25.4385C920.363 24.9129 920.458 24.22 920.122 23.7422C919.69 23.1688 918.826 23.169 918.082 23.2408C916.449 23.4084 914.793 23.5759 913.161 23.7435C916.761 23.3844 921.466 21.4721 925.067 20.6113C920.289 15.2363 906.486 15.884 904.615 24.0796Z" fill="#D9E8FF"/>
<path d="M947.992 31.931C947.919 29.9241 945.135 29.0406 943.31 29.9011C941.486 30.7616 940.382 32.6015 939.158 34.2025C937.67 36.1142 935.87 37.7392 934.094 39.3642C938.799 38.766 943.504 38.1439 948.209 37.5457C950.033 37.3064 952.217 36.7804 952.745 35.0601C950.921 33.818 948.784 33.0299 946.6 32.7914" fill="#D9E8FF"/>
<path d="M1071.35 60.2926C1071.95 59.9341 1072.51 59.4562 1073.18 59.2649C1075.87 58.4998 1078.15 62.4178 1080.86 61.7961C1082.01 61.5331 1082.83 60.4816 1083.91 60.0752C1086.48 59.0951 1089.36 61.7706 1091.81 60.1215C1095 57.9706 1093.63 56.1072 1091.11 55.128C1088.8 54.2444 1085.23 55.1769 1082.64 54.4367C1080.71 53.8876 1079.06 52.8366 1077.23 52.0485C1072.96 50.2334 1066.17 47.1764 1063.26 52.6723C1060.67 57.6425 1066.48 63.2085 1071.35 60.2926Z" fill="#D9E8FF"/>
<path d="M1109.35 58.9468C1107.45 57.3941 1105.25 56.2238 1102.89 55.5075C1102.56 55.412 1102.22 55.3165 1101.86 55.3166C1100.61 55.3646 1099.82 56.9177 1100.23 58.1123C1100.64 59.2829 1101.86 60.0472 1103.09 60.262C1104.31 60.5007 1105.58 60.3332 1106.83 60.2374C1109.47 60.0458 1112.11 60.2603 1114.68 60.8571C1115.16 59.2085 1113.55 57.5602 1111.85 57.3455C1110.14 57.1308 1108.49 57.8718 1106.93 58.5888" fill="#D9E8FF"/>
<path d="M1085.18 68.4853C1083.72 67.7926 1082.16 67.315 1080.57 67.0524C1079.73 66.9092 1078.48 67.2679 1078.68 68.1042C1078.77 68.4626 1079.11 68.6776 1079.44 68.8448C1081.63 70.0392 1083.96 70.9468 1086.36 71.6155C1087.46 71.9259 1089 71.9495 1089.38 70.8502C1089.65 70.0855 1089.1 69.297 1088.47 68.7953C1086.96 67.553 1084.8 67.1233 1082.93 67.6733" fill="#D9E8FF"/>
<path d="M617.624 34.288C619.665 35.4822 622.161 35.7207 624.274 36.7955C626.747 38.0613 628.572 40.4979 629.052 43.2216C629.341 44.894 629.197 46.7337 630.133 48.1432C631.478 50.1976 634.719 50.3404 636.687 48.8587C638.655 47.377 639.47 44.7726 639.47 42.3117C639.47 40.3764 639.133 38.1306 640.501 36.7924C641.101 36.2189 641.917 35.932 642.709 35.669C644.246 35.1431 645.878 34.665 647.486 34.9275C649.095 35.19 650.631 36.5038 650.607 38.1285C650.56 40.0876 648.376 41.9039 649.24 43.6478C652.337 43.5995 655.457 43.5511 658.554 43.5266C659.634 42.4513 658.866 40.4922 657.593 39.6562C656.321 38.7964 654.736 38.6294 653.344 38.0085C651.952 37.3875 650.631 35.9782 651.015 34.5207C651.591 32.2986 654.759 32.5847 657.064 32.6559C663.209 32.8698 668.873 27.1107 668.512 21.0182C663.063 20.183 660.375 26.1327 655.838 27.6866C652.094 28.9774 650.053 26.8036 646.621 27.1149C642.972 27.4501 642.108 29.7678 639.3 30.4373C634.931 31.4894 631.762 29.3158 627.225 28.7193C623.72 28.2182 608.357 28.8662 617.624 34.288Z" fill="#D9E8FF"/>
<path d="M562.674 8.37496C559.219 14.3487 553.339 18.9132 546.666 20.7781C543.522 21.6627 540.017 22.0695 537.641 24.3158C536.177 25.7019 535.337 27.6134 534.546 29.4772C532.986 33.133 531.403 36.8844 531.331 40.8505C531.236 44.8166 533.013 49.093 536.59 50.8126C531.598 53.2744 531.095 61.4935 535.777 64.5269C533.881 69.2579 525.887 66.6074 522.119 70.0725C519.191 72.749 520.32 77.575 522.097 81.1346C523.85 84.6943 526.107 88.6599 524.668 92.3635C519.315 90.2859 513.961 88.2083 508.584 86.1307C506.568 90.4794 512.378 95.878 516.603 93.5596C512.547 100.824 501.745 99.3922 494.137 102.834C486.024 106.491 481.657 115.929 473.472 119.395C469.44 121.092 464.855 121.189 460.823 122.91C456.79 124.655 453.335 129.267 455.232 133.209C455.616 133.997 456.192 134.761 456.072 135.622C455.977 136.529 455.161 137.151 454.465 137.724C447.888 143.316 447.818 153.232 448.276 161.833C445.924 163.577 442.611 161.213 441.314 158.585C440.017 155.957 439.345 152.755 436.872 151.203C434.399 149.65 431.087 150.392 428.398 149.293C425.926 148.29 424.365 145.901 422.924 143.679C420.259 139.475 417.57 135.27 414.904 131.066C412.647 127.53 410.342 123.851 409.717 119.718C409.093 115.585 410.58 110.806 414.324 108.894C416.964 107.532 421.237 105.476 419.34 103.207C418.908 102.705 418.26 102.466 417.636 102.227C412.786 100.508 407.961 98.8125 403.112 97.0932C405.007 91.287 411.752 87.5347 417.705 88.991C419.889 85.5023 414.823 81.6805 410.694 81.7529C406.566 81.8254 401.957 83.3076 398.596 80.919C401.716 76.5939 401.547 70.4536 399.025 65.7473C396.504 61.041 391.991 57.6491 387.093 55.4997C384.909 54.5445 382.58 53.8042 380.204 53.7569C376.435 53.7098 372.811 55.4308 369.042 55.4554C363.713 55.4803 358.84 52.0407 355.767 47.6929C352.693 43.3451 351.132 38.1368 349.619 33.048C353.916 35.4126 359.581 35.5549 363.589 32.7109C367.597 29.867 369.228 23.8936 366.611 19.7368C372.036 18.5173 377.485 17.3217 382.909 16.1022C384.277 15.7913 385.694 15.4804 386.87 14.7157C388.382 13.7597 389.414 12.1826 390.782 11.0355C393.422 8.83691 397.07 8.35838 400.503 7.97546C409.672 6.97025 418.841 5.94116 428.011 4.93596C429.763 4.74449 431.587 4.55301 433.292 5.00664C437.805 6.2004 441.886 11.6471 445.943 9.32875C446.11 7.56069 445.582 5.74499 444.478 4.33555C449.638 1.96924 455.591 2.68489 461.28 2.77938C472.73 2.94447 484.036 0.314194 495.485 0.144791C506.719 -0.0245719 517.954 2.21918 528.252 6.6851C524.82 9.05108 520.884 10.7243 516.779 11.5374C519.468 11.3696 522.18 11.8231 524.653 12.8739C522.684 12.038 513.78 19.0401 512.364 20.3067C517.214 24.0569 527.87 16.2899 532.886 13.9236C542.391 9.40615 552.064 6.82396 562.674 8.37496Z" fill="#D9E8FF"/>
<path d="M545.487 130.109C542.919 131.161 540.519 132.595 538.407 134.387C536.439 136.036 534.255 138.139 531.734 137.614C529.165 137.113 527.965 134.27 526.836 131.928C525.707 129.587 523.426 127.055 520.954 127.892C522.298 126.291 523.642 124.666 524.986 123.065C521.793 122.611 518.577 122.134 515.384 121.681C514.592 121.561 513.751 121.418 513.247 120.821C512.047 119.436 513.847 117.357 515.599 116.831C519.583 115.659 523.977 117.45 526.954 120.293C528.202 121.487 529.787 123.016 531.395 122.347C532.451 121.893 532.907 120.674 533.603 119.79C535.307 117.639 538.476 117.352 541.212 117.662C545.845 118.187 555.062 114.816 556.864 120.335C558.905 126.499 549.208 128.579 545.487 130.109Z" fill="#D9E8FF"/>
<path d="M147.131 87.7753C135.034 92.795 122.481 97.7908 109.398 97.626C103.71 97.5554 98.0924 96.5052 92.5233 95.4789C80.3768 93.2114 68.1103 90.92 56.8275 85.9526C53.8027 84.6152 50.7779 83.0866 47.4893 82.8961C43.8167 82.6818 40.2643 84.1638 36.9521 85.7891C26.9434 90.7367 17.7751 97.3566 9.95128 105.314C18.0889 106.579 25.651 111.165 30.5251 117.782C26.6848 119.646 21.4996 117.927 19.5306 114.152C14.3694 112.672 8.34519 116.735 7.84211 122.063C7.33904 127.391 12.4529 132.503 17.8057 132.024C19.7015 129.515 22.6297 127.818 25.7741 127.412C27.2388 129.872 28.7276 132.357 30.1923 134.817C27.6244 137.9 23.1117 138.235 19.1752 139.12C15.2387 140.005 10.8225 142.753 11.2794 146.743C12.0247 153.385 24.843 153.932 24.2922 160.598C24.4838 158.328 50.9599 156.579 38.1446 171.706C36.1287 174.071 33.1286 175.792 30.032 175.53C30.8966 177.967 30.7051 180.977 28.7851 182.698C26.8651 184.418 23.0964 183.798 22.4958 181.289C20.4323 185.662 14.7915 186.69 9.96683 187.169C9.3911 189.105 8.81537 191.016 8.26364 192.951C7.87912 190.538 4.68631 189.129 2.5982 190.396C0.510095 191.663 0.318708 195.103 2.21532 196.632C3.96788 198.065 6.56026 197.706 8.79256 197.3C9.63267 197.132 10.5928 196.893 10.9527 196.129C11.1686 195.651 11.0965 195.101 11.1204 194.599C11.192 192.067 13.424 190.059 15.8002 189.151C18.1764 188.243 20.7928 188.147 23.2651 187.573C27.3696 186.616 31.0658 184.394 34.3299 181.765C37.9059 178.897 41.0978 175.528 45.1541 173.377C46.7142 172.564 48.3704 171.943 49.8585 171.01C60.827 164.223 53.8396 152.493 70.0659 150.483C70.3064 152.729 68.7466 155.023 66.5864 155.668C71.796 159.49 77.4826 147.447 83.58 149.597C85.3084 150.194 86.4129 151.842 87.8774 152.893C90.6142 154.852 94.2868 154.731 97.6474 155.018C111.066 156.162 123.286 166.051 127.153 178.88C133.01 177.159 137.908 183.394 140.813 188.745C145.64 197.585 150.466 206.4 155.269 215.239C158.318 220.853 161.416 226.515 163.001 232.703C165.283 241.543 164.373 250.933 166.487 259.82C168.601 268.708 175.492 277.738 184.637 277.473C186.128 291.378 190.211 305.02 196.647 317.443C193.527 320.597 198.545 325.303 202.842 326.544C207.139 327.786 212.78 330.939 210.909 334.977C215.972 329.385 209.514 320.928 203.368 316.557C197.222 312.186 189.995 304.948 193.835 298.449C195.923 296.346 199.62 298.806 200.605 301.601C201.589 304.396 201.494 307.717 203.487 309.939C205.215 311.874 208.048 312.375 210.28 313.689C218.419 318.49 216.717 332.18 224.591 337.387C227.472 339.298 231.265 339.728 233.738 342.116C235.538 343.836 236.355 346.273 237.532 348.447C241.662 356.14 249.992 360.51 257.842 364.403C260.123 365.55 262.427 366.672 264.708 367.819C277.815 374.339 290.923 380.883 304.03 387.403C305.278 388.024 306.743 388.669 308.063 388.143C313.44 386.015 302.444 376.484 307.028 372.947C300.594 369.867 294.161 366.762 287.727 363.681C291.735 360.12 292.262 353.311 288.852 349.154C291.229 348.604 293.197 346.597 293.7 344.231C290.867 341.293 285.683 343.731 283.475 347.148C281.267 350.589 280.38 354.89 277.428 357.686C270.708 364.019 258.825 357.307 256.231 348.467C253.637 339.628 256.611 330.261 257.594 321.087C258.001 317.383 258.312 313.178 261.24 310.884C267.961 305.626 277.876 316.687 285.701 313.245C288.701 311.93 290.453 308.752 293.261 307.103C298.109 304.235 304.711 306.886 308.096 311.401C311.458 315.916 312.395 321.698 313.26 327.264C314.845 329.868 319.261 327 319.021 323.966C318.78 320.932 316.259 318.662 314.602 316.106C310.376 309.585 312.295 299.884 318.679 295.439C324.367 291.495 333.705 289.941 334.087 283.06C334.327 278.616 330.077 274.961 329.908 270.517C329.764 266.599 332.739 263.325 335.523 260.553C343.395 252.691 351.243 244.829 359.115 236.967C360.963 235.127 363.195 233.143 365.787 233.429C368.38 233.716 369.845 237.992 367.373 238.853C376.638 239.209 389.072 236.985 389.814 227.762C386.07 231.036 381.63 233.498 376.877 234.956C376.373 230.584 377.668 226.021 380.404 222.532C376.946 216.607 368.688 214.984 362.112 217.016C355.535 219.048 350.279 223.875 345.263 228.559C352.823 219.694 362.903 212.261 374.52 210.921C378.889 210.419 383.57 210.704 387.362 208.506C392.642 205.446 397.322 197.704 402.651 200.714C398.764 207.5 394.877 214.31 390.989 221.096C395.19 220.785 399.39 220.473 403.567 220.162C405.272 223.053 406.113 226.445 405.921 229.814C411.058 229.455 418.115 226.085 415.833 221.498C414.657 219.156 411.632 218.584 409.616 216.935C404.07 212.397 408.389 203.102 405.603 196.508C404.21 193.211 401.161 190.966 398.4 188.697C386.588 179.07 377.344 166.362 371.797 152.218C370.453 155.587 368.966 159.124 366.038 161.275C363.11 163.425 358.309 163.474 356.388 160.392C355.331 158.696 355.403 156.57 354.851 154.682C353.601 150.358 349.448 147.611 345.607 145.271C340.926 142.404 335.428 139.443 330.244 141.236C325.059 143.029 323.861 152.299 329.286 153.158C324.245 153.35 324.415 161.139 327.296 165.272C330.177 169.405 334.211 174.541 331.451 178.746C329.003 182.474 322.81 182.117 320.339 185.844C317.963 189.429 320.556 194.063 322.357 197.957C324.158 201.852 324.111 207.992 319.887 208.829C316.262 209.546 313.645 205.366 312.972 201.758C311.915 196.072 312.658 189.931 309.993 184.795C307.327 179.659 298.781 177.247 296.094 182.361C294.629 177.152 290.379 172.781 285.17 171.181C280.945 169.868 276.24 170.275 272.231 168.412C266.23 165.618 263.54 158.761 261.402 152.526C269.227 148.056 277.579 143.038 281.082 134.77C282.018 132.548 282.642 130.039 284.418 128.39C286.026 126.909 288.282 126.383 290.058 125.116C291.834 123.849 292.962 121.054 291.377 119.573C293.681 118.163 296.49 117.636 299.154 118.066C303.716 124.205 289.748 134.673 296.326 138.614C299.855 140.74 303.694 136.367 305.518 132.687C308.375 133.833 311.231 134.979 314.112 136.126C317.808 133.139 313.462 127.429 309.237 125.28C305.012 123.106 299.659 119.213 301.77 114.983C305.563 114.911 309.331 114.839 313.124 114.766C313.363 111.158 310.962 107.551 307.553 106.381C309.497 103.394 311.441 100.407 313.385 97.4204C311.608 95.4855 308.751 94.602 306.183 95.2476C313.84 94.1232 321.329 91.7803 328.265 88.3624C333.932 94.8123 339.286 101.549 344.256 108.548C345.048 109.671 345.889 110.913 345.841 112.275C345.77 115.286 342.121 116.553 339.505 118.035C336.865 119.492 335.281 124.152 338.21 124.892C337.802 127.114 334.466 127.091 332.569 125.849C330.673 124.607 328.944 122.624 326.688 122.768C322.415 123.007 323.113 130.533 327.218 131.799C331.322 133.064 335.499 130.435 338.979 127.926C346.973 135.116 356.528 140.586 366.778 143.881C362.65 143.022 359.624 138.554 360.392 134.421C365.193 135.806 369.778 137.955 373.883 140.797C377.363 136.568 372.897 130.428 368.336 127.419C363.774 124.385 358.037 120.635 358.756 115.212C364.757 115.067 370.71 118.459 373.592 123.691C375.872 120.465 378.127 117.263 380.407 114.037C377.837 105.579 361.443 108.163 359.713 99.4903C359.376 97.8179 359.712 95.9065 358.656 94.5448C357.023 92.4426 353.735 93.4706 351.07 93.3994C341.757 93.1144 336.089 77.5616 327.496 81.1471C331.095 74.4327 320.868 65.9529 314.892 70.6846C318.181 71.9025 321.758 73.5982 322.958 76.8712C324.159 80.1442 320.655 84.6367 317.607 82.917C314.51 81.1973 315.997 76.323 314.292 73.2173C312.227 69.4427 305.962 70.2085 303.467 73.6972C300.947 77.186 301.26 81.9405 302.269 86.1214C300.204 86.074 298.116 86.0266 296.052 85.9792C295.594 80.1257 296.745 74.1763 299.313 68.8957C296.888 65.2884 291.344 68.7538 288.68 72.1948C285.872 75.803 282.968 79.6025 282.081 84.0944C281.194 88.5863 283.043 93.9617 287.34 95.5617C290.101 96.5885 293.269 95.9428 296.03 97.0175C302.295 99.4772 299.825 111.113 293.104 110.852C291.015 107.459 289.814 103.517 289.597 99.5513C286.357 100.508 283.333 102.181 280.813 104.427C277.522 96.352 272.936 88.779 267.294 82.0902C268.638 79.5096 269.981 76.929 271.325 74.3484C276.727 76.6888 283.639 70.9294 282.293 65.2433C277.804 64.0018 273.075 62.7364 268.539 63.7646C264.002 64.7928 259.778 68.927 260.427 73.5142C260.812 76.2617 262.781 78.555 263.501 81.2547C264.222 83.9305 262.614 87.7058 259.854 87.2523C258.415 93.7752 272.313 93.9398 272.938 100.606C273.371 105.288 267.011 107.106 262.306 107.059C263.675 111.55 263.46 116.52 261.708 120.892C258.179 114.299 260.097 105.267 266.049 100.679C262.496 95.2319 254.238 93.5132 248.79 97.0742C250.831 100.18 254.072 102.497 257.672 103.428C255.777 105.626 253.857 107.825 251.961 110.023C247.832 107.061 242.167 109.38 237.102 109.691C232.013 109.979 225.843 104.413 229.443 100.805C226.394 98.9659 222.242 98.3454 219.337 100.401C216.433 102.48 216.194 107.736 219.435 109.217C212.69 110.938 201.502 98.5883 196.631 108.051C193.581 98.4225 188.659 95.5564 178.986 95.0565C172.553 94.7232 153.516 89.9961 150.229 95.3725C149.701 94.608 147.011 87.8231 147.131 87.7753Z" fill="#D9E8FF"/>
<path d="M173.595 283.522C175.12 284.527 177.293 284.654 178.314 286.15C179.312 287.642 178.664 289.735 179.447 291.334C179.823 292.082 180.474 292.661 180.903 293.395C181.331 294.128 181.431 295.19 180.776 295.703C179.946 296.378 178.642 295.631 178.285 294.644C177.927 293.656 178.175 292.56 178.245 291.504C178.315 290.448 178.071 289.238 177.143 288.706C176.258 288.205 174.912 288.496 174.363 287.619C174.198 287.322 174.163 286.976 174.101 286.649C173.593 283.934 170.583 282.101 170.482 279.436C171.569 280.702 172.065 282.54 173.595 283.522Z" fill="#D9E8FF"/>
<path d="M179.654 298.876C179.086 298.045 177.878 297.974 177.03 297.415C176.805 297.285 177.124 298.52 177.311 299.154C177.346 299.335 177.365 299.528 177.457 299.693C177.762 300.18 177.523 300.691 178.015 300.969C178.015 301.191 179.097 302.814 179.638 303.598C179.836 304.147 180.561 304.562 181.023 304.187C181.387 303.902 181.331 303.311 181.093 302.904C180.855 302.496 180.493 302.174 180.284 301.758C179.848 300.869 180.208 299.706 179.654 298.876Z" fill="#D9E8FF"/>
<path d="M164.987 62.518C161.338 62.901 159.298 66.9869 158.819 70.6186C158.364 74.2504 158.7 78.1448 156.901 81.3467C156.469 82.1352 155.893 82.876 155.749 83.7839C155.341 86.3405 158.678 87.9645 161.223 87.5579C168.688 86.3618 173.391 76.2067 180.832 77.4716C180.905 79.4547 180.977 81.4616 181.05 83.4446C185.971 83.4915 190.867 82.7738 195.572 81.3394C197.012 82.2709 196.197 84.6842 194.685 85.4251C193.148 86.1661 191.348 85.9275 189.644 86.0712C187.939 86.2387 186.019 87.147 185.828 88.8195C189.116 87.8632 192.524 86.9069 195.885 87.5513C199.246 88.1958 202.439 90.9667 202.344 94.3594C197.591 94.1453 192.814 94.3134 188.085 94.8877C190.678 97.9693 195.407 97.6101 199.416 98.0394C203.425 98.4687 208.202 101.669 206.787 105.445C212.235 99.7333 221.308 97.8202 228.606 100.829C230.43 101.593 232.159 102.62 234.103 103.002C236.048 103.384 238.328 102.954 239.408 101.305C240.488 99.6563 239.407 96.8611 237.439 96.9332C240.007 96.5743 242.239 94.543 242.839 92.0581C238.446 93.4925 233.141 91.0564 231.364 86.804C229.755 82.9576 230.714 77.9878 227.809 74.9541C230.329 75.7181 232.825 72.7311 232.225 70.1748C231.624 67.6184 228.863 66.042 226.223 65.9709C224.494 65.9234 222.646 66.4971 221.614 67.8831C220.582 69.269 220.775 71.5627 222.287 72.4225C220.271 71.4433 218.23 70.4641 216.214 69.4849C215.398 74.4307 225.169 77.3677 222.865 81.8359C221.401 84.6794 216.432 82.8884 215.855 79.7587C215.471 77.704 215.951 74.9563 214.054 74.0249C210.429 72.2814 207.79 81.122 204.333 79.0918C204.549 77.1087 204.764 75.1256 204.98 73.1425C200.515 72.785 195.931 74.3866 192.667 77.4455C193.074 75.534 193.482 73.5986 193.89 71.6872C189.04 69.0122 184.241 78.4983 179.032 76.6835C184.073 78.4028 195.33 68.6287 186.471 64.497C184.358 63.4939 179.918 65.0478 177.565 64.881C173.461 64.6189 169.139 62.0872 164.987 62.518Z" fill="#D9E8FF"/>
<path d="M186.971 42.0145C183.538 40.2949 179.361 42.1593 176.433 44.6447C173.529 47.1301 171.105 50.3322 167.625 51.9337C165.968 52.6986 164.024 53.1768 163.016 54.6583C168.801 54.5856 174.562 54.1783 180.3 53.4843C179.988 55.4197 179.004 57.2596 177.564 58.5979C180.253 59.577 182.485 56.2077 182.868 53.3883C182.988 52.5042 183.084 51.5246 183.78 50.9749C184.356 50.5447 185.124 50.5446 185.82 50.425C188.245 50.0423 190.405 47.7242 190.092 45.3111C189.804 42.8741 186.587 41.1544 184.594 42.6123" fill="#D9E8FF"/>
<path d="M205.024 58.0425C205.744 57.6601 206.128 56.776 205.912 56.0115C202.311 56.1317 198.902 53.1697 198.518 49.6098C196.477 48.32 193.357 49.324 192.469 51.5701C191.581 53.8161 193.19 56.6829 195.566 57.1125C192.086 58.5945 188.606 60.0765 185.125 61.5584C191.775 65.1171 199.671 57.3507 207.041 58.9023C207.041 59.7863 207.041 60.6703 207.041 61.5782C203.849 61.6266 200.704 63.0846 198.641 65.4981C204.138 65.9749 209.802 64.612 214.459 61.6724C215.779 60.8359 217.075 59.8561 218.635 59.6407C220.003 59.4493 221.348 59.8792 222.716 60.07C225.933 60.5234 230.013 58.7068 229.892 55.4814C227.732 54.765 225.403 54.4787 223.123 54.6703C222.426 50.4654 217.169 47.7666 213.304 49.607C213.377 52.4979 214.722 55.3409 216.93 57.2041C214.746 59.1159 211.338 59.451 208.817 58.0179C207.617 57.3492 206.512 56.2742 205.144 56.2745C203.656 56.2748 201.736 57.3264 200.991 56.0602" fill="#D9E8FF"/>
<path d="M209.173 37.0885C203.748 36.4444 198.155 37.3773 193.235 39.7197C195.899 40.9139 198.54 42.108 201.205 43.3022C201.805 43.5649 202.429 43.8515 203.101 43.8513C203.677 43.8512 204.253 43.6122 204.781 43.3732C207.35 42.2736 209.894 41.174 212.462 40.0745C212.03 39.4295 211.574 38.7844 211.142 38.1394C212.294 38.9038 214.022 37.7805 214.094 36.4186C214.166 35.0567 213.013 33.8383 211.693 33.4324C210.373 33.0265 208.956 33.2418 207.612 33.5766C206.052 33.9352 204.516 34.4373 203.028 35.0588C203.796 36.6833 205.357 37.9255 207.109 38.3552C207.133 39.0003 207.157 39.6454 207.205 40.2905" fill="#D9E8FF"/>
<path d="M247.052 37.8937C245.876 37.9417 245.179 36.556 245.107 35.3853C245.059 34.2145 245.299 32.9482 244.722 31.9209C243.282 29.4124 239.417 31.2768 236.561 30.7995C234.856 30.5369 233.464 29.3426 231.831 28.7456C230.199 28.1485 227.918 28.4835 227.463 30.1322C226.935 31.972 229.216 33.4768 231.136 33.5004C233.056 33.5478 235.049 32.8545 236.897 33.4515C237.233 33.5709 237.569 33.7381 237.809 34.0248C239.178 35.8404 234.281 37.1554 234.738 39.3774C234.954 40.4764 236.322 40.8106 237.451 40.9299C239.107 41.0968 240.739 41.2876 242.396 41.4546C244.1 41.6454 246.02 41.7645 247.388 40.7369C248.757 39.7092 248.804 37.0332 247.124 36.6273" fill="#D9E8FF"/>
<path d="M255.793 55.2138C256.753 54.0907 256.177 52.2271 254.952 51.3672C253.752 50.5073 252.168 50.412 250.703 50.3884C246.382 50.3653 242.062 50.9157 237.885 52.0394C236.589 52.3742 235.244 52.7806 233.948 52.518C232.652 52.2316 231.427 50.9894 231.715 49.6991C229.939 51.7064 232.076 55.0271 234.669 55.7195C237.262 56.412 240.022 55.623 242.711 55.7658C245.399 55.9087 248.472 57.7478 248.185 60.4C248.113 61.0451 247.873 61.7142 248.137 62.2876C248.449 62.9804 249.337 63.1953 250.106 63.1473C253.682 62.9794 256.418 58.7976 255.121 55.4768C254.257 55.6203 253.345 55.1187 252.984 54.3303C254.545 53.7088 255.769 52.2989 256.152 50.6741C253.248 49.5756 249.839 49.839 247.127 51.3687" fill="#D9E8FF"/>
<path d="M254.283 69.9319C255.771 68.8564 254.786 66.2045 253.034 65.7031C251.282 65.1778 249.409 66.11 247.969 67.2332C247.874 68.7385 247.778 70.2438 247.682 71.749C245.93 71.391 244.057 71.7497 242.569 72.7296C245.138 73.422 247.251 75.5958 247.851 78.1761C245.403 79.8491 241.514 78.6791 240.41 75.9316C239.905 74.6654 239.713 72.9451 238.393 72.5153C236.544 71.9184 235.44 74.8574 236.305 76.6014C238.562 81.2123 245.475 80.9243 249.341 84.3402C250.733 85.5585 252.822 87.3262 253.998 85.8924C254.934 84.7454 253.709 83.1448 252.581 82.1893C253.949 82.3563 255.39 82.4754 256.638 81.8779C257.886 81.2803 258.726 79.7032 258.053 78.5087C257.693 77.8876 257.045 77.5054 256.493 77.0755C254.452 75.4272 253.707 72.3691 254.763 70.0035C254.019 69.693 253.299 69.3825 252.555 69.0721" fill="#D9E8FF"/>
<path d="M321.924 57.6874C317.267 54.8929 311.458 54.0338 306.177 55.3489C302.36 56.3053 298.784 58.3368 294.872 58.6004C289.135 59.0076 283.637 55.4248 280.516 50.6231C284.86 47.6596 291.222 53.4642 295.806 50.883C297.126 50.1421 298.038 48.78 299.43 48.1586C300.847 47.5371 302.479 47.7996 304.015 48.0622C311.361 49.3749 318.682 50.6637 326.028 51.9764C326.891 48.8463 324.202 45.2869 320.962 45.2158C324.802 43.686 328.642 42.1322 332.483 40.6024C334.427 39.8136 336.491 38.9292 337.547 37.1371C338.603 35.345 337.858 32.4302 335.77 32.1678C344.627 29.1079 353.195 25.2357 361.356 20.6708C360.539 19.2613 359.723 17.8518 358.883 16.4184C364.572 16.9908 370.452 15.2694 374.892 11.7086C368.531 11.1842 362.05 11.7827 355.882 13.4802C366.492 14.8162 377.461 13.0222 387.086 8.43309C383.629 5.42331 377.316 9.34284 373.907 6.28526C372.875 5.37755 372.371 3.9919 371.338 3.08419C370.066 1.98538 368.241 1.81847 366.537 1.74711C349.23 0.818574 331.851 1.32359 314.64 3.21432C311.808 3.52546 308.208 4.62518 308.064 7.46839C303.935 7.30192 299.807 7.13545 295.702 6.96898C292.726 10.9357 286.894 12.4898 282.332 10.5076C281.3 12.1324 280.269 13.7573 279.237 15.3822C282.118 17.3647 285.718 18.2719 289.199 17.889C291.336 22.237 298.225 23.1914 301.465 19.583C302.907 24.5285 310.324 23.5953 314.74 20.8946C319.132 18.1939 324.796 14.7524 328.926 17.8576C323.454 22.0876 316.421 24.2631 309.508 23.906C311.236 25.9843 312.965 28.0626 314.694 30.1409C310.445 30.4046 306.676 27.7054 302.955 25.6514C299.234 23.5974 294.361 22.1408 290.929 24.6502C294.026 27.1822 297.147 29.6903 300.244 32.2223C291.697 27.7321 283.127 23.242 274.581 18.7758C272.084 17.4622 269.179 16.1247 266.515 17.1048C263.851 18.0849 263.059 22.7202 265.796 23.4603C263.684 23.843 261.86 25.5397 261.308 27.5945C266.373 27.9997 271.366 29.4084 275.903 31.7012C273.767 32.3945 271.631 33.0639 269.495 33.7572C274.368 35.3331 279.241 36.9091 284.114 38.4851C285.098 38.7955 286.25 39.1298 287.162 38.604C288.075 38.1021 288.41 36.9791 288.914 36.0711C290.45 33.3471 294.387 32.2951 297.075 33.8953C296.451 35.3529 295.828 36.8343 295.228 38.2919C297.532 38.3153 299.837 38.3149 302.141 38.3384C302.189 39.6046 302.214 40.847 302.262 42.1133C305.598 42.6383 309.031 42.5421 312.343 41.8247C311.144 46.2928 304.639 46.6763 300.582 44.4312C296.525 42.1861 293.332 38.34 288.867 37.0985C290.283 40.4192 292.564 43.3575 295.421 45.579C289.468 44.6244 283.275 45.2229 277.611 47.2787C277.058 46.0842 276.506 44.9136 275.954 43.7191C271.297 45.6552 271.994 52.3449 273.508 57.147C273.964 58.5565 274.42 59.99 275.357 61.1366C277.47 63.7166 281.262 64.0265 284.623 64.1214C289.664 64.2638 294.729 64.4062 299.77 64.5486C306.803 64.6429 322.19 67.9371 321.924 57.6874Z" fill="#D9E8FF"/>
<path d="M266.546 52.2976C267.938 51.3416 270.435 52.1535 271.059 50.6003C271.539 49.4295 270.29 48.3307 269.186 47.7097C268.082 47.0887 266.761 46.1332 267.073 44.9146C266.089 45.0581 265.057 44.8433 264.216 44.3178C266.329 43.7679 268.441 43.2179 270.553 42.668C271.369 42.4528 272.378 41.7358 271.897 41.0669C271.729 40.828 271.441 40.7325 271.153 40.6609C269.857 40.3266 268.416 40.2791 267.264 39.5864C266.112 38.8698 265.463 37.1019 266.471 36.1938C265.751 36.1222 265.031 36.0746 264.311 36.003C264.287 35.4296 264.238 34.8562 264.214 34.2828C260.469 34.1879 256.749 33.878 253.028 33.3769C252.476 35.8619 254.901 38.5136 257.446 38.2264C257.854 38.1785 258.31 38.0829 258.646 38.3217C258.958 38.5367 259.03 38.919 259.198 39.2534C259.678 40.233 260.999 40.7106 262.007 40.2564C261.719 40.9732 261.215 41.6185 260.591 42.0725C261.791 42.7174 263.136 43.1234 264.48 43.2904C263.4 44.1268 262.152 44.7244 260.808 45.0113C261.36 45.4652 261.912 45.8952 262.464 46.349C261.048 46.3732 259.632 46.3974 258.239 46.4454C257.807 47.7596 259.104 49.0257 260.4 49.5511C261.841 50.1242 268.827 54.5431 264.627 56.527C262.25 57.6504 261.241 53.7322 262.081 52.2507C263.402 55.3087 262.995 59.5856 265.348 62.2612C267.053 64.2201 269.645 64.578 271.277 61.9972C274.157 57.5048 267.243 56.1681 266.546 52.2976Z" fill="#D9E8FF"/>
<path d="M308.426 396.959C306.771 401.379 312.125 406.539 316.517 404.77C317.789 404.244 318.893 403.312 320.237 403.073C324.006 402.403 326.191 407.134 326.984 410.885C327.897 415.161 328.786 419.724 327.202 423.786C325.283 428.661 320.051 432.055 319.428 437.263C318.924 441.516 321.734 445.888 320.294 449.926C319.646 451.742 318.183 453.2 317.487 455.015C316.263 458.265 317.728 461.849 319.169 465.026C323.972 475.538 328.799 486.049 333.601 496.561C334.682 498.926 335.835 501.387 337.923 502.963C339.58 504.206 341.644 504.779 343.397 505.901C346.254 507.716 348.007 510.798 349.639 513.761C352.665 519.231 355.714 524.798 357.012 530.914C358.766 539.252 357.111 547.877 355.456 556.24C353.034 568.449 350.612 580.683 348.19 592.892C345.528 606.344 342.866 619.772 340.18 633.224C343.037 631.503 345.148 628.612 345.94 625.386C347.31 634.13 345.583 643.305 341.12 650.952C340.735 647.655 340.35 644.358 339.966 641.06C336.703 648.085 335.024 655.803 335.073 663.544C335.074 664.93 335.194 666.459 336.178 667.462C337.09 668.418 338.531 668.632 339.707 669.23C342.252 670.567 343.357 674.103 341.989 676.636C343.333 676.946 344.701 677.256 346.046 677.567C348.134 679.215 343.19 681.533 343.215 684.185C343.215 685.261 344.103 686.121 344.919 686.837C348.737 690.181 352.554 693.549 356.395 696.894C359.06 697.682 361.82 698.47 364.557 698.039C367.293 697.608 370.005 695.601 370.245 692.853C370.604 689.078 366.643 686.546 364.098 683.727C360.137 679.356 359.175 672.929 360.158 667.123C361.165 661.317 363.877 655.965 366.54 650.732C364.812 650.087 363.083 649.442 361.331 648.774C361.45 644.903 365.434 642.489 367.93 639.526C372.49 634.126 371.984 625.214 366.846 620.365C368.743 619.026 370.639 617.688 372.559 616.374C374.119 618.858 375.68 621.343 377.241 623.827C381.129 620.72 382.592 614.914 380.647 610.327C389.481 612.572 399.465 605.378 400.064 596.299C397.879 596.228 396.15 593.719 396.87 591.664C397.59 589.609 400.494 588.701 402.271 589.967C401.287 592.476 404.192 595.223 406.88 594.888C409.569 594.553 411.585 592.163 412.472 589.607C413.384 587.074 413.456 584.326 413.959 581.674C414.774 577.421 416.694 573.383 419.502 570.085C421.83 567.337 424.83 564.995 426.197 561.674C427.205 559.237 427.205 556.537 427.636 553.933C429.027 545.451 435.29 537.947 443.427 535.031C443.764 538.83 449.789 538.04 452.597 535.459C456.821 531.612 459.652 526.307 460.516 520.692C461.259 515.77 460.61 510.442 462.937 506.022C463.921 504.158 465.433 502.533 466.009 500.502C466.488 498.758 466.248 496.918 466.344 495.103C466.846 485.402 477.286 477.731 476.084 468.102C475.291 461.843 469.817 457.352 464.776 453.554C457.045 447.75 448.835 441.73 439.233 440.538C433.136 439.774 426.559 440.97 421.085 438.224C423.534 438.08 425.261 435.547 425.381 433.11C425.5 430.673 424.444 428.355 423.411 426.158C422.715 424.676 422.019 423.171 421.322 421.69C418.488 415.646 413.83 408.551 407.205 409.508C405.237 409.795 403.077 410.775 401.396 409.7C399.86 408.721 399.692 406.594 398.851 404.97C395.585 398.639 383.176 401.222 381.302 394.341C380.822 392.549 381.229 390.375 379.933 389.037C378.876 387.962 377.172 387.939 375.66 387.987C368.795 388.251 361.954 388.491 355.089 388.755C354.849 391.431 353.097 393.94 350.649 395.064C351.009 396.64 351.37 398.217 351.73 399.77C351.178 402.566 346.45 402.232 345.225 399.652C344 397.072 345.176 394.037 346.64 391.576C348.079 389.115 349.855 386.63 349.831 383.763C346.71 382.282 343.566 385.508 341.31 388.113C339.054 390.717 334.662 392.988 332.597 390.217C332.862 393.06 333.126 395.879 333.391 398.722C328.975 402.57 321.005 400.875 318.532 395.595C316.828 397.698 314.932 399.92 312.316 400.662C309.699 401.403 306.266 399.755 306.29 397.055C307.635 402.908 313.445 407.399 319.47 407.254" fill="#D9E8FF"/>
<path d="M302.174 340.909C304.263 343.011 307.503 339.857 310.456 339.474C313.312 339.115 315.641 341.504 317.778 343.415C319.914 345.326 323.251 346.926 325.483 345.11C326.541 349.53 332.734 351.727 336.382 349.002C336.046 350.555 338.111 351.63 339.695 351.343C341.28 351.056 342.672 350.076 344.28 349.956C346.584 349.789 348.817 351.819 348.841 354.137C348.89 354.973 347.714 355.284 346.873 355.069C346.057 354.854 345.145 354.424 344.425 354.878C343.921 355.189 343.729 355.81 343.369 356.288C342.073 358.032 339.384 357.364 337.32 356.671C335.255 355.955 332.351 355.764 331.559 357.772C338.016 359.037 344.738 358.94 351.147 357.481C350.619 357.983 351.003 358.962 351.675 359.249C352.347 359.536 353.115 359.368 353.811 359.201C356.548 358.555 359.284 357.886 362.021 357.24C363.677 358.243 365.861 358.243 367.518 357.263C367.398 358.004 367.302 358.768 367.182 359.509C370.399 360.894 374.551 359.555 376.351 356.568C371.79 355.829 367.253 355.065 362.692 354.325C359.427 353.776 356.067 353.227 353.21 351.555C350.401 349.907 348.168 347.232 345.047 346.229C340.702 344.82 335.734 347.019 331.509 345.3C327.428 343.628 324.858 338.563 320.441 338.493C319.001 338.469 317.489 338.995 316.192 338.398C312.88 336.893 313.335 333.763 309.039 335.389C308.271 335.747 302.895 341.626 302.174 340.909Z" fill="#D9E8FF"/>
<path d="M667.931 254.9C665.843 259.153 664.908 263.908 665.725 268.567C667.143 276.595 673.386 284.001 671.635 291.981C668.898 291.265 666.185 290.572 663.448 289.88" fill="#D9E8FF"/>
<path d="M697.245 147.474C697.076 147.977 696.86 148.456 696.667 148.935L697.245 147.474Z" fill="#D9E8FF"/>
<path d="M697.771 144.297C697.723 142.385 696.906 140.57 695.657 139.064L697.771 144.297Z" fill="#D9E8FF"/>
</svg>
