<svg width="118" height="62" viewBox="0 0 118 62" fill="none" xmlns="http://www.w3.org/2000/svg">
<path d="M85.24 18.3935V26.346C85.24 28.0875 84.7542 29.4212 83.7826 30.3471C82.811 31.284 81.4695 31.7524 79.7582 31.7524C78.7755 31.7524 77.8757 31.6147 77.0587 31.3391C76.2416 31.0745 75.546 30.6943 74.972 30.1983L76.0153 28.2143C77.0642 29.0629 78.2897 29.4873 79.692 29.4873C80.6635 29.4873 81.3812 29.2448 81.845 28.7599C82.3196 28.2639 82.5571 27.5033 82.5571 26.4783V25.7673C81.7842 26.7152 80.6911 27.1892 79.2779 27.1892C77.8095 27.1892 76.6778 26.7759 75.8829 25.9492C75.0989 25.1115 74.707 23.9101 74.707 22.3449V18.3935H77.3899V22.1796C77.3899 23.0835 77.6052 23.7668 78.0358 24.2297C78.4664 24.6927 79.0736 24.9241 79.8576 24.9241C80.6857 24.9241 81.3425 24.6816 81.8284 24.1967C82.3142 23.7117 82.5571 22.9787 82.5571 21.9977V18.3935H85.24ZM97.3656 28.9748C96.8135 29.3496 96.1179 29.6416 95.2788 29.8511C94.4508 30.0605 93.5674 30.1652 92.629 30.1652C91.4586 30.1652 90.465 30.0219 89.648 29.7353C88.8309 29.4377 88.2126 29.0299 87.7931 28.5119C87.3735 27.9828 87.1638 27.3821 87.1638 26.7097C87.1638 26.0925 87.3349 25.5469 87.6772 25.0729C88.0194 24.5989 88.4887 24.2463 89.0849 24.0148C88.6321 23.7723 88.2789 23.4416 88.0249 23.0228C87.782 22.604 87.6606 22.1355 87.6606 21.6175C87.6606 20.9892 87.8537 20.416 88.2402 19.898C88.6266 19.38 89.2118 18.9667 89.9958 18.658C90.7796 18.3493 91.7402 18.1951 92.8774 18.1951C93.6282 18.1951 94.3624 18.2723 95.0801 18.4265C95.7977 18.5699 96.4216 18.7683 96.9515 19.0217L96.2063 21.0719C95.1904 20.5979 94.114 20.3609 92.9768 20.3609C92.1156 20.3609 91.4641 20.4932 91.0226 20.7577C90.592 21.0112 90.3767 21.3584 90.3767 21.7993C90.3767 22.2072 90.5201 22.5213 90.8073 22.7417C91.1054 22.9512 91.5525 23.0559 92.1487 23.0559H95.312V25.1721H91.9831C91.3096 25.1721 90.7907 25.2879 90.4264 25.5193C90.062 25.7508 89.8798 26.0869 89.8798 26.5279C89.8798 26.9908 90.1117 27.3545 90.5754 27.6191C91.0501 27.8725 91.7733 27.9993 92.7449 27.9993C93.4294 27.9993 94.114 27.9112 94.7986 27.7348C95.4831 27.5475 96.0627 27.2884 96.5375 26.9577L97.3656 28.9748ZM112.171 18.1951C113.541 18.1951 114.606 18.5973 115.368 19.402C116.13 20.1956 116.511 21.3475 116.511 22.8575V29.9668H113.828V22.9401C113.828 22.1245 113.612 21.5128 113.182 21.1049C112.763 20.6861 112.205 20.4767 111.509 20.4767C110.747 20.4767 110.14 20.6971 109.687 21.138C109.235 21.5679 109.008 22.2237 109.008 23.1055V29.9668H106.325V22.9401C106.325 22.1245 106.127 21.5128 105.729 21.1049C105.332 20.6861 104.79 20.4767 104.106 20.4767C103.355 20.4767 102.753 20.6971 102.301 21.138C101.848 21.5679 101.622 22.2237 101.622 23.1055V29.9668H98.9387V18.3935H101.539V19.8153C101.892 19.2973 102.361 18.9005 102.947 18.6249C103.532 18.3384 104.205 18.1951 104.967 18.1951C105.762 18.1951 106.458 18.3439 107.054 18.6415C107.65 18.928 108.109 19.3469 108.429 19.898C108.826 19.3469 109.345 18.928 109.985 18.6415C110.636 18.3439 111.365 18.1951 112.171 18.1951ZM74.5455 34.7201H78.4954C79.4394 34.7201 80.2716 34.902 80.992 35.2657C81.7207 35.6212 82.2838 36.1255 82.6813 36.7785C83.0871 37.4316 83.2899 38.1921 83.2899 39.0601C83.2899 39.9281 83.0871 40.6887 82.6813 41.3417C82.2838 41.9948 81.7207 42.5032 80.992 42.8669C80.2716 43.2224 79.4394 43.4001 78.4954 43.4001H74.5455V34.7201ZM78.396 41.7509C79.2655 41.7509 79.957 41.5112 80.4704 41.0317C80.992 40.544 81.2529 39.8868 81.2529 39.0601C81.2529 38.2335 80.992 37.5804 80.4704 37.1009C79.957 36.6132 79.2655 36.3693 78.396 36.3693H76.5577V41.7509H78.396ZM84.6707 36.7289H86.6084V43.4001H84.6707V36.7289ZM85.6396 35.7989C85.2835 35.7989 84.9937 35.6956 84.7701 35.4889C84.5465 35.2823 84.4347 35.026 84.4347 34.7201C84.4347 34.4143 84.5465 34.158 84.7701 33.9513C84.9937 33.7447 85.2835 33.6413 85.6396 33.6413C85.9957 33.6413 86.2855 33.7405 86.5091 33.9389C86.7326 34.1373 86.8444 34.3853 86.8444 34.6829C86.8444 35.0053 86.7326 35.274 86.5091 35.4889C86.2855 35.6956 85.9957 35.7989 85.6396 35.7989ZM95.3005 36.7289V42.2841C95.3005 43.5076 94.9817 44.4169 94.3441 45.0121C93.7064 45.6073 92.7749 45.9049 91.5493 45.9049C90.9034 45.9049 90.2906 45.8264 89.711 45.6693C89.1314 45.5123 88.6511 45.2849 88.2702 44.9873L89.0403 43.5985C89.3218 43.83 89.6779 44.0119 90.1085 44.1441C90.5391 44.2847 90.9697 44.3549 91.4003 44.3549C92.071 44.3549 92.5637 44.202 92.8784 43.8961C93.2013 43.5985 93.3628 43.1439 93.3628 42.5321V42.2469C92.8577 42.8008 92.1538 43.0777 91.2512 43.0777C90.6384 43.0777 90.0754 42.9455 89.562 42.6809C89.0568 42.4081 88.6552 42.0279 88.3571 41.5401C88.059 41.0524 87.9099 40.4903 87.9099 39.8537C87.9099 39.2172 88.059 38.6551 88.3571 38.1673C88.6552 37.6796 89.0568 37.3035 89.562 37.0389C90.0754 36.7661 90.6384 36.6297 91.2512 36.6297C92.2201 36.6297 92.957 36.948 93.4622 37.5845V36.7289H95.3005ZM91.6363 41.4905C92.1497 41.4905 92.5678 41.3417 92.8908 41.0441C93.222 40.7383 93.3876 40.3415 93.3876 39.8537C93.3876 39.366 93.222 38.9733 92.8908 38.6757C92.5678 38.3699 92.1497 38.2169 91.6363 38.2169C91.1229 38.2169 90.7005 38.3699 90.3693 38.6757C90.0381 38.9733 89.8725 39.366 89.8725 39.8537C89.8725 40.3415 90.0381 40.7383 90.3693 41.0441C90.7005 41.3417 91.1229 41.4905 91.6363 41.4905ZM97.1039 36.7289H99.0416V43.4001H97.1039V36.7289ZM98.0728 35.7989C97.7167 35.7989 97.4269 35.6956 97.2033 35.4889C96.9797 35.2823 96.8679 35.026 96.8679 34.7201C96.8679 34.4143 96.9797 34.158 97.2033 33.9513C97.4269 33.7447 97.7167 33.6413 98.0728 33.6413C98.4288 33.6413 98.7186 33.7405 98.9422 33.9389C99.1658 34.1373 99.2776 34.3853 99.2776 34.6829C99.2776 35.0053 99.1658 35.274 98.9422 35.4889C98.7186 35.6956 98.4288 35.7989 98.0728 35.7989ZM104.865 43.0777C104.674 43.2183 104.438 43.3257 104.157 43.4001C103.884 43.4663 103.598 43.4993 103.299 43.4993C102.496 43.4993 101.879 43.2968 101.449 42.8917C101.018 42.4867 100.803 41.8915 100.803 41.1061V35.2533H102.74V36.8777H104.393V38.3657H102.74V41.0813C102.74 41.3624 102.811 41.5815 102.952 41.7385C103.092 41.8873 103.295 41.9617 103.561 41.9617C103.859 41.9617 104.124 41.8791 104.356 41.7137L104.865 43.0777ZM112.535 36.7289V43.4001H110.684V42.6313C110.204 43.21 109.508 43.4993 108.597 43.4993C107.968 43.4993 107.397 43.3588 106.883 43.0777C106.378 42.7967 105.981 42.3957 105.691 41.8749C105.401 41.3541 105.256 40.7507 105.256 40.0645C105.256 39.3784 105.401 38.7749 105.691 38.2541C105.981 37.7333 106.378 37.3324 106.883 37.0513C107.397 36.7703 107.968 36.6297 108.597 36.6297C109.45 36.6297 110.117 36.8984 110.597 37.4357V36.7289H112.535ZM108.933 41.9121C109.421 41.9121 109.827 41.7468 110.15 41.4161C110.473 41.0772 110.634 40.6267 110.634 40.0645C110.634 39.5024 110.473 39.056 110.15 38.7253C109.827 38.3864 109.421 38.2169 108.933 38.2169C108.436 38.2169 108.026 38.3864 107.703 38.7253C107.38 39.056 107.219 39.5024 107.219 40.0645C107.219 40.6267 107.38 41.0772 107.703 41.4161C108.026 41.7468 108.436 41.9121 108.933 41.9121ZM116.726 43.4993C115.972 43.4993 115.384 43.3009 114.962 42.9041C114.54 42.4991 114.329 41.9287 114.329 41.1929V34.1993H116.266V41.0813C116.266 41.3624 116.337 41.5815 116.477 41.7385C116.626 41.8873 116.834 41.9617 117.098 41.9617C117.198 41.9617 117.297 41.9493 117.397 41.9245C117.504 41.8997 117.587 41.8708 117.645 41.8377L117.732 43.3381C117.409 43.4456 117.074 43.4993 116.726 43.4993Z" fill="#F2F2F2"/>
<path d="M18.293 17.1348C18.3353 17.1864 18.3729 17.2287 18.4152 17.2804C18.6694 17.5857 18.9422 17.9192 19.2386 18.2762C19.3845 18.4547 19.5398 18.6379 19.695 18.8257C20.4808 19.7698 21.37 20.8407 22.3062 21.9586C22.6779 22.4048 23.0591 22.8604 23.4402 23.316C23.8213 23.7717 24.2071 24.2319 24.5882 24.6875C24.6117 24.7157 24.6352 24.7439 24.6588 24.772C24.8328 24.9787 25.0022 25.1854 25.1762 25.3874C25.2045 25.4202 25.2327 25.4579 25.2657 25.4907C25.4021 25.6504 25.5338 25.8101 25.6656 25.9698C25.7503 26.0731 25.835 26.1718 25.9196 26.2751C25.9432 26.3033 25.9667 26.3314 25.9902 26.3597C26.042 26.4254 26.0985 26.4864 26.1502 26.5523C26.2161 26.632 26.2819 26.7119 26.3478 26.7918C26.376 26.8294 26.409 26.8623 26.4372 26.8998C26.5172 26.9937 26.5972 27.0924 26.6772 27.1863C26.7336 27.252 26.7854 27.3179 26.8418 27.3836C26.9077 27.4635 26.9735 27.5433 27.0395 27.6231C27.0959 27.6936 27.1571 27.7594 27.2135 27.8298C27.2417 27.8627 27.27 27.9003 27.3029 27.9331C27.3923 28.0412 27.4817 28.1492 27.5711 28.2525C27.5994 28.2854 27.6275 28.3183 27.6558 28.3512C27.7075 28.4169 27.7639 28.478 27.8157 28.5391C27.8722 28.6048 27.924 28.6706 27.9804 28.7363C28.0086 28.7692 28.0321 28.7974 28.0604 28.8302C28.3898 29.2201 28.6956 29.5912 28.9873 29.9341C29.0014 29.9481 29.0155 29.9669 29.0296 29.9811C29.119 30.0844 29.199 30.183 29.2837 30.2817C29.3308 30.338 29.3777 30.3944 29.4201 30.4461C29.4389 30.4695 29.4625 30.4977 29.4813 30.5212C29.6224 30.6856 29.7494 30.8406 29.8766 30.9908C30.0318 31.1741 30.1777 31.3479 30.3047 31.4981C30.3423 31.5451 30.3753 31.5827 30.4082 31.625L30.4128 31.6297C30.5494 31.7941 30.6716 31.9397 30.7705 32.057C30.7705 32.057 30.7705 32.057 30.7751 32.0618C30.8222 32.1181 30.8693 32.1698 30.9069 32.2168C30.9163 32.2262 30.9257 32.2308 30.9351 32.2402C30.9869 32.2779 31.0716 32.2825 31.1233 32.2402C31.1327 32.2308 31.1422 32.2262 31.1516 32.2168C31.1845 32.1792 31.2222 32.1323 31.2645 32.0853C31.2927 32.0476 31.3257 32.0101 31.3586 31.9725C31.4338 31.8833 31.5185 31.7847 31.6079 31.6767C31.6409 31.6391 31.6691 31.6062 31.6974 31.5686C31.7067 31.5592 31.7115 31.5498 31.7209 31.5404C31.7679 31.4841 31.8196 31.423 31.8714 31.3619C31.8714 31.3573 31.8761 31.3573 31.8761 31.3573C31.9185 31.3056 31.9655 31.2492 32.0126 31.1929C32.0455 31.1506 32.0832 31.1083 32.1207 31.0613C32.2525 30.9017 32.3937 30.7373 32.5442 30.5541C32.563 30.5306 32.5819 30.507 32.6054 30.4836C32.6665 30.4085 32.7371 30.3286 32.803 30.2487C32.8641 30.1783 32.9253 30.1031 32.9865 30.028C33.1983 29.7744 33.424 29.5067 33.6593 29.2248C33.7064 29.1731 33.7487 29.1168 33.7957 29.0651C33.8099 29.0463 33.8286 29.0275 33.8428 29.0087C33.9086 28.9289 33.9792 28.8491 34.0451 28.7645C34.1157 28.68 34.1862 28.5954 34.2615 28.5062C34.3038 28.4545 34.3462 28.4075 34.3885 28.3558C34.4073 28.3324 34.4262 28.3136 34.445 28.2901C34.5438 28.168 34.6473 28.0458 34.7508 27.9237C34.779 27.8908 34.8025 27.8627 34.8308 27.8298C34.8637 27.7923 34.8967 27.7547 34.9249 27.717C35.179 27.4164 35.4378 27.1064 35.7012 26.787C35.7624 26.7119 35.8283 26.6368 35.8894 26.5617C35.8988 26.5523 35.9082 26.5381 35.9176 26.5287C35.9977 26.4301 36.0823 26.3314 36.167 26.2329C36.2376 26.153 36.3034 26.0685 36.374 25.9886C36.5058 25.8336 36.6375 25.6739 36.7693 25.5142C36.8069 25.4673 36.8446 25.4202 36.8869 25.3733C37.0562 25.1713 37.2257 24.9693 37.395 24.7674C37.4185 24.7439 37.4374 24.7157 37.4609 24.6923C37.842 24.2367 38.2231 23.7763 38.6089 23.3207C38.99 22.8651 39.3711 22.4095 39.7428 21.9633C40.6744 20.8454 41.5683 19.7745 42.354 18.8304C42.5093 18.6425 42.6645 18.4593 42.8104 18.2808C43.1068 17.9239 43.3797 17.5904 43.6338 17.2851C43.6761 17.2335 43.7091 17.1912 43.7514 17.1442C40.392 14.0912 35.9271 12.2264 31.0292 12.2264C26.1172 12.2264 21.6523 14.0864 18.293 17.1348Z" fill="white"/>
<path d="M36.4487 40.0986C36.1805 39.8543 35.7571 39.9248 35.5736 40.2394L32.7036 45.2182L31.9931 46.4442C31.8614 46.6696 31.6214 46.8105 31.358 46.8105H31.0192H30.6898H30.6804C30.417 46.8105 30.1723 46.6696 30.0405 46.4394L30.0359 46.4348L26.4601 40.23C26.2813 39.9154 25.8532 39.8496 25.585 40.0892L22.9173 42.4659L19.2098 45.7725C22.4421 48.3605 26.5448 49.9105 31.0145 49.9105C35.4842 49.9105 39.5869 48.3605 42.8239 45.7678L41.3983 44.4949L36.4487 40.0986Z" fill="white"/>
<path d="M16.2652 29.3186C15.3995 27.8672 14.3832 26.1623 13.5269 24.7203C13.4657 24.6169 13.4046 24.5136 13.3434 24.4149C12.5576 26.4863 12.1249 28.7315 12.1249 31.0753C12.1249 33.6398 12.6377 36.0775 13.5692 38.304L14.2891 37.4256L18.1565 32.7051C18.1613 32.7004 18.1942 32.6629 18.2366 32.6065C18.2319 32.6018 18.2271 32.5971 18.2225 32.5877C18.1048 32.4045 17.2861 31.033 16.2652 29.3186Z" fill="white"/>
<path d="M31.0526 0C13.9031 0 0 13.8701 0 30.9812C0 48.0923 13.9031 61.9624 31.0526 61.9624C48.2022 61.9624 62.1053 48.0923 62.1053 30.9812C62.1053 13.8701 48.2022 0 31.0526 0ZM55.3301 47.3173H55.316H44.6029C44.5888 47.3173 44.57 47.3126 44.5559 47.3079C44.5511 47.3126 44.5511 47.3126 44.5465 47.3173L44.5417 47.3126C40.8719 50.3562 36.1575 52.188 31.015 52.188C25.8725 52.188 21.1581 50.3562 17.493 47.3126H17.4883C17.4836 47.3079 17.4836 47.3079 17.4789 47.3032C17.4647 47.3079 17.4506 47.3126 17.4318 47.3126H6.71866H6.70454C6.49283 47.3126 6.37991 47.0683 6.51164 46.9087L11.9553 40.2624C10.605 37.4818 9.84745 34.363 9.84745 31.0657C9.84745 19.4032 19.3232 9.94818 31.015 9.94818C42.7068 9.94818 52.1825 19.4032 52.1825 31.0657C52.1825 34.3583 51.425 37.4771 50.0794 40.2577L52.1449 42.7754L55.523 46.8993L55.5325 46.9087C55.6548 47.073 55.5419 47.3173 55.3301 47.3173Z" fill="white"/>
<path d="M48.5122 24.7159C47.6512 26.1579 46.6396 27.8629 45.7739 29.3142C44.7483 31.0333 43.9343 32.4001 43.8214 32.588C43.8167 32.5927 43.8119 32.5974 43.8073 32.6021L43.8778 32.6913C43.8825 32.696 43.8825 32.7007 43.8872 32.7054L48.4652 38.2948C49.392 36.0685 49.9049 33.6307 49.9049 31.0709C49.9049 28.7271 49.472 26.4866 48.6909 24.4199C48.6299 24.5186 48.5733 24.6172 48.5122 24.7159Z" fill="white"/>
</svg>
